<svg width="312" height="865" viewBox="0 0 312 865" fill="none" xmlns="http://www.w3.org/2000/svg">
<g clip-path="url(#clip0_2041_2)">
<path d="M41.1328 71.4297L95 72.7969C95.5469 69.8802 96.1849 66.918 96.9141 63.9102C97.7344 60.9023 98.5547 57.9401 99.375 55.0234C100.286 52.1979 101.198 49.4635 102.109 46.8203C103.021 44.1771 103.932 41.8073 104.844 39.7109L138.477 44.3594C135.56 50.1016 133.372 56.5273 131.914 63.6367C130.456 70.7461 129.727 77.8099 129.727 84.8281C129.727 86.1042 129.772 87.6536 129.863 89.4766C129.954 91.3906 130.182 93.2135 130.547 94.9453C131.003 96.6771 131.686 98.1354 132.598 99.3203C133.509 100.596 134.74 101.234 136.289 101.234C137.93 101.234 139.16 100.323 139.98 98.5C140.892 96.7682 141.53 94.6719 141.895 92.2109C142.35 89.8411 142.624 87.4258 142.715 84.9648C142.806 82.5039 142.852 80.6354 142.852 79.3594C142.852 73.4349 143.626 68.0573 145.176 63.2266C146.725 58.3958 148.913 54.2031 151.738 50.6484C154.655 47.1849 158.118 44.4961 162.129 42.582C166.139 40.668 170.651 39.7109 175.664 39.7109C180.312 39.7109 184.642 40.4857 188.652 42.0352C192.663 43.6758 196.309 45.9089 199.59 48.7344C202.871 51.651 205.742 55.069 208.203 58.9883C210.755 62.9987 212.852 67.3281 214.492 71.9766L272.188 69.7891L270.82 84.5547H217.773C218.047 85.8307 218.229 87.0612 218.32 88.2461C218.503 89.431 218.685 90.6615 218.867 91.9375L272.188 91.6641L271.914 106.43L218.867 104.516C218.685 110.531 218.092 116.592 217.09 122.699C216.178 128.806 214.674 134.411 212.578 139.516L177.852 135.961C179.128 131.13 180.221 126.163 181.133 121.059C182.044 115.954 182.5 111.078 182.5 106.43C182.5 104.971 182.454 103.012 182.363 100.551C182.272 98.181 181.999 95.8112 181.543 93.4414C181.087 91.1628 180.404 89.1576 179.492 87.4258C178.581 85.7852 177.305 85.0104 175.664 85.1016C174.297 85.1927 173.249 85.7852 172.52 86.8789C171.882 87.9727 171.38 89.3398 171.016 90.9805C170.742 92.7122 170.605 94.6263 170.605 96.7227C170.605 98.819 170.651 100.824 170.742 102.738C170.833 104.743 170.924 106.612 171.016 108.344C171.107 110.076 171.107 111.443 171.016 112.445C170.742 117.914 169.785 122.836 168.145 127.211C166.504 131.586 164.271 135.323 161.445 138.422C158.711 141.521 155.43 143.891 151.602 145.531C147.773 147.172 143.581 147.992 139.023 147.992C132.643 147.992 126.992 146.898 122.07 144.711C117.148 142.615 112.865 139.652 109.219 135.824C105.664 131.996 102.702 127.393 100.332 122.016C98.0534 116.729 96.3672 110.896 95.2734 104.516L41.4062 106.703L40.0391 93.3047L93.9062 92.7578C93.724 91.4818 93.6328 90.2057 93.6328 88.9297C93.6328 87.6536 93.6328 86.3776 93.6328 85.1016V84.5547L40.3125 84.8281L41.1328 71.4297Z" fill="#53FFC8"/>
<path d="M108.672 319.711C101.107 319.711 94.5899 318.298 89.1212 315.473C83.6524 312.738 79.0039 309.047 75.1758 304.398C71.3476 299.75 68.2032 294.372 65.7423 288.266C63.3725 282.25 61.5039 275.961 60.1367 269.398C58.7695 262.836 57.8582 256.228 57.4024 249.574C56.9467 243.012 56.7188 236.859 56.7188 231.117C56.7188 225.466 56.9467 219.587 57.4024 213.48C57.767 207.465 58.4505 201.449 59.4531 195.434C60.4557 189.418 61.7773 183.493 63.418 177.66C65.1497 171.827 67.2917 166.312 69.8437 161.117L245.938 160.844C248.034 165.948 249.902 171.371 251.543 177.113C253.275 182.855 254.688 188.689 255.781 194.613C256.966 200.629 257.832 206.599 258.379 212.523C259.017 218.448 259.336 224.19 259.336 229.75C259.336 236.221 258.926 242.738 258.105 249.301C257.285 255.954 255.918 262.335 254.004 268.441C252.09 274.548 249.583 280.245 246.484 285.531C243.477 290.818 239.74 295.421 235.273 299.34C230.807 303.35 225.612 306.449 219.687 308.637C213.763 310.915 206.927 312.055 199.18 312.055C194.076 312.055 189.29 311.326 184.824 309.867C180.358 308.409 176.348 306.313 172.793 303.578C169.238 300.844 166.185 297.517 163.633 293.598C161.172 289.678 159.349 285.258 158.164 280.336C156.615 286.26 154.336 291.638 151.328 296.469C148.32 301.391 144.674 305.538 140.391 308.91C136.107 312.374 131.276 315.017 125.898 316.84C120.521 318.754 114.779 319.711 108.672 319.711ZM186.602 250.258C189.245 250.258 191.478 249.711 193.301 248.617C195.215 247.523 196.764 246.156 197.949 244.516C199.134 242.966 200 241.234 200.547 239.32C201.094 237.497 201.367 235.857 201.367 234.398C201.367 232.576 201.094 230.798 200.547 229.066C200 227.335 199.362 225.648 198.633 224.008L168.281 223.188C168.281 225.284 168.464 227.882 168.828 230.98C169.193 234.079 169.967 237.042 171.152 239.867C172.428 242.784 174.251 245.245 176.621 247.25C179.082 249.255 182.409 250.258 186.602 250.258ZM142.031 230.844C142.031 228.201 141.758 225.648 141.211 223.188L110.039 222.641C109.766 224.008 109.492 225.329 109.219 226.605C109.036 227.973 108.945 229.294 108.945 230.57C108.945 232.484 109.128 234.581 109.492 236.859C109.948 239.138 110.768 241.28 111.953 243.285C113.229 245.29 114.915 246.931 117.012 248.207C119.108 249.574 121.888 250.258 125.352 250.258C128.815 250.258 131.641 249.574 133.828 248.207C136.016 246.931 137.702 245.336 138.887 243.422C140.163 241.508 140.983 239.411 141.348 237.133C141.803 234.854 142.031 232.758 142.031 230.844Z" fill="#53FFC8"/>
<path d="M212.031 490.609C205.286 490.609 197.858 490.29 189.746 489.652C181.634 489.014 173.249 487.966 164.59 486.508C155.931 485.049 147.135 483.135 138.203 480.766C129.362 478.487 120.84 475.616 112.637 472.152C104.434 468.689 96.7318 464.633 89.5312 459.984C82.4219 455.427 76.1784 450.141 70.8008 444.125C65.5143 438.201 61.3672 431.547 58.3594 424.164C55.2604 416.781 53.7109 408.578 53.7109 399.555C53.7109 388.982 55.4427 379.776 58.9062 371.938C62.2786 364.19 66.8359 357.536 72.5781 351.977C78.4114 346.417 85.1562 341.859 92.8125 338.305C100.56 334.75 108.717 331.97 117.285 329.965C125.944 327.96 134.74 326.547 143.672 325.727C152.695 324.997 161.354 324.633 169.648 324.633C182.409 324.633 195.124 325.271 207.793 326.547C220.553 327.823 233.268 329.646 245.937 332.016L243.477 396C229.167 393.539 214.766 391.397 200.273 389.574C185.872 387.842 171.38 386.977 156.797 386.977C155.247 386.977 152.923 387.022 149.824 387.113C146.816 387.296 143.398 387.569 139.57 387.934C135.833 388.298 131.96 388.799 127.949 389.438C124.03 390.167 120.43 391.124 117.148 392.309C113.867 393.493 111.178 394.906 109.082 396.547C106.986 398.279 105.937 400.284 105.937 402.562C105.937 405.206 107.168 407.576 109.629 409.672C112.181 411.768 115.553 413.591 119.746 415.141C123.939 416.781 128.77 418.194 134.238 419.379C139.707 420.564 145.404 421.566 151.328 422.387C157.253 423.207 163.177 423.845 169.102 424.301C175.026 424.848 180.54 425.258 185.645 425.531C190.749 425.896 195.26 426.124 199.18 426.215C203.099 426.306 206.016 426.352 207.93 426.352C215.039 426.352 222.103 426.215 229.121 425.941C236.23 425.759 243.294 425.44 250.312 424.984V488.969C237.734 490.062 224.974 490.609 212.031 490.609Z" fill="#53FFC8"/>
<path d="M255.781 674.906L164.727 609.008L67.9297 664.516L56.7187 601.078L115.781 559.516L53.9844 557.328L51.7969 500.453L261.25 504.828L257.695 568.539L195.898 563.617L261.25 606L255.781 674.906Z" fill="#53FFC8"/>
<path d="M156.523 828.031C148.229 828.031 140.208 827.074 132.461 825.16C124.805 823.246 117.604 820.466 110.859 816.82C104.115 813.266 97.9166 808.891 92.2656 803.695C86.7057 798.591 81.9205 792.803 77.9101 786.332C73.8997 779.952 70.7552 772.979 68.4765 765.414C66.289 757.849 65.1953 749.828 65.1953 741.352C65.1953 733.148 66.2435 725.31 68.3398 717.836C70.4362 710.453 73.3528 703.526 77.0898 697.055C80.9179 690.583 85.4752 684.704 90.7617 679.418C96.1393 674.223 102.064 669.757 108.535 666.02C115.098 662.374 122.116 659.503 129.59 657.406C137.064 655.401 144.857 654.398 152.969 654.398C160.898 654.398 168.646 655.355 176.211 657.27C183.867 659.184 191.068 661.918 197.812 665.473C204.557 669.118 210.755 673.493 216.406 678.598C222.057 683.702 226.934 689.398 231.035 695.688C235.137 702.068 238.327 708.949 240.605 716.332C242.884 723.715 244.023 731.508 244.023 739.711C244.023 752.927 241.973 764.958 237.871 775.805C233.77 786.742 227.891 796.039 220.234 803.695C212.669 811.443 203.464 817.413 192.617 821.605C181.862 825.889 169.831 828.031 156.523 828.031ZM152.969 767.328C156.888 767.328 160.671 766.736 164.316 765.551C168.053 764.457 171.335 762.816 174.16 760.629C177.077 758.441 179.401 755.707 181.133 752.426C182.956 749.236 183.867 745.544 183.867 741.352C183.867 737.068 183.092 733.24 181.543 729.867C179.993 726.495 177.852 723.578 175.117 721.117C172.474 718.747 169.329 716.924 165.684 715.648C162.129 714.372 158.346 713.734 154.336 713.734C150.508 713.734 146.68 714.281 142.852 715.375C139.023 716.469 135.56 718.109 132.461 720.297C129.362 722.484 126.855 725.173 124.941 728.363C123.027 731.645 122.07 735.427 122.07 739.711C122.07 743.995 122.891 747.823 124.531 751.195C126.263 754.659 128.542 757.576 131.367 759.945C134.284 762.315 137.611 764.138 141.348 765.414C145.085 766.69 148.958 767.328 152.969 767.328Z" fill="#53FFC8"/>
<mask id="mask0_2041_2" style="mask-type:luminance" maskUnits="userSpaceOnUse" x="0" y="-1" width="313" height="866">
<path d="M312.039 -0.289062H0.0390625V864.711H312.039V-0.289062Z" fill="white"/>
<path d="M41.1328 71.4297L95 72.7969C95.5469 69.8802 96.1849 66.918 96.9141 63.9102C97.7344 60.9023 98.5547 57.9401 99.375 55.0234C100.286 52.1979 101.198 49.4635 102.109 46.8203C103.021 44.1771 103.932 41.8073 104.844 39.7109L138.477 44.3594C135.56 50.1016 133.372 56.5273 131.914 63.6367C130.456 70.7461 129.727 77.8099 129.727 84.8281C129.727 86.1042 129.772 87.6536 129.863 89.4766C129.954 91.3906 130.182 93.2135 130.547 94.9453C131.003 96.6771 131.686 98.1354 132.598 99.3203C133.509 100.596 134.74 101.234 136.289 101.234C137.93 101.234 139.16 100.323 139.98 98.5C140.892 96.7682 141.53 94.6719 141.895 92.2109C142.35 89.8411 142.624 87.4258 142.715 84.9648C142.806 82.5039 142.852 80.6354 142.852 79.3594C142.852 73.4349 143.626 68.0573 145.176 63.2266C146.725 58.3958 148.913 54.2031 151.738 50.6484C154.655 47.1849 158.118 44.4961 162.129 42.582C166.139 40.668 170.651 39.7109 175.664 39.7109C180.312 39.7109 184.642 40.4857 188.652 42.0352C192.663 43.6758 196.309 45.9089 199.59 48.7344C202.871 51.651 205.742 55.069 208.203 58.9883C210.755 62.9987 212.852 67.3281 214.492 71.9766L272.188 69.7891L270.82 84.5547H217.773C218.047 85.8307 218.229 87.0612 218.32 88.2461C218.503 89.431 218.685 90.6615 218.867 91.9375L272.188 91.6641L271.914 106.43L218.867 104.516C218.685 110.531 218.092 116.592 217.09 122.699C216.178 128.806 214.674 134.411 212.578 139.516L177.852 135.961C179.128 131.13 180.221 126.163 181.133 121.059C182.044 115.954 182.5 111.078 182.5 106.43C182.5 104.971 182.454 103.012 182.363 100.551C182.272 98.181 181.999 95.8112 181.543 93.4414C181.087 91.1628 180.404 89.1576 179.492 87.4258C178.581 85.7852 177.305 85.0104 175.664 85.1016C174.297 85.1927 173.249 85.7852 172.52 86.8789C171.882 87.9727 171.38 89.3398 171.016 90.9805C170.742 92.7122 170.605 94.6263 170.605 96.7227C170.605 98.819 170.651 100.824 170.742 102.738C170.833 104.743 170.924 106.612 171.016 108.344C171.107 110.076 171.107 111.443 171.016 112.445C170.742 117.914 169.785 122.836 168.145 127.211C166.504 131.586 164.271 135.323 161.445 138.422C158.711 141.521 155.43 143.891 151.602 145.531C147.773 147.172 143.581 147.992 139.023 147.992C132.643 147.992 126.992 146.898 122.07 144.711C117.148 142.615 112.865 139.652 109.219 135.824C105.664 131.996 102.702 127.393 100.332 122.016C98.0534 116.729 96.3672 110.896 95.2734 104.516L41.4062 106.703L40.0391 93.3047L93.9062 92.7578C93.724 91.4818 93.6328 90.2057 93.6328 88.9297C93.6328 87.6536 93.6328 86.3776 93.6328 85.1016V84.5547L40.3125 84.8281L41.1328 71.4297Z" fill="black"/>
<path d="M108.672 319.711C101.107 319.711 94.5899 318.298 89.1212 315.473C83.6524 312.738 79.0039 309.047 75.1758 304.398C71.3476 299.75 68.2032 294.372 65.7423 288.266C63.3725 282.25 61.5039 275.961 60.1367 269.398C58.7695 262.836 57.8582 256.228 57.4024 249.574C56.9467 243.012 56.7188 236.859 56.7188 231.117C56.7188 225.466 56.9467 219.587 57.4024 213.48C57.767 207.465 58.4505 201.449 59.4531 195.434C60.4557 189.418 61.7773 183.493 63.418 177.66C65.1497 171.827 67.2917 166.312 69.8437 161.117L245.938 160.844C248.034 165.948 249.902 171.371 251.543 177.113C253.275 182.855 254.688 188.689 255.781 194.613C256.966 200.629 257.832 206.599 258.379 212.523C259.017 218.448 259.336 224.19 259.336 229.75C259.336 236.221 258.926 242.738 258.105 249.301C257.285 255.954 255.918 262.335 254.004 268.441C252.09 274.548 249.583 280.245 246.484 285.531C243.477 290.818 239.74 295.421 235.273 299.34C230.807 303.35 225.612 306.449 219.687 308.637C213.763 310.915 206.927 312.055 199.18 312.055C194.076 312.055 189.29 311.326 184.824 309.867C180.358 308.409 176.348 306.313 172.793 303.578C169.238 300.844 166.185 297.517 163.633 293.598C161.172 289.678 159.349 285.258 158.164 280.336C156.615 286.26 154.336 291.638 151.328 296.469C148.32 301.391 144.674 305.538 140.391 308.91C136.107 312.374 131.276 315.017 125.898 316.84C120.521 318.754 114.779 319.711 108.672 319.711ZM186.602 250.258C189.245 250.258 191.478 249.711 193.301 248.617C195.215 247.523 196.764 246.156 197.949 244.516C199.134 242.966 200 241.234 200.547 239.32C201.094 237.497 201.367 235.857 201.367 234.398C201.367 232.576 201.094 230.798 200.547 229.066C200 227.335 199.362 225.648 198.633 224.008L168.281 223.188C168.281 225.284 168.464 227.882 168.828 230.98C169.193 234.079 169.967 237.042 171.152 239.867C172.428 242.784 174.251 245.245 176.621 247.25C179.082 249.255 182.409 250.258 186.602 250.258ZM142.031 230.844C142.031 228.201 141.758 225.648 141.211 223.188L110.039 222.641C109.766 224.008 109.492 225.329 109.219 226.605C109.036 227.973 108.945 229.294 108.945 230.57C108.945 232.484 109.128 234.581 109.492 236.859C109.948 239.138 110.768 241.28 111.953 243.285C113.229 245.29 114.915 246.931 117.012 248.207C119.108 249.574 121.888 250.258 125.352 250.258C128.815 250.258 131.641 249.574 133.828 248.207C136.016 246.931 137.702 245.336 138.887 243.422C140.163 241.508 140.983 239.411 141.348 237.133C141.803 234.854 142.031 232.758 142.031 230.844Z" fill="black"/>
<path d="M212.031 490.609C205.286 490.609 197.858 490.29 189.746 489.652C181.634 489.014 173.249 487.966 164.59 486.508C155.931 485.049 147.135 483.135 138.203 480.766C129.362 478.487 120.84 475.616 112.637 472.152C104.434 468.689 96.7318 464.633 89.5312 459.984C82.4219 455.427 76.1784 450.141 70.8008 444.125C65.5143 438.201 61.3672 431.547 58.3594 424.164C55.2604 416.781 53.7109 408.578 53.7109 399.555C53.7109 388.982 55.4427 379.776 58.9062 371.938C62.2786 364.19 66.8359 357.536 72.5781 351.977C78.4114 346.417 85.1562 341.859 92.8125 338.305C100.56 334.75 108.717 331.97 117.285 329.965C125.944 327.96 134.74 326.547 143.672 325.727C152.695 324.997 161.354 324.633 169.648 324.633C182.409 324.633 195.124 325.271 207.793 326.547C220.553 327.823 233.268 329.646 245.937 332.016L243.477 396C229.167 393.539 214.766 391.397 200.273 389.574C185.872 387.842 171.38 386.977 156.797 386.977C155.247 386.977 152.923 387.022 149.824 387.113C146.816 387.296 143.398 387.569 139.57 387.934C135.833 388.298 131.96 388.799 127.949 389.438C124.03 390.167 120.43 391.124 117.148 392.309C113.867 393.493 111.178 394.906 109.082 396.547C106.986 398.279 105.937 400.284 105.937 402.562C105.937 405.206 107.168 407.576 109.629 409.672C112.181 411.768 115.553 413.591 119.746 415.141C123.939 416.781 128.77 418.194 134.238 419.379C139.707 420.564 145.404 421.566 151.328 422.387C157.253 423.207 163.177 423.845 169.102 424.301C175.026 424.848 180.54 425.258 185.645 425.531C190.749 425.896 195.26 426.124 199.18 426.215C203.099 426.306 206.016 426.352 207.93 426.352C215.039 426.352 222.103 426.215 229.121 425.941C236.23 425.759 243.294 425.44 250.312 424.984V488.969C237.734 490.062 224.974 490.609 212.031 490.609Z" fill="black"/>
<path d="M255.781 674.906L164.727 609.008L67.9297 664.516L56.7187 601.078L115.781 559.516L53.9844 557.328L51.7969 500.453L261.25 504.828L257.695 568.539L195.898 563.617L261.25 606L255.781 674.906Z" fill="black"/>
<path d="M156.523 828.031C148.229 828.031 140.208 827.074 132.461 825.16C124.805 823.246 117.604 820.466 110.859 816.82C104.115 813.266 97.9166 808.891 92.2656 803.695C86.7057 798.591 81.9205 792.803 77.9101 786.332C73.8997 779.952 70.7552 772.979 68.4765 765.414C66.289 757.849 65.1953 749.828 65.1953 741.352C65.1953 733.148 66.2435 725.31 68.3398 717.836C70.4362 710.453 73.3528 703.526 77.0898 697.055C80.9179 690.583 85.4752 684.704 90.7617 679.418C96.1393 674.223 102.064 669.757 108.535 666.02C115.098 662.374 122.116 659.503 129.59 657.406C137.064 655.401 144.857 654.398 152.969 654.398C160.898 654.398 168.646 655.355 176.211 657.27C183.867 659.184 191.068 661.918 197.812 665.473C204.557 669.118 210.755 673.493 216.406 678.598C222.057 683.702 226.934 689.398 231.035 695.688C235.137 702.068 238.327 708.949 240.605 716.332C242.884 723.715 244.023 731.508 244.023 739.711C244.023 752.927 241.973 764.958 237.871 775.805C233.77 786.742 227.891 796.039 220.234 803.695C212.669 811.443 203.464 817.413 192.617 821.605C181.862 825.889 169.831 828.031 156.523 828.031ZM152.969 767.328C156.888 767.328 160.671 766.736 164.316 765.551C168.053 764.457 171.335 762.816 174.16 760.629C177.077 758.441 179.401 755.707 181.133 752.426C182.956 749.236 183.867 745.544 183.867 741.352C183.867 737.068 183.092 733.24 181.543 729.867C179.993 726.495 177.852 723.578 175.117 721.117C172.474 718.747 169.329 716.924 165.684 715.648C162.129 714.372 158.346 713.734 154.336 713.734C150.508 713.734 146.68 714.281 142.852 715.375C139.023 716.469 135.56 718.109 132.461 720.297C129.362 722.484 126.855 725.173 124.941 728.363C123.027 731.645 122.07 735.427 122.07 739.711C122.07 743.995 122.891 747.823 124.531 751.195C126.263 754.659 128.542 757.576 131.367 759.945C134.284 762.315 137.611 764.138 141.348 765.414C145.085 766.69 148.958 767.328 152.969 767.328Z" fill="black"/>
</mask>
<g mask="url(#mask0_2041_2)">
<path d="M41 71.7188L94.8672 73.086C95.4141 70.1693 96.0521 67.2071 96.7813 64.1993C97.6016 61.1914 98.4219 58.2292 99.2422 55.3125C100.153 52.487 101.065 49.7526 101.976 47.1094C102.888 44.4662 103.799 42.0964 104.711 40L138.344 44.6485C135.427 50.3907 133.239 56.8164 131.781 63.9258C130.323 71.0352 129.594 78.099 129.594 85.1172C129.594 86.3933 129.639 87.9427 129.73 89.7657C129.821 91.6797 130.049 93.5026 130.414 95.2344C130.87 96.9662 131.553 98.4245 132.465 99.6094C133.376 100.885 134.607 101.523 136.156 101.523C137.797 101.523 139.027 100.612 139.847 98.7891C140.759 97.0573 141.397 94.961 141.762 92.5C142.217 90.1302 142.491 87.7149 142.582 85.2539C142.673 82.793 142.719 80.9245 142.719 79.6485C142.719 73.724 143.493 68.3464 145.043 63.5157C146.592 58.6849 148.78 54.4922 151.605 50.9375C154.522 47.474 157.985 44.7852 161.996 42.8711C166.006 40.9571 170.518 40 175.531 40C180.179 40 184.509 40.7748 188.519 42.3243C192.53 43.9649 196.176 46.198 199.457 49.0235C202.738 51.9401 205.609 55.3581 208.07 59.2774C210.622 63.2878 212.719 67.6172 214.359 72.2657L272.055 70.0782L270.687 84.8438H217.64C217.914 86.1198 218.096 87.3503 218.187 88.5352C218.37 89.7201 218.552 90.9506 218.734 92.2266L272.055 91.9532L271.781 106.719L218.734 104.805C218.552 110.82 217.959 116.881 216.957 122.988C216.045 129.095 214.541 134.7 212.445 139.805L177.719 136.25C178.995 131.419 180.088 126.452 181 121.348C181.911 116.243 182.367 111.367 182.367 106.719C182.367 105.26 182.321 103.301 182.23 100.84C182.139 98.4701 181.866 96.1003 181.41 93.7305C180.954 91.4519 180.271 89.4467 179.359 87.7149C178.448 86.0743 177.172 85.2995 175.531 85.3907C174.164 85.4818 173.116 86.0743 172.387 87.168C171.749 88.2618 171.247 89.6289 170.883 91.2696C170.609 93.0013 170.472 94.9154 170.472 97.0118C170.472 99.1081 170.518 101.113 170.609 103.027C170.7 105.032 170.791 106.901 170.883 108.633C170.974 110.365 170.974 111.732 170.883 112.734C170.609 118.203 169.652 123.125 168.012 127.5C166.371 131.875 164.138 135.612 161.312 138.711C158.578 141.81 155.297 144.18 151.469 145.82C147.64 147.461 143.448 148.281 138.89 148.281C132.51 148.281 126.859 147.187 121.937 145C117.015 142.904 112.732 139.941 109.086 136.113C105.531 132.285 102.569 127.682 100.199 122.305C97.9206 117.018 96.2344 111.185 95.1406 104.805L41.2734 106.992L41.2734 93.0469H93.7734C93.5912 91.7709 93.5 90.4948 93.5 89.2188C93.5 87.9427 93.5 86.6667 93.5 85.3907V84.8438L41.2734 85.1172L41 71.7188Z" stroke="#0287FF" stroke-width="72"/>
</g>
<mask id="mask1_2041_2" style="mask-type:luminance" maskUnits="userSpaceOnUse" x="0" y="-1" width="313" height="866">
<path d="M312.039 -0.289062H0.0390625V864.711H312.039V-0.289062Z" fill="white"/>
<path d="M41.1328 71.4297L95 72.7969C95.5469 69.8802 96.1849 66.918 96.9141 63.9102C97.7344 60.9023 98.5547 57.9401 99.375 55.0234C100.286 52.1979 101.198 49.4635 102.109 46.8203C103.021 44.1771 103.932 41.8073 104.844 39.7109L138.477 44.3594C135.56 50.1016 133.372 56.5273 131.914 63.6367C130.456 70.7461 129.727 77.8099 129.727 84.8281C129.727 86.1042 129.772 87.6536 129.863 89.4766C129.954 91.3906 130.182 93.2135 130.547 94.9453C131.003 96.6771 131.686 98.1354 132.598 99.3203C133.509 100.596 134.74 101.234 136.289 101.234C137.93 101.234 139.16 100.323 139.98 98.5C140.892 96.7682 141.53 94.6719 141.895 92.2109C142.35 89.8411 142.624 87.4258 142.715 84.9648C142.806 82.5039 142.852 80.6354 142.852 79.3594C142.852 73.4349 143.626 68.0573 145.176 63.2266C146.725 58.3958 148.913 54.2031 151.738 50.6484C154.655 47.1849 158.118 44.4961 162.129 42.582C166.139 40.668 170.651 39.7109 175.664 39.7109C180.312 39.7109 184.642 40.4857 188.652 42.0352C192.663 43.6758 196.309 45.9089 199.59 48.7344C202.871 51.651 205.742 55.069 208.203 58.9883C210.755 62.9987 212.852 67.3281 214.492 71.9766L272.188 69.7891L270.82 84.5547H217.773C218.047 85.8307 218.229 87.0612 218.32 88.2461C218.503 89.431 218.685 90.6615 218.867 91.9375L272.188 91.6641L271.914 106.43L218.867 104.516C218.685 110.531 218.092 116.592 217.09 122.699C216.178 128.806 214.674 134.411 212.578 139.516L177.852 135.961C179.128 131.13 180.221 126.163 181.133 121.059C182.044 115.954 182.5 111.078 182.5 106.43C182.5 104.971 182.454 103.012 182.363 100.551C182.272 98.181 181.999 95.8112 181.543 93.4414C181.087 91.1628 180.404 89.1576 179.492 87.4258C178.581 85.7852 177.305 85.0104 175.664 85.1016C174.297 85.1927 173.249 85.7852 172.52 86.8789C171.882 87.9727 171.38 89.3398 171.016 90.9805C170.742 92.7122 170.605 94.6263 170.605 96.7227C170.605 98.819 170.651 100.824 170.742 102.738C170.833 104.743 170.924 106.612 171.016 108.344C171.107 110.076 171.107 111.443 171.016 112.445C170.742 117.914 169.785 122.836 168.145 127.211C166.504 131.586 164.271 135.323 161.445 138.422C158.711 141.521 155.43 143.891 151.602 145.531C147.773 147.172 143.581 147.992 139.023 147.992C132.643 147.992 126.992 146.898 122.07 144.711C117.148 142.615 112.865 139.652 109.219 135.824C105.664 131.996 102.702 127.393 100.332 122.016C98.0534 116.729 96.3672 110.896 95.2734 104.516L41.4062 106.703L40.0391 93.3047L93.9062 92.7578C93.724 91.4818 93.6328 90.2057 93.6328 88.9297C93.6328 87.6536 93.6328 86.3776 93.6328 85.1016V84.5547L40.3125 84.8281L41.1328 71.4297Z" fill="black"/>
<path d="M108.672 319.711C101.107 319.711 94.5899 318.298 89.1212 315.473C83.6524 312.738 79.0039 309.047 75.1758 304.398C71.3476 299.75 68.2032 294.372 65.7423 288.266C63.3725 282.25 61.5039 275.961 60.1367 269.398C58.7695 262.836 57.8582 256.228 57.4024 249.574C56.9467 243.012 56.7188 236.859 56.7188 231.117C56.7188 225.466 56.9467 219.587 57.4024 213.48C57.767 207.465 58.4505 201.449 59.4531 195.434C60.4557 189.418 61.7773 183.493 63.418 177.66C65.1497 171.827 67.2917 166.312 69.8437 161.117L245.938 160.844C248.034 165.948 249.902 171.371 251.543 177.113C253.275 182.855 254.688 188.689 255.781 194.613C256.966 200.629 257.832 206.599 258.379 212.523C259.017 218.448 259.336 224.19 259.336 229.75C259.336 236.221 258.926 242.738 258.105 249.301C257.285 255.954 255.918 262.335 254.004 268.441C252.09 274.548 249.583 280.245 246.484 285.531C243.477 290.818 239.74 295.421 235.273 299.34C230.807 303.35 225.612 306.449 219.687 308.637C213.763 310.915 206.927 312.055 199.18 312.055C194.076 312.055 189.29 311.326 184.824 309.867C180.358 308.409 176.348 306.313 172.793 303.578C169.238 300.844 166.185 297.517 163.633 293.598C161.172 289.678 159.349 285.258 158.164 280.336C156.615 286.26 154.336 291.638 151.328 296.469C148.32 301.391 144.674 305.538 140.391 308.91C136.107 312.374 131.276 315.017 125.898 316.84C120.521 318.754 114.779 319.711 108.672 319.711ZM186.602 250.258C189.245 250.258 191.478 249.711 193.301 248.617C195.215 247.523 196.764 246.156 197.949 244.516C199.134 242.966 200 241.234 200.547 239.32C201.094 237.497 201.367 235.857 201.367 234.398C201.367 232.576 201.094 230.798 200.547 229.066C200 227.335 199.362 225.648 198.633 224.008L168.281 223.188C168.281 225.284 168.464 227.882 168.828 230.98C169.193 234.079 169.967 237.042 171.152 239.867C172.428 242.784 174.251 245.245 176.621 247.25C179.082 249.255 182.409 250.258 186.602 250.258ZM142.031 230.844C142.031 228.201 141.758 225.648 141.211 223.188L110.039 222.641C109.766 224.008 109.492 225.329 109.219 226.605C109.036 227.973 108.945 229.294 108.945 230.57C108.945 232.484 109.128 234.581 109.492 236.859C109.948 239.138 110.768 241.28 111.953 243.285C113.229 245.29 114.915 246.931 117.012 248.207C119.108 249.574 121.888 250.258 125.352 250.258C128.815 250.258 131.641 249.574 133.828 248.207C136.016 246.931 137.702 245.336 138.887 243.422C140.163 241.508 140.983 239.411 141.348 237.133C141.803 234.854 142.031 232.758 142.031 230.844Z" fill="black"/>
<path d="M212.031 490.609C205.286 490.609 197.858 490.29 189.746 489.652C181.634 489.014 173.249 487.966 164.59 486.508C155.931 485.049 147.135 483.135 138.203 480.766C129.362 478.487 120.84 475.616 112.637 472.152C104.434 468.689 96.7318 464.633 89.5312 459.984C82.4219 455.427 76.1784 450.141 70.8008 444.125C65.5143 438.201 61.3672 431.547 58.3594 424.164C55.2604 416.781 53.7109 408.578 53.7109 399.555C53.7109 388.982 55.4427 379.776 58.9062 371.938C62.2786 364.19 66.8359 357.536 72.5781 351.977C78.4114 346.417 85.1562 341.859 92.8125 338.305C100.56 334.75 108.717 331.97 117.285 329.965C125.944 327.96 134.74 326.547 143.672 325.727C152.695 324.997 161.354 324.633 169.648 324.633C182.409 324.633 195.124 325.271 207.793 326.547C220.553 327.823 233.268 329.646 245.937 332.016L243.477 396C229.167 393.539 214.766 391.397 200.273 389.574C185.872 387.842 171.38 386.977 156.797 386.977C155.247 386.977 152.923 387.022 149.824 387.113C146.816 387.296 143.398 387.569 139.57 387.934C135.833 388.298 131.96 388.799 127.949 389.438C124.03 390.167 120.43 391.124 117.148 392.309C113.867 393.493 111.178 394.906 109.082 396.547C106.986 398.279 105.937 400.284 105.937 402.562C105.937 405.206 107.168 407.576 109.629 409.672C112.181 411.768 115.553 413.591 119.746 415.141C123.939 416.781 128.77 418.194 134.238 419.379C139.707 420.564 145.404 421.566 151.328 422.387C157.253 423.207 163.177 423.845 169.102 424.301C175.026 424.848 180.54 425.258 185.645 425.531C190.749 425.896 195.26 426.124 199.18 426.215C203.099 426.306 206.016 426.352 207.93 426.352C215.039 426.352 222.103 426.215 229.121 425.941C236.23 425.759 243.294 425.44 250.312 424.984V488.969C237.734 490.062 224.974 490.609 212.031 490.609Z" fill="black"/>
<path d="M255.781 674.906L164.727 609.008L67.9297 664.516L56.7187 601.078L115.781 559.516L53.9844 557.328L51.7969 500.453L261.25 504.828L257.695 568.539L195.898 563.617L261.25 606L255.781 674.906Z" fill="black"/>
<path d="M156.523 828.031C148.229 828.031 140.208 827.074 132.461 825.16C124.805 823.246 117.604 820.466 110.859 816.82C104.115 813.266 97.9166 808.891 92.2656 803.695C86.7057 798.591 81.9205 792.803 77.9101 786.332C73.8997 779.952 70.7552 772.979 68.4765 765.414C66.289 757.849 65.1953 749.828 65.1953 741.352C65.1953 733.148 66.2435 725.31 68.3398 717.836C70.4362 710.453 73.3528 703.526 77.0898 697.055C80.9179 690.583 85.4752 684.704 90.7617 679.418C96.1393 674.223 102.064 669.757 108.535 666.02C115.098 662.374 122.116 659.503 129.59 657.406C137.064 655.401 144.857 654.398 152.969 654.398C160.898 654.398 168.646 655.355 176.211 657.27C183.867 659.184 191.068 661.918 197.812 665.473C204.557 669.118 210.755 673.493 216.406 678.598C222.057 683.702 226.934 689.398 231.035 695.688C235.137 702.068 238.327 708.949 240.605 716.332C242.884 723.715 244.023 731.508 244.023 739.711C244.023 752.927 241.973 764.958 237.871 775.805C233.77 786.742 227.891 796.039 220.234 803.695C212.669 811.443 203.464 817.413 192.617 821.605C181.862 825.889 169.831 828.031 156.523 828.031ZM152.969 767.328C156.888 767.328 160.671 766.736 164.316 765.551C168.053 764.457 171.335 762.816 174.16 760.629C177.077 758.441 179.401 755.707 181.133 752.426C182.956 749.236 183.867 745.544 183.867 741.352C183.867 737.068 183.092 733.24 181.543 729.867C179.993 726.495 177.852 723.578 175.117 721.117C172.474 718.747 169.329 716.924 165.684 715.648C162.129 714.372 158.346 713.734 154.336 713.734C150.508 713.734 146.68 714.281 142.852 715.375C139.023 716.469 135.56 718.109 132.461 720.297C129.362 722.484 126.855 725.173 124.941 728.363C123.027 731.645 122.07 735.427 122.07 739.711C122.07 743.995 122.891 747.823 124.531 751.195C126.263 754.659 128.542 757.576 131.367 759.945C134.284 762.315 137.611 764.138 141.348 765.414C145.085 766.69 148.958 767.328 152.969 767.328Z" fill="black"/>
</mask>
<g mask="url(#mask1_2041_2)">
<path d="M108.672 311.711C101.107 311.711 94.5899 310.298 89.1212 307.473C83.6524 304.738 79.0039 301.047 75.1758 296.398C71.3476 291.75 68.2032 286.372 65.7423 280.266C63.3725 274.25 61.5039 267.961 60.1367 261.398C58.7695 254.836 57.8582 248.228 57.4024 241.574C56.9467 235.012 56.7188 228.859 56.7188 223.117C56.7188 217.466 56.9467 211.587 57.4024 205.48C57.767 199.465 58.4505 193.449 59.4531 187.434C60.4557 181.418 61.7773 175.493 63.418 169.66C65.1497 163.827 67.2917 158.312 69.8437 153.117L245.938 152.844C248.034 157.948 249.902 163.371 251.543 169.113C253.275 174.855 254.688 180.689 255.781 186.613C256.966 192.629 257.832 198.599 258.379 204.523C259.017 210.448 259.336 216.19 259.336 221.75C259.336 228.221 258.926 234.738 258.105 241.301C257.285 247.954 255.918 254.335 254.004 260.441C252.09 266.548 249.583 272.245 246.484 277.531C243.477 282.818 239.74 287.421 235.273 291.34C230.807 295.35 225.612 298.449 219.687 300.637C213.763 302.915 206.927 304.055 199.18 304.055C194.076 304.055 189.29 303.326 184.824 301.867C180.358 300.409 176.348 298.313 172.793 295.578C169.238 292.844 166.185 289.517 163.633 285.598C161.172 281.678 159.349 277.258 158.164 272.336C156.615 278.26 154.336 283.638 151.328 288.469C148.32 293.391 144.674 297.538 140.391 300.91C136.107 304.374 131.276 307.017 125.898 308.84C120.521 310.754 114.779 311.711 108.672 311.711ZM186.602 242.258C189.245 242.258 191.478 241.711 193.301 240.617C195.215 239.523 196.764 238.156 197.949 236.516C199.134 234.966 200 233.234 200.547 231.32C201.094 229.497 201.367 227.857 201.367 226.398C201.367 224.576 201.094 222.798 200.547 221.066C200 219.335 199.362 217.648 198.633 216.008L168.281 215.188C168.281 217.284 168.464 219.882 168.828 222.98C169.193 226.079 169.967 229.042 171.152 231.867C172.428 234.784 174.251 237.245 176.621 239.25C179.082 241.255 182.409 242.258 186.602 242.258ZM142.031 222.844C142.031 220.201 141.758 217.648 141.211 215.188L110.039 214.641C109.766 216.008 109.492 217.329 109.219 218.605C109.036 219.973 108.945 221.294 108.945 222.57C108.945 224.484 109.128 226.581 109.492 228.859C109.948 231.138 110.768 233.28 111.953 235.285C113.229 237.29 114.915 238.931 117.012 240.207C119.108 241.574 121.888 242.258 125.352 242.258C128.815 242.258 131.641 241.574 133.828 240.207C136.016 238.931 137.702 237.336 138.887 235.422C140.163 233.508 140.983 231.411 141.348 229.133C141.803 226.854 142.031 224.758 142.031 222.844Z" stroke="#0287FF" stroke-width="84"/>
</g>
<mask id="mask2_2041_2" style="mask-type:luminance" maskUnits="userSpaceOnUse" x="0" y="-1" width="313" height="866">
<path d="M312.039 -0.289062H0.0390625V864.711H312.039V-0.289062Z" fill="white"/>
<path d="M41.1328 71.4297L95 72.7969C95.5469 69.8802 96.1849 66.918 96.9141 63.9102C97.7344 60.9023 98.5547 57.9401 99.375 55.0234C100.286 52.1979 101.198 49.4635 102.109 46.8203C103.021 44.1771 103.932 41.8073 104.844 39.7109L138.477 44.3594C135.56 50.1016 133.372 56.5273 131.914 63.6367C130.456 70.7461 129.727 77.8099 129.727 84.8281C129.727 86.1042 129.772 87.6536 129.863 89.4766C129.954 91.3906 130.182 93.2135 130.547 94.9453C131.003 96.6771 131.686 98.1354 132.598 99.3203C133.509 100.596 134.74 101.234 136.289 101.234C137.93 101.234 139.16 100.323 139.98 98.5C140.892 96.7682 141.53 94.6719 141.895 92.2109C142.35 89.8411 142.624 87.4258 142.715 84.9648C142.806 82.5039 142.852 80.6354 142.852 79.3594C142.852 73.4349 143.626 68.0573 145.176 63.2266C146.725 58.3958 148.913 54.2031 151.738 50.6484C154.655 47.1849 158.118 44.4961 162.129 42.582C166.139 40.668 170.651 39.7109 175.664 39.7109C180.312 39.7109 184.642 40.4857 188.652 42.0352C192.663 43.6758 196.309 45.9089 199.59 48.7344C202.871 51.651 205.742 55.069 208.203 58.9883C210.755 62.9987 212.852 67.3281 214.492 71.9766L272.188 69.7891L270.82 84.5547H217.773C218.047 85.8307 218.229 87.0612 218.32 88.2461C218.503 89.431 218.685 90.6615 218.867 91.9375L272.188 91.6641L271.914 106.43L218.867 104.516C218.685 110.531 218.092 116.592 217.09 122.699C216.178 128.806 214.674 134.411 212.578 139.516L177.852 135.961C179.128 131.13 180.221 126.163 181.133 121.059C182.044 115.954 182.5 111.078 182.5 106.43C182.5 104.971 182.454 103.012 182.363 100.551C182.272 98.181 181.999 95.8112 181.543 93.4414C181.087 91.1628 180.404 89.1576 179.492 87.4258C178.581 85.7852 177.305 85.0104 175.664 85.1016C174.297 85.1927 173.249 85.7852 172.52 86.8789C171.882 87.9727 171.38 89.3398 171.016 90.9805C170.742 92.7122 170.605 94.6263 170.605 96.7227C170.605 98.819 170.651 100.824 170.742 102.738C170.833 104.743 170.924 106.612 171.016 108.344C171.107 110.076 171.107 111.443 171.016 112.445C170.742 117.914 169.785 122.836 168.145 127.211C166.504 131.586 164.271 135.323 161.445 138.422C158.711 141.521 155.43 143.891 151.602 145.531C147.773 147.172 143.581 147.992 139.023 147.992C132.643 147.992 126.992 146.898 122.07 144.711C117.148 142.615 112.865 139.652 109.219 135.824C105.664 131.996 102.702 127.393 100.332 122.016C98.0534 116.729 96.3672 110.896 95.2734 104.516L41.4062 106.703L40.0391 93.3047L93.9062 92.7578C93.724 91.4818 93.6328 90.2057 93.6328 88.9297C93.6328 87.6536 93.6328 86.3776 93.6328 85.1016V84.5547L40.3125 84.8281L41.1328 71.4297Z" fill="black"/>
<path d="M108.672 319.711C101.107 319.711 94.5899 318.298 89.1212 315.473C83.6524 312.738 79.0039 309.047 75.1758 304.398C71.3476 299.75 68.2032 294.372 65.7423 288.266C63.3725 282.25 61.5039 275.961 60.1367 269.398C58.7695 262.836 57.8582 256.228 57.4024 249.574C56.9467 243.012 56.7188 236.859 56.7188 231.117C56.7188 225.466 56.9467 219.587 57.4024 213.48C57.767 207.465 58.4505 201.449 59.4531 195.434C60.4557 189.418 61.7773 183.493 63.418 177.66C65.1497 171.827 67.2917 166.312 69.8437 161.117L245.938 160.844C248.034 165.948 249.902 171.371 251.543 177.113C253.275 182.855 254.688 188.689 255.781 194.613C256.966 200.629 257.832 206.599 258.379 212.523C259.017 218.448 259.336 224.19 259.336 229.75C259.336 236.221 258.926 242.738 258.105 249.301C257.285 255.954 255.918 262.335 254.004 268.441C252.09 274.548 249.583 280.245 246.484 285.531C243.477 290.818 239.74 295.421 235.273 299.34C230.807 303.35 225.612 306.449 219.687 308.637C213.763 310.915 206.927 312.055 199.18 312.055C194.076 312.055 189.29 311.326 184.824 309.867C180.358 308.409 176.348 306.313 172.793 303.578C169.238 300.844 166.185 297.517 163.633 293.598C161.172 289.678 159.349 285.258 158.164 280.336C156.615 286.26 154.336 291.638 151.328 296.469C148.32 301.391 144.674 305.538 140.391 308.91C136.107 312.374 131.276 315.017 125.898 316.84C120.521 318.754 114.779 319.711 108.672 319.711ZM186.602 250.258C189.245 250.258 191.478 249.711 193.301 248.617C195.215 247.523 196.764 246.156 197.949 244.516C199.134 242.966 200 241.234 200.547 239.32C201.094 237.497 201.367 235.857 201.367 234.398C201.367 232.576 201.094 230.798 200.547 229.066C200 227.335 199.362 225.648 198.633 224.008L168.281 223.188C168.281 225.284 168.464 227.882 168.828 230.98C169.193 234.079 169.967 237.042 171.152 239.867C172.428 242.784 174.251 245.245 176.621 247.25C179.082 249.255 182.409 250.258 186.602 250.258ZM142.031 230.844C142.031 228.201 141.758 225.648 141.211 223.188L110.039 222.641C109.766 224.008 109.492 225.329 109.219 226.605C109.036 227.973 108.945 229.294 108.945 230.57C108.945 232.484 109.128 234.581 109.492 236.859C109.948 239.138 110.768 241.28 111.953 243.285C113.229 245.29 114.915 246.931 117.012 248.207C119.108 249.574 121.888 250.258 125.352 250.258C128.815 250.258 131.641 249.574 133.828 248.207C136.016 246.931 137.702 245.336 138.887 243.422C140.163 241.508 140.983 239.411 141.348 237.133C141.803 234.854 142.031 232.758 142.031 230.844Z" fill="black"/>
<path d="M212.031 490.609C205.286 490.609 197.858 490.29 189.746 489.652C181.634 489.014 173.249 487.966 164.59 486.508C155.931 485.049 147.135 483.135 138.203 480.766C129.362 478.487 120.84 475.616 112.637 472.152C104.434 468.689 96.7318 464.633 89.5312 459.984C82.4219 455.427 76.1784 450.141 70.8008 444.125C65.5143 438.201 61.3672 431.547 58.3594 424.164C55.2604 416.781 53.7109 408.578 53.7109 399.555C53.7109 388.982 55.4427 379.776 58.9062 371.938C62.2786 364.19 66.8359 357.536 72.5781 351.977C78.4114 346.417 85.1562 341.859 92.8125 338.305C100.56 334.75 108.717 331.97 117.285 329.965C125.944 327.96 134.74 326.547 143.672 325.727C152.695 324.997 161.354 324.633 169.648 324.633C182.409 324.633 195.124 325.271 207.793 326.547C220.553 327.823 233.268 329.646 245.937 332.016L243.477 396C229.167 393.539 214.766 391.397 200.273 389.574C185.872 387.842 171.38 386.977 156.797 386.977C155.247 386.977 152.923 387.022 149.824 387.113C146.816 387.296 143.398 387.569 139.57 387.934C135.833 388.298 131.96 388.799 127.949 389.438C124.03 390.167 120.43 391.124 117.148 392.309C113.867 393.493 111.178 394.906 109.082 396.547C106.986 398.279 105.937 400.284 105.937 402.562C105.937 405.206 107.168 407.576 109.629 409.672C112.181 411.768 115.553 413.591 119.746 415.141C123.939 416.781 128.77 418.194 134.238 419.379C139.707 420.564 145.404 421.566 151.328 422.387C157.253 423.207 163.177 423.845 169.102 424.301C175.026 424.848 180.54 425.258 185.645 425.531C190.749 425.896 195.26 426.124 199.18 426.215C203.099 426.306 206.016 426.352 207.93 426.352C215.039 426.352 222.103 426.215 229.121 425.941C236.23 425.759 243.294 425.44 250.312 424.984V488.969C237.734 490.062 224.974 490.609 212.031 490.609Z" fill="black"/>
<path d="M255.781 674.906L164.727 609.008L67.9297 664.516L56.7187 601.078L115.781 559.516L53.9844 557.328L51.7969 500.453L261.25 504.828L257.695 568.539L195.898 563.617L261.25 606L255.781 674.906Z" fill="black"/>
<path d="M156.523 828.031C148.229 828.031 140.208 827.074 132.461 825.16C124.805 823.246 117.604 820.466 110.859 816.82C104.115 813.266 97.9166 808.891 92.2656 803.695C86.7057 798.591 81.9205 792.803 77.9101 786.332C73.8997 779.952 70.7552 772.979 68.4765 765.414C66.289 757.849 65.1953 749.828 65.1953 741.352C65.1953 733.148 66.2435 725.31 68.3398 717.836C70.4362 710.453 73.3528 703.526 77.0898 697.055C80.9179 690.583 85.4752 684.704 90.7617 679.418C96.1393 674.223 102.064 669.757 108.535 666.02C115.098 662.374 122.116 659.503 129.59 657.406C137.064 655.401 144.857 654.398 152.969 654.398C160.898 654.398 168.646 655.355 176.211 657.27C183.867 659.184 191.068 661.918 197.812 665.473C204.557 669.118 210.755 673.493 216.406 678.598C222.057 683.702 226.934 689.398 231.035 695.688C235.137 702.068 238.327 708.949 240.605 716.332C242.884 723.715 244.023 731.508 244.023 739.711C244.023 752.927 241.973 764.958 237.871 775.805C233.77 786.742 227.891 796.039 220.234 803.695C212.669 811.443 203.464 817.413 192.617 821.605C181.862 825.889 169.831 828.031 156.523 828.031ZM152.969 767.328C156.888 767.328 160.671 766.736 164.316 765.551C168.053 764.457 171.335 762.816 174.16 760.629C177.077 758.441 179.401 755.707 181.133 752.426C182.956 749.236 183.867 745.544 183.867 741.352C183.867 737.068 183.092 733.24 181.543 729.867C179.993 726.495 177.852 723.578 175.117 721.117C172.474 718.747 169.329 716.924 165.684 715.648C162.129 714.372 158.346 713.734 154.336 713.734C150.508 713.734 146.68 714.281 142.852 715.375C139.023 716.469 135.56 718.109 132.461 720.297C129.362 722.484 126.855 725.173 124.941 728.363C123.027 731.645 122.07 735.427 122.07 739.711C122.07 743.995 122.891 747.823 124.531 751.195C126.263 754.659 128.542 757.576 131.367 759.945C134.284 762.315 137.611 764.138 141.348 765.414C145.085 766.69 148.958 767.328 152.969 767.328Z" fill="black"/>
</mask>
<g mask="url(#mask2_2041_2)">
<path d="M212.031 490.609C205.286 490.609 197.858 490.29 189.746 489.652C181.634 489.014 173.249 487.966 164.59 486.508C155.931 485.049 147.135 483.135 138.203 480.766C129.362 478.487 120.84 475.616 112.637 472.152C104.434 468.689 96.7318 464.633 89.5312 459.984C82.4219 455.427 76.1784 450.141 70.8008 444.125C65.5143 438.201 61.3672 431.547 58.3594 424.164C55.2604 416.781 53.7109 408.578 53.7109 399.555C53.7109 388.982 55.4427 379.776 58.9062 371.938C62.2786 364.19 66.8359 357.536 72.5781 351.977C78.4114 346.417 85.1562 341.859 92.8125 338.305C100.56 334.75 108.717 331.97 117.285 329.965C125.944 327.96 134.74 326.547 143.672 325.727C152.695 324.997 161.354 324.633 169.648 324.633C182.409 324.633 195.124 325.271 207.793 326.547C220.553 327.823 233.268 329.646 245.937 332.016L243.477 396C229.167 393.539 214.766 391.397 200.273 389.574C185.872 387.842 171.38 386.977 156.797 386.977C155.247 386.977 152.923 387.022 149.824 387.113C146.816 387.296 143.398 387.569 139.57 387.934C135.833 388.298 131.96 388.799 127.949 389.438C124.03 390.167 120.43 391.124 117.148 392.309C113.867 393.493 111.178 394.906 109.082 396.547C106.986 398.279 105.937 400.284 105.937 402.562C105.937 405.206 107.168 407.576 109.629 409.672C112.181 411.768 115.553 413.591 119.746 415.141C123.939 416.781 128.77 418.194 134.238 419.379C139.707 420.564 145.404 421.566 151.328 422.387C157.253 423.207 163.177 423.845 169.102 424.301C175.026 424.848 180.54 425.258 185.645 425.531C190.749 425.896 195.26 426.124 199.18 426.215C203.099 426.306 206.016 426.352 207.93 426.352C215.039 426.352 222.103 426.215 229.121 425.941C236.23 425.759 243.294 425.44 250.312 424.984V488.969C237.734 490.062 224.974 490.609 212.031 490.609Z" stroke="#0287FF" stroke-width="72"/>
</g>
<mask id="mask3_2041_2" style="mask-type:luminance" maskUnits="userSpaceOnUse" x="0" y="-1" width="313" height="866">
<path d="M312.039 -0.289062H0.0390625V864.711H312.039V-0.289062Z" fill="white"/>
<path d="M41.1328 71.4297L95 72.7969C95.5469 69.8802 96.1849 66.918 96.9141 63.9102C97.7344 60.9023 98.5547 57.9401 99.375 55.0234C100.286 52.1979 101.198 49.4635 102.109 46.8203C103.021 44.1771 103.932 41.8073 104.844 39.7109L138.477 44.3594C135.56 50.1016 133.372 56.5273 131.914 63.6367C130.456 70.7461 129.727 77.8099 129.727 84.8281C129.727 86.1042 129.772 87.6536 129.863 89.4766C129.954 91.3906 130.182 93.2135 130.547 94.9453C131.003 96.6771 131.686 98.1354 132.598 99.3203C133.509 100.596 134.74 101.234 136.289 101.234C137.93 101.234 139.16 100.323 139.98 98.5C140.892 96.7682 141.53 94.6719 141.895 92.2109C142.35 89.8411 142.624 87.4258 142.715 84.9648C142.806 82.5039 142.852 80.6354 142.852 79.3594C142.852 73.4349 143.626 68.0573 145.176 63.2266C146.725 58.3958 148.913 54.2031 151.738 50.6484C154.655 47.1849 158.118 44.4961 162.129 42.582C166.139 40.668 170.651 39.7109 175.664 39.7109C180.312 39.7109 184.642 40.4857 188.652 42.0352C192.663 43.6758 196.309 45.9089 199.59 48.7344C202.871 51.651 205.742 55.069 208.203 58.9883C210.755 62.9987 212.852 67.3281 214.492 71.9766L272.188 69.7891L270.82 84.5547H217.773C218.047 85.8307 218.229 87.0612 218.32 88.2461C218.503 89.431 218.685 90.6615 218.867 91.9375L272.188 91.6641L271.914 106.43L218.867 104.516C218.685 110.531 218.092 116.592 217.09 122.699C216.178 128.806 214.674 134.411 212.578 139.516L177.852 135.961C179.128 131.13 180.221 126.163 181.133 121.059C182.044 115.954 182.5 111.078 182.5 106.43C182.5 104.971 182.454 103.012 182.363 100.551C182.272 98.181 181.999 95.8112 181.543 93.4414C181.087 91.1628 180.404 89.1576 179.492 87.4258C178.581 85.7852 177.305 85.0104 175.664 85.1016C174.297 85.1927 173.249 85.7852 172.52 86.8789C171.882 87.9727 171.38 89.3398 171.016 90.9805C170.742 92.7122 170.605 94.6263 170.605 96.7227C170.605 98.819 170.651 100.824 170.742 102.738C170.833 104.743 170.924 106.612 171.016 108.344C171.107 110.076 171.107 111.443 171.016 112.445C170.742 117.914 169.785 122.836 168.145 127.211C166.504 131.586 164.271 135.323 161.445 138.422C158.711 141.521 155.43 143.891 151.602 145.531C147.773 147.172 143.581 147.992 139.023 147.992C132.643 147.992 126.992 146.898 122.07 144.711C117.148 142.615 112.865 139.652 109.219 135.824C105.664 131.996 102.702 127.393 100.332 122.016C98.0534 116.729 96.3672 110.896 95.2734 104.516L41.4062 106.703L40.0391 93.3047L93.9062 92.7578C93.724 91.4818 93.6328 90.2057 93.6328 88.9297C93.6328 87.6536 93.6328 86.3776 93.6328 85.1016V84.5547L40.3125 84.8281L41.1328 71.4297Z" fill="black"/>
<path d="M108.672 319.711C101.107 319.711 94.5899 318.298 89.1212 315.473C83.6524 312.738 79.0039 309.047 75.1758 304.398C71.3476 299.75 68.2032 294.372 65.7423 288.266C63.3725 282.25 61.5039 275.961 60.1367 269.398C58.7695 262.836 57.8582 256.228 57.4024 249.574C56.9467 243.012 56.7188 236.859 56.7188 231.117C56.7188 225.466 56.9467 219.587 57.4024 213.48C57.767 207.465 58.4505 201.449 59.4531 195.434C60.4557 189.418 61.7773 183.493 63.418 177.66C65.1497 171.827 67.2917 166.312 69.8437 161.117L245.938 160.844C248.034 165.948 249.902 171.371 251.543 177.113C253.275 182.855 254.688 188.689 255.781 194.613C256.966 200.629 257.832 206.599 258.379 212.523C259.017 218.448 259.336 224.19 259.336 229.75C259.336 236.221 258.926 242.738 258.105 249.301C257.285 255.954 255.918 262.335 254.004 268.441C252.09 274.548 249.583 280.245 246.484 285.531C243.477 290.818 239.74 295.421 235.273 299.34C230.807 303.35 225.612 306.449 219.687 308.637C213.763 310.915 206.927 312.055 199.18 312.055C194.076 312.055 189.29 311.326 184.824 309.867C180.358 308.409 176.348 306.313 172.793 303.578C169.238 300.844 166.185 297.517 163.633 293.598C161.172 289.678 159.349 285.258 158.164 280.336C156.615 286.26 154.336 291.638 151.328 296.469C148.32 301.391 144.674 305.538 140.391 308.91C136.107 312.374 131.276 315.017 125.898 316.84C120.521 318.754 114.779 319.711 108.672 319.711ZM186.602 250.258C189.245 250.258 191.478 249.711 193.301 248.617C195.215 247.523 196.764 246.156 197.949 244.516C199.134 242.966 200 241.234 200.547 239.32C201.094 237.497 201.367 235.857 201.367 234.398C201.367 232.576 201.094 230.798 200.547 229.066C200 227.335 199.362 225.648 198.633 224.008L168.281 223.188C168.281 225.284 168.464 227.882 168.828 230.98C169.193 234.079 169.967 237.042 171.152 239.867C172.428 242.784 174.251 245.245 176.621 247.25C179.082 249.255 182.409 250.258 186.602 250.258ZM142.031 230.844C142.031 228.201 141.758 225.648 141.211 223.188L110.039 222.641C109.766 224.008 109.492 225.329 109.219 226.605C109.036 227.973 108.945 229.294 108.945 230.57C108.945 232.484 109.128 234.581 109.492 236.859C109.948 239.138 110.768 241.28 111.953 243.285C113.229 245.29 114.915 246.931 117.012 248.207C119.108 249.574 121.888 250.258 125.352 250.258C128.815 250.258 131.641 249.574 133.828 248.207C136.016 246.931 137.702 245.336 138.887 243.422C140.163 241.508 140.983 239.411 141.348 237.133C141.803 234.854 142.031 232.758 142.031 230.844Z" fill="black"/>
<path d="M212.031 490.609C205.286 490.609 197.858 490.29 189.746 489.652C181.634 489.014 173.249 487.966 164.59 486.508C155.931 485.049 147.135 483.135 138.203 480.766C129.362 478.487 120.84 475.616 112.637 472.152C104.434 468.689 96.7318 464.633 89.5312 459.984C82.4219 455.427 76.1784 450.141 70.8008 444.125C65.5143 438.201 61.3672 431.547 58.3594 424.164C55.2604 416.781 53.7109 408.578 53.7109 399.555C53.7109 388.982 55.4427 379.776 58.9062 371.938C62.2786 364.19 66.8359 357.536 72.5781 351.977C78.4114 346.417 85.1562 341.859 92.8125 338.305C100.56 334.75 108.717 331.97 117.285 329.965C125.944 327.96 134.74 326.547 143.672 325.727C152.695 324.997 161.354 324.633 169.648 324.633C182.409 324.633 195.124 325.271 207.793 326.547C220.553 327.823 233.268 329.646 245.937 332.016L243.477 396C229.167 393.539 214.766 391.397 200.273 389.574C185.872 387.842 171.38 386.977 156.797 386.977C155.247 386.977 152.923 387.022 149.824 387.113C146.816 387.296 143.398 387.569 139.57 387.934C135.833 388.298 131.96 388.799 127.949 389.438C124.03 390.167 120.43 391.124 117.148 392.309C113.867 393.493 111.178 394.906 109.082 396.547C106.986 398.279 105.937 400.284 105.937 402.562C105.937 405.206 107.168 407.576 109.629 409.672C112.181 411.768 115.553 413.591 119.746 415.141C123.939 416.781 128.77 418.194 134.238 419.379C139.707 420.564 145.404 421.566 151.328 422.387C157.253 423.207 163.177 423.845 169.102 424.301C175.026 424.848 180.54 425.258 185.645 425.531C190.749 425.896 195.26 426.124 199.18 426.215C203.099 426.306 206.016 426.352 207.93 426.352C215.039 426.352 222.103 426.215 229.121 425.941C236.23 425.759 243.294 425.44 250.312 424.984V488.969C237.734 490.062 224.974 490.609 212.031 490.609Z" fill="black"/>
<path d="M255.781 674.906L164.727 609.008L67.9297 664.516L56.7187 601.078L115.781 559.516L53.9844 557.328L51.7969 500.453L261.25 504.828L257.695 568.539L195.898 563.617L261.25 606L255.781 674.906Z" fill="black"/>
<path d="M156.523 828.031C148.229 828.031 140.208 827.074 132.461 825.16C124.805 823.246 117.604 820.466 110.859 816.82C104.115 813.266 97.9166 808.891 92.2656 803.695C86.7057 798.591 81.9205 792.803 77.9101 786.332C73.8997 779.952 70.7552 772.979 68.4765 765.414C66.289 757.849 65.1953 749.828 65.1953 741.352C65.1953 733.148 66.2435 725.31 68.3398 717.836C70.4362 710.453 73.3528 703.526 77.0898 697.055C80.9179 690.583 85.4752 684.704 90.7617 679.418C96.1393 674.223 102.064 669.757 108.535 666.02C115.098 662.374 122.116 659.503 129.59 657.406C137.064 655.401 144.857 654.398 152.969 654.398C160.898 654.398 168.646 655.355 176.211 657.27C183.867 659.184 191.068 661.918 197.812 665.473C204.557 669.118 210.755 673.493 216.406 678.598C222.057 683.702 226.934 689.398 231.035 695.688C235.137 702.068 238.327 708.949 240.605 716.332C242.884 723.715 244.023 731.508 244.023 739.711C244.023 752.927 241.973 764.958 237.871 775.805C233.77 786.742 227.891 796.039 220.234 803.695C212.669 811.443 203.464 817.413 192.617 821.605C181.862 825.889 169.831 828.031 156.523 828.031ZM152.969 767.328C156.888 767.328 160.671 766.736 164.316 765.551C168.053 764.457 171.335 762.816 174.16 760.629C177.077 758.441 179.401 755.707 181.133 752.426C182.956 749.236 183.867 745.544 183.867 741.352C183.867 737.068 183.092 733.24 181.543 729.867C179.993 726.495 177.852 723.578 175.117 721.117C172.474 718.747 169.329 716.924 165.684 715.648C162.129 714.372 158.346 713.734 154.336 713.734C150.508 713.734 146.68 714.281 142.852 715.375C139.023 716.469 135.56 718.109 132.461 720.297C129.362 722.484 126.855 725.173 124.941 728.363C123.027 731.645 122.07 735.427 122.07 739.711C122.07 743.995 122.891 747.823 124.531 751.195C126.263 754.659 128.542 757.576 131.367 759.945C134.284 762.315 137.611 764.138 141.348 765.414C145.085 766.69 148.958 767.328 152.969 767.328Z" fill="black"/>
</mask>
<g mask="url(#mask3_2041_2)">
<path d="M255.781 674.906L164.727 609.008L67.9297 664.516L56.7187 601.078L115.781 559.516L53.9844 557.328L51.7969 500.453L261.25 504.828L257.695 568.539L195.898 563.617L261.25 606L255.781 674.906Z" stroke="#0287FF" stroke-width="72"/>
</g>
<mask id="mask4_2041_2" style="mask-type:luminance" maskUnits="userSpaceOnUse" x="0" y="-1" width="313" height="866">
<path d="M312.039 -0.289062H0.0390625V864.711H312.039V-0.289062Z" fill="white"/>
<path d="M41.1328 71.4297L95 72.7969C95.5469 69.8802 96.1849 66.918 96.9141 63.9102C97.7344 60.9023 98.5547 57.9401 99.375 55.0234C100.286 52.1979 101.198 49.4635 102.109 46.8203C103.021 44.1771 103.932 41.8073 104.844 39.7109L138.477 44.3594C135.56 50.1016 133.372 56.5273 131.914 63.6367C130.456 70.7461 129.727 77.8099 129.727 84.8281C129.727 86.1042 129.772 87.6536 129.863 89.4766C129.954 91.3906 130.182 93.2135 130.547 94.9453C131.003 96.6771 131.686 98.1354 132.598 99.3203C133.509 100.596 134.74 101.234 136.289 101.234C137.93 101.234 139.16 100.323 139.98 98.5C140.892 96.7682 141.53 94.6719 141.895 92.2109C142.35 89.8411 142.624 87.4258 142.715 84.9648C142.806 82.5039 142.852 80.6354 142.852 79.3594C142.852 73.4349 143.626 68.0573 145.176 63.2266C146.725 58.3958 148.913 54.2031 151.738 50.6484C154.655 47.1849 158.118 44.4961 162.129 42.582C166.139 40.668 170.651 39.7109 175.664 39.7109C180.312 39.7109 184.642 40.4857 188.652 42.0352C192.663 43.6758 196.309 45.9089 199.59 48.7344C202.871 51.651 205.742 55.069 208.203 58.9883C210.755 62.9987 212.852 67.3281 214.492 71.9766L272.188 69.7891L270.82 84.5547H217.773C218.047 85.8307 218.229 87.0612 218.32 88.2461C218.503 89.431 218.685 90.6615 218.867 91.9375L272.188 91.6641L271.914 106.43L218.867 104.516C218.685 110.531 218.092 116.592 217.09 122.699C216.178 128.806 214.674 134.411 212.578 139.516L177.852 135.961C179.128 131.13 180.221 126.163 181.133 121.059C182.044 115.954 182.5 111.078 182.5 106.43C182.5 104.971 182.454 103.012 182.363 100.551C182.272 98.181 181.999 95.8112 181.543 93.4414C181.087 91.1628 180.404 89.1576 179.492 87.4258C178.581 85.7852 177.305 85.0104 175.664 85.1016C174.297 85.1927 173.249 85.7852 172.52 86.8789C171.882 87.9727 171.38 89.3398 171.016 90.9805C170.742 92.7122 170.605 94.6263 170.605 96.7227C170.605 98.819 170.651 100.824 170.742 102.738C170.833 104.743 170.924 106.612 171.016 108.344C171.107 110.076 171.107 111.443 171.016 112.445C170.742 117.914 169.785 122.836 168.145 127.211C166.504 131.586 164.271 135.323 161.445 138.422C158.711 141.521 155.43 143.891 151.602 145.531C147.773 147.172 143.581 147.992 139.023 147.992C132.643 147.992 126.992 146.898 122.07 144.711C117.148 142.615 112.865 139.652 109.219 135.824C105.664 131.996 102.702 127.393 100.332 122.016C98.0534 116.729 96.3672 110.896 95.2734 104.516L41.4062 106.703L40.0391 93.3047L93.9062 92.7578C93.724 91.4818 93.6328 90.2057 93.6328 88.9297C93.6328 87.6536 93.6328 86.3776 93.6328 85.1016V84.5547L40.3125 84.8281L41.1328 71.4297Z" fill="black"/>
<path d="M108.672 319.711C101.107 319.711 94.5899 318.298 89.1212 315.473C83.6524 312.738 79.0039 309.047 75.1758 304.398C71.3476 299.75 68.2032 294.372 65.7423 288.266C63.3725 282.25 61.5039 275.961 60.1367 269.398C58.7695 262.836 57.8582 256.228 57.4024 249.574C56.9467 243.012 56.7188 236.859 56.7188 231.117C56.7188 225.466 56.9467 219.587 57.4024 213.48C57.767 207.465 58.4505 201.449 59.4531 195.434C60.4557 189.418 61.7773 183.493 63.418 177.66C65.1497 171.827 67.2917 166.312 69.8437 161.117L245.938 160.844C248.034 165.948 249.902 171.371 251.543 177.113C253.275 182.855 254.688 188.689 255.781 194.613C256.966 200.629 257.832 206.599 258.379 212.523C259.017 218.448 259.336 224.19 259.336 229.75C259.336 236.221 258.926 242.738 258.105 249.301C257.285 255.954 255.918 262.335 254.004 268.441C252.09 274.548 249.583 280.245 246.484 285.531C243.477 290.818 239.74 295.421 235.273 299.34C230.807 303.35 225.612 306.449 219.687 308.637C213.763 310.915 206.927 312.055 199.18 312.055C194.076 312.055 189.29 311.326 184.824 309.867C180.358 308.409 176.348 306.313 172.793 303.578C169.238 300.844 166.185 297.517 163.633 293.598C161.172 289.678 159.349 285.258 158.164 280.336C156.615 286.26 154.336 291.638 151.328 296.469C148.32 301.391 144.674 305.538 140.391 308.91C136.107 312.374 131.276 315.017 125.898 316.84C120.521 318.754 114.779 319.711 108.672 319.711ZM186.602 250.258C189.245 250.258 191.478 249.711 193.301 248.617C195.215 247.523 196.764 246.156 197.949 244.516C199.134 242.966 200 241.234 200.547 239.32C201.094 237.497 201.367 235.857 201.367 234.398C201.367 232.576 201.094 230.798 200.547 229.066C200 227.335 199.362 225.648 198.633 224.008L168.281 223.188C168.281 225.284 168.464 227.882 168.828 230.98C169.193 234.079 169.967 237.042 171.152 239.867C172.428 242.784 174.251 245.245 176.621 247.25C179.082 249.255 182.409 250.258 186.602 250.258ZM142.031 230.844C142.031 228.201 141.758 225.648 141.211 223.188L110.039 222.641C109.766 224.008 109.492 225.329 109.219 226.605C109.036 227.973 108.945 229.294 108.945 230.57C108.945 232.484 109.128 234.581 109.492 236.859C109.948 239.138 110.768 241.28 111.953 243.285C113.229 245.29 114.915 246.931 117.012 248.207C119.108 249.574 121.888 250.258 125.352 250.258C128.815 250.258 131.641 249.574 133.828 248.207C136.016 246.931 137.702 245.336 138.887 243.422C140.163 241.508 140.983 239.411 141.348 237.133C141.803 234.854 142.031 232.758 142.031 230.844Z" fill="black"/>
<path d="M212.031 490.609C205.286 490.609 197.858 490.29 189.746 489.652C181.634 489.014 173.249 487.966 164.59 486.508C155.931 485.049 147.135 483.135 138.203 480.766C129.362 478.487 120.84 475.616 112.637 472.152C104.434 468.689 96.7318 464.633 89.5312 459.984C82.4219 455.427 76.1784 450.141 70.8008 444.125C65.5143 438.201 61.3672 431.547 58.3594 424.164C55.2604 416.781 53.7109 408.578 53.7109 399.555C53.7109 388.982 55.4427 379.776 58.9062 371.938C62.2786 364.19 66.8359 357.536 72.5781 351.977C78.4114 346.417 85.1562 341.859 92.8125 338.305C100.56 334.75 108.717 331.97 117.285 329.965C125.944 327.96 134.74 326.547 143.672 325.727C152.695 324.997 161.354 324.633 169.648 324.633C182.409 324.633 195.124 325.271 207.793 326.547C220.553 327.823 233.268 329.646 245.937 332.016L243.477 396C229.167 393.539 214.766 391.397 200.273 389.574C185.872 387.842 171.38 386.977 156.797 386.977C155.247 386.977 152.923 387.022 149.824 387.113C146.816 387.296 143.398 387.569 139.57 387.934C135.833 388.298 131.96 388.799 127.949 389.438C124.03 390.167 120.43 391.124 117.148 392.309C113.867 393.493 111.178 394.906 109.082 396.547C106.986 398.279 105.937 400.284 105.937 402.562C105.937 405.206 107.168 407.576 109.629 409.672C112.181 411.768 115.553 413.591 119.746 415.141C123.939 416.781 128.77 418.194 134.238 419.379C139.707 420.564 145.404 421.566 151.328 422.387C157.253 423.207 163.177 423.845 169.102 424.301C175.026 424.848 180.54 425.258 185.645 425.531C190.749 425.896 195.26 426.124 199.18 426.215C203.099 426.306 206.016 426.352 207.93 426.352C215.039 426.352 222.103 426.215 229.121 425.941C236.23 425.759 243.294 425.44 250.312 424.984V488.969C237.734 490.062 224.974 490.609 212.031 490.609Z" fill="black"/>
<path d="M255.781 674.906L164.727 609.008L67.9297 664.516L56.7187 601.078L115.781 559.516L53.9844 557.328L51.7969 500.453L261.25 504.828L257.695 568.539L195.898 563.617L261.25 606L255.781 674.906Z" fill="black"/>
<path d="M156.523 828.031C148.229 828.031 140.208 827.074 132.461 825.16C124.805 823.246 117.604 820.466 110.859 816.82C104.115 813.266 97.9166 808.891 92.2656 803.695C86.7057 798.591 81.9205 792.803 77.9101 786.332C73.8997 779.952 70.7552 772.979 68.4765 765.414C66.289 757.849 65.1953 749.828 65.1953 741.352C65.1953 733.148 66.2435 725.31 68.3398 717.836C70.4362 710.453 73.3528 703.526 77.0898 697.055C80.9179 690.583 85.4752 684.704 90.7617 679.418C96.1393 674.223 102.064 669.757 108.535 666.02C115.098 662.374 122.116 659.503 129.59 657.406C137.064 655.401 144.857 654.398 152.969 654.398C160.898 654.398 168.646 655.355 176.211 657.27C183.867 659.184 191.068 661.918 197.812 665.473C204.557 669.118 210.755 673.493 216.406 678.598C222.057 683.702 226.934 689.398 231.035 695.688C235.137 702.068 238.327 708.949 240.605 716.332C242.884 723.715 244.023 731.508 244.023 739.711C244.023 752.927 241.973 764.958 237.871 775.805C233.77 786.742 227.891 796.039 220.234 803.695C212.669 811.443 203.464 817.413 192.617 821.605C181.862 825.889 169.831 828.031 156.523 828.031ZM152.969 767.328C156.888 767.328 160.671 766.736 164.316 765.551C168.053 764.457 171.335 762.816 174.16 760.629C177.077 758.441 179.401 755.707 181.133 752.426C182.956 749.236 183.867 745.544 183.867 741.352C183.867 737.068 183.092 733.24 181.543 729.867C179.993 726.495 177.852 723.578 175.117 721.117C172.474 718.747 169.329 716.924 165.684 715.648C162.129 714.372 158.346 713.734 154.336 713.734C150.508 713.734 146.68 714.281 142.852 715.375C139.023 716.469 135.56 718.109 132.461 720.297C129.362 722.484 126.855 725.173 124.941 728.363C123.027 731.645 122.07 735.427 122.07 739.711C122.07 743.995 122.891 747.823 124.531 751.195C126.263 754.659 128.542 757.576 131.367 759.945C134.284 762.315 137.611 764.138 141.348 765.414C145.085 766.69 148.958 767.328 152.969 767.328Z" fill="black"/>
</mask>
<g mask="url(#mask4_2041_2)">
<path d="M156.523 828.031C148.229 828.031 140.208 827.074 132.461 825.16C124.805 823.246 117.604 820.466 110.859 816.82C104.115 813.266 97.9166 808.891 92.2656 803.695C86.7057 798.591 81.9205 792.803 77.9101 786.332C73.8997 779.952 70.7552 772.979 68.4765 765.414C66.289 757.849 65.1953 749.828 65.1953 741.352C65.1953 733.148 66.2435 725.31 68.3398 717.836C70.4362 710.453 73.3528 703.526 77.0898 697.055C80.9179 690.583 85.4752 684.704 90.7617 679.418C96.1393 674.223 102.064 669.757 108.535 666.02C115.098 662.374 122.116 659.503 129.59 657.406C137.064 655.401 144.857 654.398 152.969 654.398C160.898 654.398 168.646 655.355 176.211 657.27C183.867 659.184 191.068 661.918 197.812 665.473C204.557 669.118 210.755 673.493 216.406 678.598C222.057 683.702 226.934 689.398 231.035 695.688C235.137 702.068 238.327 708.949 240.605 716.332C242.884 723.715 244.023 731.508 244.023 739.711C244.023 752.927 241.973 764.958 237.871 775.805C233.77 786.742 227.891 796.039 220.234 803.695C212.669 811.443 203.464 817.413 192.617 821.605C181.862 825.889 169.831 828.031 156.523 828.031ZM152.969 767.328C156.888 767.328 160.671 766.736 164.316 765.551C168.053 764.457 171.335 762.816 174.16 760.629C177.077 758.441 179.401 755.707 181.133 752.426C182.956 749.236 183.867 745.544 183.867 741.352C183.867 737.068 183.092 733.24 181.543 729.867C179.993 726.495 177.852 723.578 175.117 721.117C172.474 718.747 169.329 716.924 165.684 715.648C162.129 714.372 158.346 713.734 154.336 713.734C150.508 713.734 146.68 714.281 142.852 715.375C139.023 716.469 135.56 718.109 132.461 720.297C129.362 722.484 126.855 725.173 124.941 728.363C123.027 731.645 122.07 735.427 122.07 739.711C122.07 743.995 122.891 747.823 124.531 751.195C126.263 754.659 128.542 757.576 131.367 759.945C134.284 762.315 137.611 764.138 141.348 765.414C145.085 766.69 148.958 767.328 152.969 767.328Z" stroke="#0287FF" stroke-width="72"/>
</g>
</g>
<defs>
<clipPath id="clip0_2041_2">
<rect width="312" height="865" fill="white"/>
</clipPath>
</defs>
</svg>
