<svg width="312" height="865" viewBox="0 0 312 865" fill="none" xmlns="http://www.w3.org/2000/svg">
<mask id="path-1-outside-1_2024_5" maskUnits="userSpaceOnUse" x="0.0390625" y="-0.289062" width="312" height="865" fill="black">
<rect fill="white" x="0.0390625" y="-0.289062" width="312" height="865"/>
<path d="M41.1328 71.4297L95 72.7969C95.5469 69.8802 96.1849 66.918 96.9141 63.9102C97.7344 60.9023 98.5547 57.9401 99.375 55.0234C100.286 52.1979 101.198 49.4635 102.109 46.8203C103.021 44.1771 103.932 41.8073 104.844 39.7109L138.477 44.3594C135.56 50.1016 133.372 56.5273 131.914 63.6367C130.456 70.7461 129.727 77.8099 129.727 84.8281C129.727 86.1042 129.772 87.6536 129.863 89.4766C129.954 91.3906 130.182 93.2135 130.547 94.9453C131.003 96.6771 131.686 98.1354 132.598 99.3203C133.509 100.596 134.74 101.234 136.289 101.234C137.93 101.234 139.16 100.323 139.98 98.5C140.892 96.7682 141.53 94.6719 141.895 92.2109C142.35 89.8411 142.624 87.4258 142.715 84.9648C142.806 82.5039 142.852 80.6354 142.852 79.3594C142.852 73.4349 143.626 68.0573 145.176 63.2266C146.725 58.3958 148.913 54.2031 151.738 50.6484C154.655 47.1849 158.118 44.4961 162.129 42.582C166.139 40.668 170.651 39.7109 175.664 39.7109C180.312 39.7109 184.642 40.4857 188.652 42.0352C192.663 43.6758 196.309 45.9089 199.59 48.7344C202.871 51.651 205.742 55.069 208.203 58.9883C210.755 62.9987 212.852 67.3281 214.492 71.9766L272.188 69.7891L270.82 84.5547L217.773 84.5547C218.047 85.8307 218.229 87.0612 218.32 88.2461C218.503 89.431 218.685 90.6615 218.867 91.9375L272.188 91.6641L271.914 106.43L218.867 104.516C218.685 110.531 218.092 116.592 217.09 122.699C216.178 128.806 214.674 134.411 212.578 139.516L177.852 135.961C179.128 131.13 180.221 126.163 181.133 121.059C182.044 115.954 182.5 111.078 182.5 106.43C182.5 104.971 182.454 103.012 182.363 100.551C182.272 98.181 181.999 95.8112 181.543 93.4414C181.087 91.1628 180.404 89.1576 179.492 87.4258C178.581 85.7852 177.305 85.0104 175.664 85.1016C174.297 85.1927 173.249 85.7852 172.52 86.8789C171.882 87.9727 171.38 89.3398 171.016 90.9805C170.742 92.7122 170.605 94.6263 170.605 96.7227C170.605 98.819 170.651 100.824 170.742 102.738C170.833 104.743 170.924 106.612 171.016 108.344C171.107 110.076 171.107 111.443 171.016 112.445C170.742 117.914 169.785 122.836 168.145 127.211C166.504 131.586 164.271 135.323 161.445 138.422C158.711 141.521 155.43 143.891 151.602 145.531C147.773 147.172 143.581 147.992 139.023 147.992C132.643 147.992 126.992 146.898 122.07 144.711C117.148 142.615 112.865 139.652 109.219 135.824C105.664 131.996 102.702 127.393 100.332 122.016C98.0534 116.729 96.3672 110.896 95.2734 104.516L41.4062 106.703L40.0391 93.3047L93.9062 92.7578C93.724 91.4818 93.6328 90.2057 93.6328 88.9297C93.6328 87.6536 93.6328 86.3776 93.6328 85.1016V84.5547L40.3125 84.8281L41.1328 71.4297Z"/>
<path d="M108.672 319.711C101.107 319.711 94.5898 318.298 89.1211 315.473C83.6523 312.738 79.0039 309.047 75.1758 304.398C71.3476 299.75 68.2031 294.372 65.7422 288.266C63.3724 282.25 61.5039 275.961 60.1367 269.398C58.7695 262.836 57.8581 256.228 57.4023 249.574C56.9466 243.012 56.7187 236.859 56.7187 231.117C56.7187 225.466 56.9466 219.587 57.4023 213.48C57.7669 207.465 58.4505 201.449 59.4531 195.434C60.4557 189.418 61.7773 183.493 63.418 177.66C65.1497 171.827 67.2917 166.312 69.8437 161.117L245.938 160.844C248.034 165.948 249.902 171.371 251.543 177.113C253.275 182.855 254.688 188.689 255.781 194.613C256.966 200.629 257.832 206.599 258.379 212.523C259.017 218.448 259.336 224.19 259.336 229.75C259.336 236.221 258.926 242.738 258.105 249.301C257.285 255.954 255.918 262.335 254.004 268.441C252.09 274.548 249.583 280.245 246.484 285.531C243.477 290.818 239.74 295.421 235.273 299.34C230.807 303.35 225.612 306.449 219.687 308.637C213.763 310.915 206.927 312.055 199.18 312.055C194.076 312.055 189.29 311.326 184.824 309.867C180.358 308.409 176.348 306.313 172.793 303.578C169.238 300.844 166.185 297.517 163.633 293.598C161.172 289.678 159.349 285.258 158.164 280.336C156.615 286.26 154.336 291.638 151.328 296.469C148.32 301.391 144.674 305.538 140.391 308.91C136.107 312.374 131.276 315.017 125.898 316.84C120.521 318.754 114.779 319.711 108.672 319.711ZM186.602 250.258C189.245 250.258 191.478 249.711 193.301 248.617C195.215 247.523 196.764 246.156 197.949 244.516C199.134 242.966 200 241.234 200.547 239.32C201.094 237.497 201.367 235.857 201.367 234.398C201.367 232.576 201.094 230.798 200.547 229.066C200 227.335 199.362 225.648 198.633 224.008L168.281 223.188C168.281 225.284 168.464 227.882 168.828 230.98C169.193 234.079 169.967 237.042 171.152 239.867C172.428 242.784 174.251 245.245 176.621 247.25C179.082 249.255 182.409 250.258 186.602 250.258ZM142.031 230.844C142.031 228.201 141.758 225.648 141.211 223.188L110.039 222.641C109.766 224.008 109.492 225.329 109.219 226.605C109.036 227.973 108.945 229.294 108.945 230.57C108.945 232.484 109.128 234.581 109.492 236.859C109.948 239.138 110.768 241.28 111.953 243.285C113.229 245.29 114.915 246.931 117.012 248.207C119.108 249.574 121.888 250.258 125.352 250.258C128.815 250.258 131.641 249.574 133.828 248.207C136.016 246.931 137.702 245.336 138.887 243.422C140.163 241.508 140.983 239.411 141.348 237.133C141.803 234.854 142.031 232.758 142.031 230.844Z"/>
<path d="M212.031 490.609C205.286 490.609 197.858 490.29 189.746 489.652C181.634 489.014 173.249 487.966 164.59 486.508C155.931 485.049 147.135 483.135 138.203 480.766C129.362 478.487 120.84 475.616 112.637 472.152C104.434 468.689 96.7318 464.633 89.5312 459.984C82.4219 455.427 76.1784 450.141 70.8008 444.125C65.5143 438.201 61.3672 431.547 58.3594 424.164C55.2604 416.781 53.7109 408.578 53.7109 399.555C53.7109 388.982 55.4427 379.776 58.9062 371.938C62.2786 364.19 66.8359 357.536 72.5781 351.977C78.4114 346.417 85.1562 341.859 92.8125 338.305C100.56 334.75 108.717 331.97 117.285 329.965C125.944 327.96 134.74 326.547 143.672 325.727C152.695 324.997 161.354 324.633 169.648 324.633C182.409 324.633 195.124 325.271 207.793 326.547C220.553 327.823 233.268 329.646 245.937 332.016L243.477 396C229.167 393.539 214.766 391.397 200.273 389.574C185.872 387.842 171.38 386.977 156.797 386.977C155.247 386.977 152.923 387.022 149.824 387.113C146.816 387.296 143.398 387.569 139.57 387.934C135.833 388.298 131.96 388.799 127.949 389.438C124.03 390.167 120.43 391.124 117.148 392.309C113.867 393.493 111.178 394.906 109.082 396.547C106.986 398.279 105.937 400.284 105.937 402.562C105.937 405.206 107.168 407.576 109.629 409.672C112.181 411.768 115.553 413.591 119.746 415.141C123.939 416.781 128.77 418.194 134.238 419.379C139.707 420.564 145.404 421.566 151.328 422.387C157.253 423.207 163.177 423.845 169.102 424.301C175.026 424.848 180.54 425.258 185.645 425.531C190.749 425.896 195.26 426.124 199.18 426.215C203.099 426.306 206.016 426.352 207.93 426.352C215.039 426.352 222.103 426.215 229.121 425.941C236.23 425.759 243.294 425.44 250.312 424.984V488.969C237.734 490.062 224.974 490.609 212.031 490.609Z"/>
<path d="M255.781 674.906L164.727 609.008L67.9297 664.516L56.7187 601.078L115.781 559.516L53.9844 557.328L51.7969 500.453L261.25 504.828L257.695 568.539L195.898 563.617L261.25 606L255.781 674.906Z"/>
<path d="M156.523 828.031C148.229 828.031 140.208 827.074 132.461 825.16C124.805 823.246 117.604 820.466 110.859 816.82C104.115 813.266 97.9166 808.891 92.2656 803.695C86.7057 798.591 81.9205 792.803 77.9101 786.332C73.8997 779.952 70.7552 772.979 68.4765 765.414C66.289 757.849 65.1953 749.828 65.1953 741.352C65.1953 733.148 66.2435 725.31 68.3398 717.836C70.4362 710.453 73.3528 703.526 77.0898 697.055C80.9179 690.583 85.4752 684.704 90.7617 679.418C96.1393 674.223 102.064 669.757 108.535 666.02C115.098 662.374 122.116 659.503 129.59 657.406C137.064 655.401 144.857 654.398 152.969 654.398C160.898 654.398 168.646 655.355 176.211 657.27C183.867 659.184 191.068 661.918 197.812 665.473C204.557 669.118 210.755 673.493 216.406 678.598C222.057 683.702 226.934 689.398 231.035 695.688C235.137 702.068 238.327 708.949 240.605 716.332C242.884 723.715 244.023 731.508 244.023 739.711C244.023 752.927 241.973 764.958 237.871 775.805C233.77 786.742 227.891 796.039 220.234 803.695C212.669 811.443 203.464 817.413 192.617 821.605C181.862 825.889 169.831 828.031 156.523 828.031ZM152.969 767.328C156.888 767.328 160.671 766.736 164.316 765.551C168.053 764.457 171.335 762.816 174.16 760.629C177.077 758.441 179.401 755.707 181.133 752.426C182.956 749.236 183.867 745.544 183.867 741.352C183.867 737.068 183.092 733.24 181.543 729.867C179.993 726.495 177.852 723.578 175.117 721.117C172.474 718.747 169.329 716.924 165.684 715.648C162.129 714.372 158.346 713.734 154.336 713.734C150.508 713.734 146.68 714.281 142.852 715.375C139.023 716.469 135.56 718.109 132.461 720.297C129.362 722.484 126.855 725.173 124.941 728.363C123.027 731.645 122.07 735.427 122.07 739.711C122.07 743.995 122.891 747.823 124.531 751.195C126.263 754.659 128.542 757.576 131.367 759.945C134.284 762.315 137.611 764.138 141.348 765.414C145.085 766.69 148.958 767.328 152.969 767.328Z"/>
</mask>
<path d="M41.1328 71.4297L95 72.7969C95.5469 69.8802 96.1849 66.918 96.9141 63.9102C97.7344 60.9023 98.5547 57.9401 99.375 55.0234C100.286 52.1979 101.198 49.4635 102.109 46.8203C103.021 44.1771 103.932 41.8073 104.844 39.7109L138.477 44.3594C135.56 50.1016 133.372 56.5273 131.914 63.6367C130.456 70.7461 129.727 77.8099 129.727 84.8281C129.727 86.1042 129.772 87.6536 129.863 89.4766C129.954 91.3906 130.182 93.2135 130.547 94.9453C131.003 96.6771 131.686 98.1354 132.598 99.3203C133.509 100.596 134.74 101.234 136.289 101.234C137.93 101.234 139.16 100.323 139.98 98.5C140.892 96.7682 141.53 94.6719 141.895 92.2109C142.35 89.8411 142.624 87.4258 142.715 84.9648C142.806 82.5039 142.852 80.6354 142.852 79.3594C142.852 73.4349 143.626 68.0573 145.176 63.2266C146.725 58.3958 148.913 54.2031 151.738 50.6484C154.655 47.1849 158.118 44.4961 162.129 42.582C166.139 40.668 170.651 39.7109 175.664 39.7109C180.312 39.7109 184.642 40.4857 188.652 42.0352C192.663 43.6758 196.309 45.9089 199.59 48.7344C202.871 51.651 205.742 55.069 208.203 58.9883C210.755 62.9987 212.852 67.3281 214.492 71.9766L272.188 69.7891L270.82 84.5547L217.773 84.5547C218.047 85.8307 218.229 87.0612 218.32 88.2461C218.503 89.431 218.685 90.6615 218.867 91.9375L272.188 91.6641L271.914 106.43L218.867 104.516C218.685 110.531 218.092 116.592 217.09 122.699C216.178 128.806 214.674 134.411 212.578 139.516L177.852 135.961C179.128 131.13 180.221 126.163 181.133 121.059C182.044 115.954 182.5 111.078 182.5 106.43C182.5 104.971 182.454 103.012 182.363 100.551C182.272 98.181 181.999 95.8112 181.543 93.4414C181.087 91.1628 180.404 89.1576 179.492 87.4258C178.581 85.7852 177.305 85.0104 175.664 85.1016C174.297 85.1927 173.249 85.7852 172.52 86.8789C171.882 87.9727 171.38 89.3398 171.016 90.9805C170.742 92.7122 170.605 94.6263 170.605 96.7227C170.605 98.819 170.651 100.824 170.742 102.738C170.833 104.743 170.924 106.612 171.016 108.344C171.107 110.076 171.107 111.443 171.016 112.445C170.742 117.914 169.785 122.836 168.145 127.211C166.504 131.586 164.271 135.323 161.445 138.422C158.711 141.521 155.43 143.891 151.602 145.531C147.773 147.172 143.581 147.992 139.023 147.992C132.643 147.992 126.992 146.898 122.07 144.711C117.148 142.615 112.865 139.652 109.219 135.824C105.664 131.996 102.702 127.393 100.332 122.016C98.0534 116.729 96.3672 110.896 95.2734 104.516L41.4062 106.703L40.0391 93.3047L93.9062 92.7578C93.724 91.4818 93.6328 90.2057 93.6328 88.9297C93.6328 87.6536 93.6328 86.3776 93.6328 85.1016V84.5547L40.3125 84.8281L41.1328 71.4297Z" fill="#53FFC8"/>
<path d="M108.672 319.711C101.107 319.711 94.5898 318.298 89.1211 315.473C83.6523 312.738 79.0039 309.047 75.1758 304.398C71.3476 299.75 68.2031 294.372 65.7422 288.266C63.3724 282.25 61.5039 275.961 60.1367 269.398C58.7695 262.836 57.8581 256.228 57.4023 249.574C56.9466 243.012 56.7187 236.859 56.7187 231.117C56.7187 225.466 56.9466 219.587 57.4023 213.48C57.7669 207.465 58.4505 201.449 59.4531 195.434C60.4557 189.418 61.7773 183.493 63.418 177.66C65.1497 171.827 67.2917 166.312 69.8437 161.117L245.938 160.844C248.034 165.948 249.902 171.371 251.543 177.113C253.275 182.855 254.688 188.689 255.781 194.613C256.966 200.629 257.832 206.599 258.379 212.523C259.017 218.448 259.336 224.19 259.336 229.75C259.336 236.221 258.926 242.738 258.105 249.301C257.285 255.954 255.918 262.335 254.004 268.441C252.09 274.548 249.583 280.245 246.484 285.531C243.477 290.818 239.74 295.421 235.273 299.34C230.807 303.35 225.612 306.449 219.687 308.637C213.763 310.915 206.927 312.055 199.18 312.055C194.076 312.055 189.29 311.326 184.824 309.867C180.358 308.409 176.348 306.313 172.793 303.578C169.238 300.844 166.185 297.517 163.633 293.598C161.172 289.678 159.349 285.258 158.164 280.336C156.615 286.26 154.336 291.638 151.328 296.469C148.32 301.391 144.674 305.538 140.391 308.91C136.107 312.374 131.276 315.017 125.898 316.84C120.521 318.754 114.779 319.711 108.672 319.711ZM186.602 250.258C189.245 250.258 191.478 249.711 193.301 248.617C195.215 247.523 196.764 246.156 197.949 244.516C199.134 242.966 200 241.234 200.547 239.32C201.094 237.497 201.367 235.857 201.367 234.398C201.367 232.576 201.094 230.798 200.547 229.066C200 227.335 199.362 225.648 198.633 224.008L168.281 223.188C168.281 225.284 168.464 227.882 168.828 230.98C169.193 234.079 169.967 237.042 171.152 239.867C172.428 242.784 174.251 245.245 176.621 247.25C179.082 249.255 182.409 250.258 186.602 250.258ZM142.031 230.844C142.031 228.201 141.758 225.648 141.211 223.188L110.039 222.641C109.766 224.008 109.492 225.329 109.219 226.605C109.036 227.973 108.945 229.294 108.945 230.57C108.945 232.484 109.128 234.581 109.492 236.859C109.948 239.138 110.768 241.28 111.953 243.285C113.229 245.29 114.915 246.931 117.012 248.207C119.108 249.574 121.888 250.258 125.352 250.258C128.815 250.258 131.641 249.574 133.828 248.207C136.016 246.931 137.702 245.336 138.887 243.422C140.163 241.508 140.983 239.411 141.348 237.133C141.803 234.854 142.031 232.758 142.031 230.844Z" fill="#53FFC8"/>
<path d="M212.031 490.609C205.286 490.609 197.858 490.29 189.746 489.652C181.634 489.014 173.249 487.966 164.59 486.508C155.931 485.049 147.135 483.135 138.203 480.766C129.362 478.487 120.84 475.616 112.637 472.152C104.434 468.689 96.7318 464.633 89.5312 459.984C82.4219 455.427 76.1784 450.141 70.8008 444.125C65.5143 438.201 61.3672 431.547 58.3594 424.164C55.2604 416.781 53.7109 408.578 53.7109 399.555C53.7109 388.982 55.4427 379.776 58.9062 371.938C62.2786 364.19 66.8359 357.536 72.5781 351.977C78.4114 346.417 85.1562 341.859 92.8125 338.305C100.56 334.75 108.717 331.97 117.285 329.965C125.944 327.96 134.74 326.547 143.672 325.727C152.695 324.997 161.354 324.633 169.648 324.633C182.409 324.633 195.124 325.271 207.793 326.547C220.553 327.823 233.268 329.646 245.937 332.016L243.477 396C229.167 393.539 214.766 391.397 200.273 389.574C185.872 387.842 171.38 386.977 156.797 386.977C155.247 386.977 152.923 387.022 149.824 387.113C146.816 387.296 143.398 387.569 139.57 387.934C135.833 388.298 131.96 388.799 127.949 389.438C124.03 390.167 120.43 391.124 117.148 392.309C113.867 393.493 111.178 394.906 109.082 396.547C106.986 398.279 105.937 400.284 105.937 402.562C105.937 405.206 107.168 407.576 109.629 409.672C112.181 411.768 115.553 413.591 119.746 415.141C123.939 416.781 128.77 418.194 134.238 419.379C139.707 420.564 145.404 421.566 151.328 422.387C157.253 423.207 163.177 423.845 169.102 424.301C175.026 424.848 180.54 425.258 185.645 425.531C190.749 425.896 195.26 426.124 199.18 426.215C203.099 426.306 206.016 426.352 207.93 426.352C215.039 426.352 222.103 426.215 229.121 425.941C236.23 425.759 243.294 425.44 250.312 424.984V488.969C237.734 490.062 224.974 490.609 212.031 490.609Z" fill="#53FFC8"/>
<path d="M255.781 674.906L164.727 609.008L67.9297 664.516L56.7187 601.078L115.781 559.516L53.9844 557.328L51.7969 500.453L261.25 504.828L257.695 568.539L195.898 563.617L261.25 606L255.781 674.906Z" fill="#53FFC8"/>
<path d="M156.523 828.031C148.229 828.031 140.208 827.074 132.461 825.16C124.805 823.246 117.604 820.466 110.859 816.82C104.115 813.266 97.9166 808.891 92.2656 803.695C86.7057 798.591 81.9205 792.803 77.9101 786.332C73.8997 779.952 70.7552 772.979 68.4765 765.414C66.289 757.849 65.1953 749.828 65.1953 741.352C65.1953 733.148 66.2435 725.31 68.3398 717.836C70.4362 710.453 73.3528 703.526 77.0898 697.055C80.9179 690.583 85.4752 684.704 90.7617 679.418C96.1393 674.223 102.064 669.757 108.535 666.02C115.098 662.374 122.116 659.503 129.59 657.406C137.064 655.401 144.857 654.398 152.969 654.398C160.898 654.398 168.646 655.355 176.211 657.27C183.867 659.184 191.068 661.918 197.812 665.473C204.557 669.118 210.755 673.493 216.406 678.598C222.057 683.702 226.934 689.398 231.035 695.688C235.137 702.068 238.327 708.949 240.605 716.332C242.884 723.715 244.023 731.508 244.023 739.711C244.023 752.927 241.973 764.958 237.871 775.805C233.77 786.742 227.891 796.039 220.234 803.695C212.669 811.443 203.464 817.413 192.617 821.605C181.862 825.889 169.831 828.031 156.523 828.031ZM152.969 767.328C156.888 767.328 160.671 766.736 164.316 765.551C168.053 764.457 171.335 762.816 174.16 760.629C177.077 758.441 179.401 755.707 181.133 752.426C182.956 749.236 183.867 745.544 183.867 741.352C183.867 737.068 183.092 733.24 181.543 729.867C179.993 726.495 177.852 723.578 175.117 721.117C172.474 718.747 169.329 716.924 165.684 715.648C162.129 714.372 158.346 713.734 154.336 713.734C150.508 713.734 146.68 714.281 142.852 715.375C139.023 716.469 135.56 718.109 132.461 720.297C129.362 722.484 126.855 725.173 124.941 728.363C123.027 731.645 122.07 735.427 122.07 739.711C122.07 743.995 122.891 747.823 124.531 751.195C126.263 754.659 128.542 757.576 131.367 759.945C134.284 762.315 137.611 764.138 141.348 765.414C145.085 766.69 148.958 767.328 152.969 767.328Z" fill="#53FFC8"/>
<path d="M41.1328 71.4297L95 72.7969C95.5469 69.8802 96.1849 66.918 96.9141 63.9102C97.7344 60.9023 98.5547 57.9401 99.375 55.0234C100.286 52.1979 101.198 49.4635 102.109 46.8203C103.021 44.1771 103.932 41.8073 104.844 39.7109L138.477 44.3594C135.56 50.1016 133.372 56.5273 131.914 63.6367C130.456 70.7461 129.727 77.8099 129.727 84.8281C129.727 86.1042 129.772 87.6536 129.863 89.4766C129.954 91.3906 130.182 93.2135 130.547 94.9453C131.003 96.6771 131.686 98.1354 132.598 99.3203C133.509 100.596 134.74 101.234 136.289 101.234C137.93 101.234 139.16 100.323 139.98 98.5C140.892 96.7682 141.53 94.6719 141.895 92.2109C142.35 89.8411 142.624 87.4258 142.715 84.9648C142.806 82.5039 142.852 80.6354 142.852 79.3594C142.852 73.4349 143.626 68.0573 145.176 63.2266C146.725 58.3958 148.913 54.2031 151.738 50.6484C154.655 47.1849 158.118 44.4961 162.129 42.582C166.139 40.668 170.651 39.7109 175.664 39.7109C180.312 39.7109 184.642 40.4857 188.652 42.0352C192.663 43.6758 196.309 45.9089 199.59 48.7344C202.871 51.651 205.742 55.069 208.203 58.9883C210.755 62.9987 212.852 67.3281 214.492 71.9766L272.188 69.7891L270.82 84.5547L217.773 84.5547C218.047 85.8307 218.229 87.0612 218.32 88.2461C218.503 89.431 218.685 90.6615 218.867 91.9375L272.188 91.6641L271.914 106.43L218.867 104.516C218.685 110.531 218.092 116.592 217.09 122.699C216.178 128.806 214.674 134.411 212.578 139.516L177.852 135.961C179.128 131.13 180.221 126.163 181.133 121.059C182.044 115.954 182.5 111.078 182.5 106.43C182.5 104.971 182.454 103.012 182.363 100.551C182.272 98.181 181.999 95.8112 181.543 93.4414C181.087 91.1628 180.404 89.1576 179.492 87.4258C178.581 85.7852 177.305 85.0104 175.664 85.1016C174.297 85.1927 173.249 85.7852 172.52 86.8789C171.882 87.9727 171.38 89.3398 171.016 90.9805C170.742 92.7122 170.605 94.6263 170.605 96.7227C170.605 98.819 170.651 100.824 170.742 102.738C170.833 104.743 170.924 106.612 171.016 108.344C171.107 110.076 171.107 111.443 171.016 112.445C170.742 117.914 169.785 122.836 168.145 127.211C166.504 131.586 164.271 135.323 161.445 138.422C158.711 141.521 155.43 143.891 151.602 145.531C147.773 147.172 143.581 147.992 139.023 147.992C132.643 147.992 126.992 146.898 122.07 144.711C117.148 142.615 112.865 139.652 109.219 135.824C105.664 131.996 102.702 127.393 100.332 122.016C98.0534 116.729 96.3672 110.896 95.2734 104.516L41.4062 106.703L40.0391 93.3047L93.9062 92.7578C93.724 91.4818 93.6328 90.2057 93.6328 88.9297C93.6328 87.6536 93.6328 86.3776 93.6328 85.1016V84.5547L40.3125 84.8281L41.1328 71.4297Z" stroke="#0287FF" stroke-width="72" mask="url(#path-1-outside-1_2024_5)"/>
<path d="M108.672 319.711C101.107 319.711 94.5898 318.298 89.1211 315.473C83.6523 312.738 79.0039 309.047 75.1758 304.398C71.3476 299.75 68.2031 294.372 65.7422 288.266C63.3724 282.25 61.5039 275.961 60.1367 269.398C58.7695 262.836 57.8581 256.228 57.4023 249.574C56.9466 243.012 56.7187 236.859 56.7187 231.117C56.7187 225.466 56.9466 219.587 57.4023 213.48C57.7669 207.465 58.4505 201.449 59.4531 195.434C60.4557 189.418 61.7773 183.493 63.418 177.66C65.1497 171.827 67.2917 166.312 69.8437 161.117L245.938 160.844C248.034 165.948 249.902 171.371 251.543 177.113C253.275 182.855 254.688 188.689 255.781 194.613C256.966 200.629 257.832 206.599 258.379 212.523C259.017 218.448 259.336 224.19 259.336 229.75C259.336 236.221 258.926 242.738 258.105 249.301C257.285 255.954 255.918 262.335 254.004 268.441C252.09 274.548 249.583 280.245 246.484 285.531C243.477 290.818 239.74 295.421 235.273 299.34C230.807 303.35 225.612 306.449 219.687 308.637C213.763 310.915 206.927 312.055 199.18 312.055C194.076 312.055 189.29 311.326 184.824 309.867C180.358 308.409 176.348 306.313 172.793 303.578C169.238 300.844 166.185 297.517 163.633 293.598C161.172 289.678 159.349 285.258 158.164 280.336C156.615 286.26 154.336 291.638 151.328 296.469C148.32 301.391 144.674 305.538 140.391 308.91C136.107 312.374 131.276 315.017 125.898 316.84C120.521 318.754 114.779 319.711 108.672 319.711ZM186.602 250.258C189.245 250.258 191.478 249.711 193.301 248.617C195.215 247.523 196.764 246.156 197.949 244.516C199.134 242.966 200 241.234 200.547 239.32C201.094 237.497 201.367 235.857 201.367 234.398C201.367 232.576 201.094 230.798 200.547 229.066C200 227.335 199.362 225.648 198.633 224.008L168.281 223.188C168.281 225.284 168.464 227.882 168.828 230.98C169.193 234.079 169.967 237.042 171.152 239.867C172.428 242.784 174.251 245.245 176.621 247.25C179.082 249.255 182.409 250.258 186.602 250.258ZM142.031 230.844C142.031 228.201 141.758 225.648 141.211 223.188L110.039 222.641C109.766 224.008 109.492 225.329 109.219 226.605C109.036 227.973 108.945 229.294 108.945 230.57C108.945 232.484 109.128 234.581 109.492 236.859C109.948 239.138 110.768 241.28 111.953 243.285C113.229 245.29 114.915 246.931 117.012 248.207C119.108 249.574 121.888 250.258 125.352 250.258C128.815 250.258 131.641 249.574 133.828 248.207C136.016 246.931 137.702 245.336 138.887 243.422C140.163 241.508 140.983 239.411 141.348 237.133C141.803 234.854 142.031 232.758 142.031 230.844Z" stroke="#0287FF" stroke-width="72" mask="url(#path-1-outside-1_2024_5)"/>
<path d="M212.031 490.609C205.286 490.609 197.858 490.29 189.746 489.652C181.634 489.014 173.249 487.966 164.59 486.508C155.931 485.049 147.135 483.135 138.203 480.766C129.362 478.487 120.84 475.616 112.637 472.152C104.434 468.689 96.7318 464.633 89.5312 459.984C82.4219 455.427 76.1784 450.141 70.8008 444.125C65.5143 438.201 61.3672 431.547 58.3594 424.164C55.2604 416.781 53.7109 408.578 53.7109 399.555C53.7109 388.982 55.4427 379.776 58.9062 371.938C62.2786 364.19 66.8359 357.536 72.5781 351.977C78.4114 346.417 85.1562 341.859 92.8125 338.305C100.56 334.75 108.717 331.97 117.285 329.965C125.944 327.96 134.74 326.547 143.672 325.727C152.695 324.997 161.354 324.633 169.648 324.633C182.409 324.633 195.124 325.271 207.793 326.547C220.553 327.823 233.268 329.646 245.937 332.016L243.477 396C229.167 393.539 214.766 391.397 200.273 389.574C185.872 387.842 171.38 386.977 156.797 386.977C155.247 386.977 152.923 387.022 149.824 387.113C146.816 387.296 143.398 387.569 139.57 387.934C135.833 388.298 131.96 388.799 127.949 389.438C124.03 390.167 120.43 391.124 117.148 392.309C113.867 393.493 111.178 394.906 109.082 396.547C106.986 398.279 105.937 400.284 105.937 402.562C105.937 405.206 107.168 407.576 109.629 409.672C112.181 411.768 115.553 413.591 119.746 415.141C123.939 416.781 128.77 418.194 134.238 419.379C139.707 420.564 145.404 421.566 151.328 422.387C157.253 423.207 163.177 423.845 169.102 424.301C175.026 424.848 180.54 425.258 185.645 425.531C190.749 425.896 195.26 426.124 199.18 426.215C203.099 426.306 206.016 426.352 207.93 426.352C215.039 426.352 222.103 426.215 229.121 425.941C236.23 425.759 243.294 425.44 250.312 424.984V488.969C237.734 490.062 224.974 490.609 212.031 490.609Z" stroke="#0287FF" stroke-width="72" mask="url(#path-1-outside-1_2024_5)"/>
<path d="M255.781 674.906L164.727 609.008L67.9297 664.516L56.7187 601.078L115.781 559.516L53.9844 557.328L51.7969 500.453L261.25 504.828L257.695 568.539L195.898 563.617L261.25 606L255.781 674.906Z" stroke="#0287FF" stroke-width="72" mask="url(#path-1-outside-1_2024_5)"/>
<path d="M156.523 828.031C148.229 828.031 140.208 827.074 132.461 825.16C124.805 823.246 117.604 820.466 110.859 816.82C104.115 813.266 97.9166 808.891 92.2656 803.695C86.7057 798.591 81.9205 792.803 77.9101 786.332C73.8997 779.952 70.7552 772.979 68.4765 765.414C66.289 757.849 65.1953 749.828 65.1953 741.352C65.1953 733.148 66.2435 725.31 68.3398 717.836C70.4362 710.453 73.3528 703.526 77.0898 697.055C80.9179 690.583 85.4752 684.704 90.7617 679.418C96.1393 674.223 102.064 669.757 108.535 666.02C115.098 662.374 122.116 659.503 129.59 657.406C137.064 655.401 144.857 654.398 152.969 654.398C160.898 654.398 168.646 655.355 176.211 657.27C183.867 659.184 191.068 661.918 197.812 665.473C204.557 669.118 210.755 673.493 216.406 678.598C222.057 683.702 226.934 689.398 231.035 695.688C235.137 702.068 238.327 708.949 240.605 716.332C242.884 723.715 244.023 731.508 244.023 739.711C244.023 752.927 241.973 764.958 237.871 775.805C233.77 786.742 227.891 796.039 220.234 803.695C212.669 811.443 203.464 817.413 192.617 821.605C181.862 825.889 169.831 828.031 156.523 828.031ZM152.969 767.328C156.888 767.328 160.671 766.736 164.316 765.551C168.053 764.457 171.335 762.816 174.16 760.629C177.077 758.441 179.401 755.707 181.133 752.426C182.956 749.236 183.867 745.544 183.867 741.352C183.867 737.068 183.092 733.24 181.543 729.867C179.993 726.495 177.852 723.578 175.117 721.117C172.474 718.747 169.329 716.924 165.684 715.648C162.129 714.372 158.346 713.734 154.336 713.734C150.508 713.734 146.68 714.281 142.852 715.375C139.023 716.469 135.56 718.109 132.461 720.297C129.362 722.484 126.855 725.173 124.941 728.363C123.027 731.645 122.07 735.427 122.07 739.711C122.07 743.995 122.891 747.823 124.531 751.195C126.263 754.659 128.542 757.576 131.367 759.945C134.284 762.315 137.611 764.138 141.348 765.414C145.085 766.69 148.958 767.328 152.969 767.328Z" stroke="#0287FF" stroke-width="72" mask="url(#path-1-outside-1_2024_5)"/>
</svg>
