<svg width="840" height="297" viewBox="0 0 840 297" fill="none" xmlns="http://www.w3.org/2000/svg">
<mask id="path-1-outside-1_2019_21" maskUnits="userSpaceOnUse" x="24.897" y="23.2338" width="786" height="233" fill="black">
<rect fill="white" x="24.897" y="23.2338" width="786" height="233"/>
<path d="M114.324 229.768C109.612 236.96 97.708 238.448 90.02 234.728C86.796 233.24 83.82 230.264 83.076 226.792C81.836 222.824 82.332 218.112 83.324 213.896C77.868 213.152 72.66 212.16 67.452 211.168C60.26 209.68 52.324 206.704 48.108 200.752C38.684 187.856 45.876 169.008 61.748 168.76C65.22 168.76 81.836 172.48 85.06 173.224C88.78 173.72 95.476 174.712 97.212 171.488C97.956 170 97.46 168.016 96.468 166.528C94.732 163.552 92.004 161.072 89.028 159.088C79.604 152.144 68.692 147.184 60.26 139.248C56.044 135.28 52.076 130.816 49.844 125.608C47.612 120.648 46.868 114.944 47.86 109.488C49.348 102.544 53.316 95.848 58.276 90.888C65.22 84.192 74.644 79.976 84.068 77.744C83.572 73.776 83.076 69.56 83.076 65.592C83.076 62.368 83.572 58.896 85.556 56.168C87.54 53.44 91.508 52.2 94.98 51.704C99.444 51.208 103.66 50.96 108.124 51.704C111.596 52.2 115.068 54.68 116.556 57.656C117.548 60.88 117.3 64.352 117.052 67.576C117.052 68.568 116.308 74.024 116.308 75.016C121.02 75.512 125.732 76.008 130.196 77C136.892 78.488 144.084 82.952 147.06 89.152C154.252 105.024 145.324 125.36 128.212 121.888C121.764 120.4 115.068 119.408 108.372 119.904C105.644 120.152 99.94 121.144 98.7 123.376C97.708 125.856 100.684 128.832 102.42 130.568C110.604 137.76 121.516 141.232 130.444 146.936C137.388 151.4 143.34 158.096 146.068 165.784C150.036 176.448 148.3 188.104 141.356 197.528C135.404 205.464 125.484 210.672 115.812 212.904C116.556 218.608 117.3 225.056 114.324 229.768Z"/>
<path d="M256.618 232C248.186 234.48 239.258 235.224 230.578 234.976C228.594 234.976 215.946 233.984 213.962 233.984C208.754 233.736 203.546 234.232 198.338 233.984C190.898 233.488 182.962 232.496 176.762 228.28C173.538 225.8 168.826 217.864 168.578 213.896C167.338 173.968 165.602 133.792 159.154 94.36C157.914 87.416 156.674 80.472 157.418 73.776C157.914 69.312 159.65 64.848 162.378 61.376C167.09 55.92 174.282 52.944 180.978 50.712C189.41 48.232 197.842 46.496 206.522 45.256C214.706 43.768 222.89 42.528 231.074 42.28C245.706 41.784 261.578 45.256 273.73 53.688C283.154 60.384 290.346 72.04 291.586 83.448C292.33 88.656 291.338 93.864 290.098 99.072C287.618 108 282.162 116.184 275.962 123.128C286.626 128.336 296.546 136.768 302.25 147.184C308.45 158.84 310.186 173.72 307.458 186.616C305.722 195.048 301.506 203.232 295.554 209.432C285.386 220.344 271.002 227.784 256.618 232ZM216.194 112.464C218.178 114.448 221.402 114.448 223.882 114.2C233.554 113.704 242.482 106.016 244.962 96.344C246.698 89.648 243.97 80.472 237.522 77.744C234.298 76.504 230.578 77 227.106 77.744C221.898 78.984 217.682 83.2 214.954 87.912C212.97 91.384 211.978 95.352 211.73 99.568C211.482 100.064 212.226 102.048 212.474 102.792C213.218 106.016 213.714 110.232 216.194 112.464ZM217.682 177.44C220.41 188.104 232.81 191.576 243.474 188.848C256.122 185.624 260.834 166.776 251.162 157.6C246.45 153.136 238.762 150.656 232.562 152.392C226.858 153.88 221.402 158.096 218.178 163.304C216.442 166.032 216.938 174.464 217.682 177.44Z"/>
<path d="M416.287 230.016C407.359 232 397.935 232 388.759 232.248C373.135 232.496 356.519 230.76 342.631 223.816C333.951 219.352 326.263 211.664 322.047 202.984C316.591 192.072 315.351 179.672 315.103 167.52C314.607 149.168 315.351 130.568 315.599 112.216C315.847 99.568 315.103 87.168 316.343 74.52C317.087 68.072 318.079 60.632 322.543 55.92C327.255 50.96 334.943 48.976 341.887 48.728C348.335 48.48 355.279 48.48 361.479 50.712C365.447 51.952 369.167 54.68 371.399 58.152C373.631 62.12 374.375 66.832 374.375 71.296C375.119 95.352 371.895 119.656 372.639 143.712C372.887 149.912 373.879 165.288 378.591 169.008C380.575 170.744 383.303 171.488 385.783 171.984C390.495 172.976 396.199 170.992 399.671 167.768C406.367 161.32 405.871 137.264 405.623 127.84C405.375 116.68 402.151 71.792 406.119 61.376C407.359 57.904 409.839 54.68 413.063 52.696C419.015 48.976 426.951 48.728 433.895 49.472C440.343 49.968 447.287 51.456 452.247 55.672C455.719 58.4 457.703 63.112 458.447 67.328C460.431 77.992 459.935 88.904 459.935 99.816C459.935 118.912 459.439 138.256 457.951 157.6C456.711 172.48 454.479 187.608 448.527 201.248C444.807 210.176 439.103 218.608 431.167 223.816C426.703 226.792 421.495 229.024 416.287 230.016Z"/>
<path d="M603.202 235.72C593.034 237.208 580.882 235.968 572.946 229.52C567.738 225.304 564.762 218.36 563.274 211.912C561.29 202.24 561.29 192.32 559.802 182.648C558.562 174.712 556.082 165.784 549.634 161.072C546.41 158.84 542.442 158.096 538.474 158.096C539.218 165.288 539.714 172.48 540.21 179.672C540.706 187.608 541.946 215.384 538.474 222.576C531.778 236.216 509.706 238.448 495.074 234.232C487.882 232 480.69 226.048 478.706 218.608C475.978 208.936 473.994 158.096 473.002 147.928C471.762 132.056 470.77 115.936 471.018 99.816C471.018 89.4 471.514 78.984 473.746 68.816C474.986 63.608 477.218 58.4 480.938 54.68C484.41 51.208 489.618 49.224 494.578 47.736C500.778 46.248 507.722 45.504 514.17 46.248C520.618 46.992 527.314 48.976 532.274 53.192C535.498 55.92 537.73 60.136 538.722 64.104C540.458 70.304 540.458 76.504 540.458 82.704C540.706 95.848 539.466 108.992 539.218 122.136C545.666 120.896 552.858 118.664 556.826 113.456C561.042 108 562.282 100.808 563.026 94.112C564.514 81.712 563.522 68.32 569.226 56.912C570.714 53.936 573.442 51.456 576.418 49.968C580.634 47.736 585.594 46.992 590.306 46.744C596.754 46.496 603.202 47.24 609.65 48.728C613.866 49.72 618.33 52.2 621.058 55.424C624.53 59.64 626.266 65.344 627.258 70.552C628.498 78.984 628.002 87.912 626.266 96.344C623.29 110.48 615.85 124.864 604.442 133.296C609.154 137.512 613.122 142.968 616.098 148.424C622.298 159.832 625.274 172.976 625.77 185.624C626.514 197.776 626.514 210.92 621.554 222.08C617.834 229.52 611.634 234.48 603.202 235.72Z"/>
<path d="M718.679 235.224C707.519 235.224 696.111 234.976 685.199 232.496C673.047 229.768 660.895 223.072 652.463 213.648C645.271 205.96 640.807 195.792 638.327 185.872C634.359 169.504 634.855 152.392 636.095 135.776C637.831 112.96 641.799 88.408 654.695 69.56C662.135 58.4 676.023 50.464 689.415 48.976C699.583 47.736 709.999 46.496 720.167 46.744C734.551 46.744 749.679 50.216 762.079 57.656C770.759 62.864 778.199 70.8 782.663 79.728C788.615 92.128 790.103 106.512 790.847 120.152C792.335 144.704 791.591 170.744 782.663 193.808C777.455 207.2 767.287 219.352 754.887 226.544C744.223 232.992 731.079 234.976 718.679 235.224ZM710.247 184.136C716.447 185.376 722.895 185.376 728.847 183.144C733.807 181.408 737.527 176.944 740.007 172.232C743.975 165.288 745.463 156.856 746.455 148.92C747.199 142.224 747.447 135.28 747.199 128.584C746.951 123.624 746.455 118.416 744.967 113.456C743.479 108.744 740.751 105.52 736.535 103.04C731.327 99.816 724.879 99.072 718.679 99.072C714.215 98.824 709.751 99.072 705.783 100.808C702.559 102.048 699.831 104.528 697.847 107.256C693.631 112.712 691.399 119.904 689.911 126.848C688.175 135.776 687.679 145.2 688.671 154.128C689.415 161.568 690.655 169.504 694.871 175.208C698.591 179.92 704.543 182.896 710.247 184.136Z"/>
</mask>
<path d="M114.324 229.768C109.612 236.96 97.708 238.448 90.02 234.728C86.796 233.24 83.82 230.264 83.076 226.792C81.836 222.824 82.332 218.112 83.324 213.896C77.868 213.152 72.66 212.16 67.452 211.168C60.26 209.68 52.324 206.704 48.108 200.752C38.684 187.856 45.876 169.008 61.748 168.76C65.22 168.76 81.836 172.48 85.06 173.224C88.78 173.72 95.476 174.712 97.212 171.488C97.956 170 97.46 168.016 96.468 166.528C94.732 163.552 92.004 161.072 89.028 159.088C79.604 152.144 68.692 147.184 60.26 139.248C56.044 135.28 52.076 130.816 49.844 125.608C47.612 120.648 46.868 114.944 47.86 109.488C49.348 102.544 53.316 95.848 58.276 90.888C65.22 84.192 74.644 79.976 84.068 77.744C83.572 73.776 83.076 69.56 83.076 65.592C83.076 62.368 83.572 58.896 85.556 56.168C87.54 53.44 91.508 52.2 94.98 51.704C99.444 51.208 103.66 50.96 108.124 51.704C111.596 52.2 115.068 54.68 116.556 57.656C117.548 60.88 117.3 64.352 117.052 67.576C117.052 68.568 116.308 74.024 116.308 75.016C121.02 75.512 125.732 76.008 130.196 77C136.892 78.488 144.084 82.952 147.06 89.152C154.252 105.024 145.324 125.36 128.212 121.888C121.764 120.4 115.068 119.408 108.372 119.904C105.644 120.152 99.94 121.144 98.7 123.376C97.708 125.856 100.684 128.832 102.42 130.568C110.604 137.76 121.516 141.232 130.444 146.936C137.388 151.4 143.34 158.096 146.068 165.784C150.036 176.448 148.3 188.104 141.356 197.528C135.404 205.464 125.484 210.672 115.812 212.904C116.556 218.608 117.3 225.056 114.324 229.768Z" fill="white"/>
<path d="M256.618 232C248.186 234.48 239.258 235.224 230.578 234.976C228.594 234.976 215.946 233.984 213.962 233.984C208.754 233.736 203.546 234.232 198.338 233.984C190.898 233.488 182.962 232.496 176.762 228.28C173.538 225.8 168.826 217.864 168.578 213.896C167.338 173.968 165.602 133.792 159.154 94.36C157.914 87.416 156.674 80.472 157.418 73.776C157.914 69.312 159.65 64.848 162.378 61.376C167.09 55.92 174.282 52.944 180.978 50.712C189.41 48.232 197.842 46.496 206.522 45.256C214.706 43.768 222.89 42.528 231.074 42.28C245.706 41.784 261.578 45.256 273.73 53.688C283.154 60.384 290.346 72.04 291.586 83.448C292.33 88.656 291.338 93.864 290.098 99.072C287.618 108 282.162 116.184 275.962 123.128C286.626 128.336 296.546 136.768 302.25 147.184C308.45 158.84 310.186 173.72 307.458 186.616C305.722 195.048 301.506 203.232 295.554 209.432C285.386 220.344 271.002 227.784 256.618 232ZM216.194 112.464C218.178 114.448 221.402 114.448 223.882 114.2C233.554 113.704 242.482 106.016 244.962 96.344C246.698 89.648 243.97 80.472 237.522 77.744C234.298 76.504 230.578 77 227.106 77.744C221.898 78.984 217.682 83.2 214.954 87.912C212.97 91.384 211.978 95.352 211.73 99.568C211.482 100.064 212.226 102.048 212.474 102.792C213.218 106.016 213.714 110.232 216.194 112.464ZM217.682 177.44C220.41 188.104 232.81 191.576 243.474 188.848C256.122 185.624 260.834 166.776 251.162 157.6C246.45 153.136 238.762 150.656 232.562 152.392C226.858 153.88 221.402 158.096 218.178 163.304C216.442 166.032 216.938 174.464 217.682 177.44Z" fill="white"/>
<path d="M416.287 230.016C407.359 232 397.935 232 388.759 232.248C373.135 232.496 356.519 230.76 342.631 223.816C333.951 219.352 326.263 211.664 322.047 202.984C316.591 192.072 315.351 179.672 315.103 167.52C314.607 149.168 315.351 130.568 315.599 112.216C315.847 99.568 315.103 87.168 316.343 74.52C317.087 68.072 318.079 60.632 322.543 55.92C327.255 50.96 334.943 48.976 341.887 48.728C348.335 48.48 355.279 48.48 361.479 50.712C365.447 51.952 369.167 54.68 371.399 58.152C373.631 62.12 374.375 66.832 374.375 71.296C375.119 95.352 371.895 119.656 372.639 143.712C372.887 149.912 373.879 165.288 378.591 169.008C380.575 170.744 383.303 171.488 385.783 171.984C390.495 172.976 396.199 170.992 399.671 167.768C406.367 161.32 405.871 137.264 405.623 127.84C405.375 116.68 402.151 71.792 406.119 61.376C407.359 57.904 409.839 54.68 413.063 52.696C419.015 48.976 426.951 48.728 433.895 49.472C440.343 49.968 447.287 51.456 452.247 55.672C455.719 58.4 457.703 63.112 458.447 67.328C460.431 77.992 459.935 88.904 459.935 99.816C459.935 118.912 459.439 138.256 457.951 157.6C456.711 172.48 454.479 187.608 448.527 201.248C444.807 210.176 439.103 218.608 431.167 223.816C426.703 226.792 421.495 229.024 416.287 230.016Z" fill="white"/>
<path d="M603.202 235.72C593.034 237.208 580.882 235.968 572.946 229.52C567.738 225.304 564.762 218.36 563.274 211.912C561.29 202.24 561.29 192.32 559.802 182.648C558.562 174.712 556.082 165.784 549.634 161.072C546.41 158.84 542.442 158.096 538.474 158.096C539.218 165.288 539.714 172.48 540.21 179.672C540.706 187.608 541.946 215.384 538.474 222.576C531.778 236.216 509.706 238.448 495.074 234.232C487.882 232 480.69 226.048 478.706 218.608C475.978 208.936 473.994 158.096 473.002 147.928C471.762 132.056 470.77 115.936 471.018 99.816C471.018 89.4 471.514 78.984 473.746 68.816C474.986 63.608 477.218 58.4 480.938 54.68C484.41 51.208 489.618 49.224 494.578 47.736C500.778 46.248 507.722 45.504 514.17 46.248C520.618 46.992 527.314 48.976 532.274 53.192C535.498 55.92 537.73 60.136 538.722 64.104C540.458 70.304 540.458 76.504 540.458 82.704C540.706 95.848 539.466 108.992 539.218 122.136C545.666 120.896 552.858 118.664 556.826 113.456C561.042 108 562.282 100.808 563.026 94.112C564.514 81.712 563.522 68.32 569.226 56.912C570.714 53.936 573.442 51.456 576.418 49.968C580.634 47.736 585.594 46.992 590.306 46.744C596.754 46.496 603.202 47.24 609.65 48.728C613.866 49.72 618.33 52.2 621.058 55.424C624.53 59.64 626.266 65.344 627.258 70.552C628.498 78.984 628.002 87.912 626.266 96.344C623.29 110.48 615.85 124.864 604.442 133.296C609.154 137.512 613.122 142.968 616.098 148.424C622.298 159.832 625.274 172.976 625.77 185.624C626.514 197.776 626.514 210.92 621.554 222.08C617.834 229.52 611.634 234.48 603.202 235.72Z" fill="white"/>
<path d="M718.679 235.224C707.519 235.224 696.111 234.976 685.199 232.496C673.047 229.768 660.895 223.072 652.463 213.648C645.271 205.96 640.807 195.792 638.327 185.872C634.359 169.504 634.855 152.392 636.095 135.776C637.831 112.96 641.799 88.408 654.695 69.56C662.135 58.4 676.023 50.464 689.415 48.976C699.583 47.736 709.999 46.496 720.167 46.744C734.551 46.744 749.679 50.216 762.079 57.656C770.759 62.864 778.199 70.8 782.663 79.728C788.615 92.128 790.103 106.512 790.847 120.152C792.335 144.704 791.591 170.744 782.663 193.808C777.455 207.2 767.287 219.352 754.887 226.544C744.223 232.992 731.079 234.976 718.679 235.224ZM710.247 184.136C716.447 185.376 722.895 185.376 728.847 183.144C733.807 181.408 737.527 176.944 740.007 172.232C743.975 165.288 745.463 156.856 746.455 148.92C747.199 142.224 747.447 135.28 747.199 128.584C746.951 123.624 746.455 118.416 744.967 113.456C743.479 108.744 740.751 105.52 736.535 103.04C731.327 99.816 724.879 99.072 718.679 99.072C714.215 98.824 709.751 99.072 705.783 100.808C702.559 102.048 699.831 104.528 697.847 107.256C693.631 112.712 691.399 119.904 689.911 126.848C688.175 135.776 687.679 145.2 688.671 154.128C689.415 161.568 690.655 169.504 694.871 175.208C698.591 179.92 704.543 182.896 710.247 184.136Z" fill="white"/>
<path d="M114.324 229.768C109.612 236.96 97.708 238.448 90.02 234.728C86.796 233.24 83.82 230.264 83.076 226.792C81.836 222.824 82.332 218.112 83.324 213.896C77.868 213.152 72.66 212.16 67.452 211.168C60.26 209.68 52.324 206.704 48.108 200.752C38.684 187.856 45.876 169.008 61.748 168.76C65.22 168.76 81.836 172.48 85.06 173.224C88.78 173.72 95.476 174.712 97.212 171.488C97.956 170 97.46 168.016 96.468 166.528C94.732 163.552 92.004 161.072 89.028 159.088C79.604 152.144 68.692 147.184 60.26 139.248C56.044 135.28 52.076 130.816 49.844 125.608C47.612 120.648 46.868 114.944 47.86 109.488C49.348 102.544 53.316 95.848 58.276 90.888C65.22 84.192 74.644 79.976 84.068 77.744C83.572 73.776 83.076 69.56 83.076 65.592C83.076 62.368 83.572 58.896 85.556 56.168C87.54 53.44 91.508 52.2 94.98 51.704C99.444 51.208 103.66 50.96 108.124 51.704C111.596 52.2 115.068 54.68 116.556 57.656C117.548 60.88 117.3 64.352 117.052 67.576C117.052 68.568 116.308 74.024 116.308 75.016C121.02 75.512 125.732 76.008 130.196 77C136.892 78.488 144.084 82.952 147.06 89.152C154.252 105.024 145.324 125.36 128.212 121.888C121.764 120.4 115.068 119.408 108.372 119.904C105.644 120.152 99.94 121.144 98.7 123.376C97.708 125.856 100.684 128.832 102.42 130.568C110.604 137.76 121.516 141.232 130.444 146.936C137.388 151.4 143.34 158.096 146.068 165.784C150.036 176.448 148.3 188.104 141.356 197.528C135.404 205.464 125.484 210.672 115.812 212.904C116.556 218.608 117.3 225.056 114.324 229.768Z" stroke="black" stroke-width="38" mask="url(#path-1-outside-1_2019_21)"/>
<path d="M256.618 232C248.186 234.48 239.258 235.224 230.578 234.976C228.594 234.976 215.946 233.984 213.962 233.984C208.754 233.736 203.546 234.232 198.338 233.984C190.898 233.488 182.962 232.496 176.762 228.28C173.538 225.8 168.826 217.864 168.578 213.896C167.338 173.968 165.602 133.792 159.154 94.36C157.914 87.416 156.674 80.472 157.418 73.776C157.914 69.312 159.65 64.848 162.378 61.376C167.09 55.92 174.282 52.944 180.978 50.712C189.41 48.232 197.842 46.496 206.522 45.256C214.706 43.768 222.89 42.528 231.074 42.28C245.706 41.784 261.578 45.256 273.73 53.688C283.154 60.384 290.346 72.04 291.586 83.448C292.33 88.656 291.338 93.864 290.098 99.072C287.618 108 282.162 116.184 275.962 123.128C286.626 128.336 296.546 136.768 302.25 147.184C308.45 158.84 310.186 173.72 307.458 186.616C305.722 195.048 301.506 203.232 295.554 209.432C285.386 220.344 271.002 227.784 256.618 232ZM216.194 112.464C218.178 114.448 221.402 114.448 223.882 114.2C233.554 113.704 242.482 106.016 244.962 96.344C246.698 89.648 243.97 80.472 237.522 77.744C234.298 76.504 230.578 77 227.106 77.744C221.898 78.984 217.682 83.2 214.954 87.912C212.97 91.384 211.978 95.352 211.73 99.568C211.482 100.064 212.226 102.048 212.474 102.792C213.218 106.016 213.714 110.232 216.194 112.464ZM217.682 177.44C220.41 188.104 232.81 191.576 243.474 188.848C256.122 185.624 260.834 166.776 251.162 157.6C246.45 153.136 238.762 150.656 232.562 152.392C226.858 153.88 221.402 158.096 218.178 163.304C216.442 166.032 216.938 174.464 217.682 177.44Z" stroke="black" stroke-width="38" mask="url(#path-1-outside-1_2019_21)"/>
<path d="M416.287 230.016C407.359 232 397.935 232 388.759 232.248C373.135 232.496 356.519 230.76 342.631 223.816C333.951 219.352 326.263 211.664 322.047 202.984C316.591 192.072 315.351 179.672 315.103 167.52C314.607 149.168 315.351 130.568 315.599 112.216C315.847 99.568 315.103 87.168 316.343 74.52C317.087 68.072 318.079 60.632 322.543 55.92C327.255 50.96 334.943 48.976 341.887 48.728C348.335 48.48 355.279 48.48 361.479 50.712C365.447 51.952 369.167 54.68 371.399 58.152C373.631 62.12 374.375 66.832 374.375 71.296C375.119 95.352 371.895 119.656 372.639 143.712C372.887 149.912 373.879 165.288 378.591 169.008C380.575 170.744 383.303 171.488 385.783 171.984C390.495 172.976 396.199 170.992 399.671 167.768C406.367 161.32 405.871 137.264 405.623 127.84C405.375 116.68 402.151 71.792 406.119 61.376C407.359 57.904 409.839 54.68 413.063 52.696C419.015 48.976 426.951 48.728 433.895 49.472C440.343 49.968 447.287 51.456 452.247 55.672C455.719 58.4 457.703 63.112 458.447 67.328C460.431 77.992 459.935 88.904 459.935 99.816C459.935 118.912 459.439 138.256 457.951 157.6C456.711 172.48 454.479 187.608 448.527 201.248C444.807 210.176 439.103 218.608 431.167 223.816C426.703 226.792 421.495 229.024 416.287 230.016Z" stroke="black" stroke-width="38" mask="url(#path-1-outside-1_2019_21)"/>
<path d="M603.202 235.72C593.034 237.208 580.882 235.968 572.946 229.52C567.738 225.304 564.762 218.36 563.274 211.912C561.29 202.24 561.29 192.32 559.802 182.648C558.562 174.712 556.082 165.784 549.634 161.072C546.41 158.84 542.442 158.096 538.474 158.096C539.218 165.288 539.714 172.48 540.21 179.672C540.706 187.608 541.946 215.384 538.474 222.576C531.778 236.216 509.706 238.448 495.074 234.232C487.882 232 480.69 226.048 478.706 218.608C475.978 208.936 473.994 158.096 473.002 147.928C471.762 132.056 470.77 115.936 471.018 99.816C471.018 89.4 471.514 78.984 473.746 68.816C474.986 63.608 477.218 58.4 480.938 54.68C484.41 51.208 489.618 49.224 494.578 47.736C500.778 46.248 507.722 45.504 514.17 46.248C520.618 46.992 527.314 48.976 532.274 53.192C535.498 55.92 537.73 60.136 538.722 64.104C540.458 70.304 540.458 76.504 540.458 82.704C540.706 95.848 539.466 108.992 539.218 122.136C545.666 120.896 552.858 118.664 556.826 113.456C561.042 108 562.282 100.808 563.026 94.112C564.514 81.712 563.522 68.32 569.226 56.912C570.714 53.936 573.442 51.456 576.418 49.968C580.634 47.736 585.594 46.992 590.306 46.744C596.754 46.496 603.202 47.24 609.65 48.728C613.866 49.72 618.33 52.2 621.058 55.424C624.53 59.64 626.266 65.344 627.258 70.552C628.498 78.984 628.002 87.912 626.266 96.344C623.29 110.48 615.85 124.864 604.442 133.296C609.154 137.512 613.122 142.968 616.098 148.424C622.298 159.832 625.274 172.976 625.77 185.624C626.514 197.776 626.514 210.92 621.554 222.08C617.834 229.52 611.634 234.48 603.202 235.72Z" stroke="black" stroke-width="38" mask="url(#path-1-outside-1_2019_21)"/>
<path d="M718.679 235.224C707.519 235.224 696.111 234.976 685.199 232.496C673.047 229.768 660.895 223.072 652.463 213.648C645.271 205.96 640.807 195.792 638.327 185.872C634.359 169.504 634.855 152.392 636.095 135.776C637.831 112.96 641.799 88.408 654.695 69.56C662.135 58.4 676.023 50.464 689.415 48.976C699.583 47.736 709.999 46.496 720.167 46.744C734.551 46.744 749.679 50.216 762.079 57.656C770.759 62.864 778.199 70.8 782.663 79.728C788.615 92.128 790.103 106.512 790.847 120.152C792.335 144.704 791.591 170.744 782.663 193.808C777.455 207.2 767.287 219.352 754.887 226.544C744.223 232.992 731.079 234.976 718.679 235.224ZM710.247 184.136C716.447 185.376 722.895 185.376 728.847 183.144C733.807 181.408 737.527 176.944 740.007 172.232C743.975 165.288 745.463 156.856 746.455 148.92C747.199 142.224 747.447 135.28 747.199 128.584C746.951 123.624 746.455 118.416 744.967 113.456C743.479 108.744 740.751 105.52 736.535 103.04C731.327 99.816 724.879 99.072 718.679 99.072C714.215 98.824 709.751 99.072 705.783 100.808C702.559 102.048 699.831 104.528 697.847 107.256C693.631 112.712 691.399 119.904 689.911 126.848C688.175 135.776 687.679 145.2 688.671 154.128C689.415 161.568 690.655 169.504 694.871 175.208C698.591 179.92 704.543 182.896 710.247 184.136Z" stroke="black" stroke-width="38" mask="url(#path-1-outside-1_2019_21)"/>
</svg>
