<svg width="840" height="297" viewBox="0 0 840 297" fill="none" xmlns="http://www.w3.org/2000/svg">
<mask id="path-1-outside-1_2041_58" maskUnits="userSpaceOnUse" x="24.8965" y="23.2334" width="786" height="233" fill="black">
<rect fill="white" x="24.8965" y="23.2334" width="786" height="233"/>
<path d="M114.324 229.768C109.612 236.96 97.7075 238.448 90.0195 234.728C86.7955 233.24 83.8195 230.264 83.0755 226.792C81.8355 222.824 82.3315 218.112 83.3235 213.896C77.8675 213.152 72.6595 212.16 67.4515 211.168C60.2595 209.68 52.3235 206.704 48.1075 200.752C38.6835 187.856 45.8755 169.008 61.7475 168.76C65.2195 168.76 81.8355 172.48 85.0595 173.224C88.7795 173.72 95.4755 174.712 97.2115 171.488C97.9555 170 97.4595 168.016 96.4675 166.528C94.7315 163.552 92.0035 161.072 89.0275 159.088C79.6035 152.144 68.6915 147.184 60.2595 139.248C56.0435 135.28 52.0755 130.816 49.8435 125.608C47.6115 120.648 46.8675 114.944 47.8595 109.488C49.3475 102.544 53.3155 95.8477 58.2755 90.8877C65.2195 84.1917 74.6435 79.9757 84.0675 77.7437C83.5715 73.7757 83.0755 69.5597 83.0755 65.5917C83.0755 62.3677 83.5715 58.8957 85.5555 56.1677C87.5395 53.4397 91.5075 52.1997 94.9795 51.7037C99.4435 51.2077 103.66 50.9597 108.124 51.7037C111.596 52.1997 115.068 54.6797 116.556 57.6557C117.548 60.8797 117.3 64.3517 117.052 67.5757C117.052 68.5677 116.308 74.0237 116.308 75.0157C121.02 75.5117 125.732 76.0077 130.196 76.9997C136.892 78.4877 144.084 82.9517 147.06 89.1517C154.252 105.024 145.324 125.36 128.212 121.888C121.764 120.4 115.068 119.408 108.372 119.904C105.644 120.152 99.9395 121.144 98.6995 123.376C97.7075 125.856 100.684 128.832 102.42 130.568C110.604 137.76 121.516 141.232 130.444 146.936C137.388 151.4 143.34 158.096 146.068 165.784C150.036 176.448 148.3 188.104 141.356 197.528C135.404 205.464 125.484 210.672 115.812 212.904C116.556 218.608 117.3 225.056 114.324 229.768Z"/>
<path d="M256.618 232C248.186 234.48 239.258 235.224 230.578 234.976C228.594 234.976 215.946 233.984 213.962 233.984C208.754 233.736 203.546 234.232 198.338 233.984C190.898 233.488 182.962 232.496 176.762 228.28C173.538 225.8 168.826 217.864 168.578 213.896C167.338 173.968 165.602 133.792 159.154 94.3597C157.914 87.4157 156.674 80.4717 157.418 73.7757C157.914 69.3117 159.65 64.8477 162.378 61.3757C167.09 55.9197 174.282 52.9437 180.978 50.7117C189.41 48.2317 197.842 46.4957 206.522 45.2557C214.706 43.7677 222.89 42.5277 231.074 42.2797C245.706 41.7837 261.578 45.2557 273.73 53.6877C283.154 60.3837 290.346 72.0397 291.586 83.4477C292.33 88.6557 291.338 93.8637 290.098 99.0717C287.618 108 282.162 116.184 275.962 123.128C286.626 128.336 296.546 136.768 302.25 147.184C308.45 158.84 310.186 173.72 307.458 186.616C305.722 195.048 301.506 203.232 295.554 209.432C285.386 220.344 271.002 227.784 256.618 232ZM216.194 112.464C218.178 114.448 221.402 114.448 223.882 114.2C233.554 113.704 242.482 106.016 244.962 96.3437C246.698 89.6477 243.97 80.4717 237.522 77.7437C234.298 76.5037 230.578 76.9997 227.106 77.7437C221.898 78.9837 217.682 83.1997 214.954 87.9117C212.97 91.3837 211.978 95.3517 211.73 99.5677C211.482 100.064 212.226 102.048 212.474 102.792C213.218 106.016 213.714 110.232 216.194 112.464ZM217.682 177.44C220.41 188.104 232.81 191.576 243.474 188.848C256.122 185.624 260.834 166.776 251.162 157.6C246.45 153.136 238.762 150.656 232.562 152.392C226.858 153.88 221.402 158.096 218.178 163.304C216.442 166.032 216.938 174.464 217.682 177.44Z"/>
<path d="M416.287 230.016C407.359 232 397.935 232 388.759 232.248C373.135 232.496 356.519 230.76 342.631 223.816C333.951 219.352 326.263 211.664 322.047 202.984C316.591 192.072 315.351 179.672 315.103 167.52C314.607 149.168 315.351 130.568 315.599 112.216C315.847 99.5677 315.103 87.1677 316.343 74.5197C317.087 68.0717 318.079 60.6317 322.543 55.9197C327.255 50.9597 334.943 48.9757 341.887 48.7277C348.335 48.4797 355.279 48.4797 361.479 50.7117C365.447 51.9517 369.167 54.6797 371.399 58.1517C373.631 62.1197 374.375 66.8317 374.375 71.2957C375.119 95.3517 371.895 119.656 372.639 143.712C372.887 149.912 373.879 165.288 378.591 169.008C380.575 170.744 383.303 171.488 385.783 171.984C390.495 172.976 396.199 170.992 399.671 167.768C406.367 161.32 405.871 137.264 405.623 127.84C405.375 116.68 402.151 71.7917 406.119 61.3757C407.359 57.9037 409.839 54.6797 413.063 52.6957C419.015 48.9757 426.951 48.7277 433.895 49.4717C440.343 49.9677 447.287 51.4557 452.247 55.6717C455.719 58.3997 457.703 63.1117 458.447 67.3277C460.431 77.9917 459.935 88.9037 459.935 99.8157C459.935 118.912 459.439 138.256 457.951 157.6C456.711 172.48 454.479 187.608 448.527 201.248C444.807 210.176 439.103 218.608 431.167 223.816C426.703 226.792 421.495 229.024 416.287 230.016Z"/>
<path d="M603.202 235.72C593.034 237.208 580.881 235.968 572.945 229.52C567.737 225.304 564.761 218.36 563.273 211.912C561.289 202.24 561.29 192.32 559.802 182.648C558.562 174.712 556.081 165.784 549.633 161.072C546.409 158.84 542.442 158.096 538.474 158.096C539.218 165.288 539.714 172.48 540.21 179.672C540.706 187.608 541.946 215.384 538.474 222.576C531.778 236.216 509.706 238.448 495.074 234.232C487.882 232 480.69 226.048 478.706 218.608C475.978 208.936 473.994 158.096 473.002 147.928C471.762 132.056 470.77 115.936 471.018 99.8157C471.018 89.3997 471.514 78.9837 473.746 68.8157C474.986 63.6077 477.217 58.3997 480.938 54.6797C484.409 51.2077 489.618 49.2237 494.578 47.7357C500.778 46.2477 507.721 45.5037 514.169 46.2477C520.617 46.9917 527.313 48.9757 532.273 53.1917C535.497 55.9197 537.729 60.1357 538.721 64.1037C540.457 70.3037 540.458 76.5037 540.458 82.7037C540.706 95.8477 539.466 108.992 539.218 122.136C545.666 120.896 552.858 118.664 556.826 113.456C561.042 108 562.282 100.808 563.026 94.1117C564.514 81.7117 563.522 68.3197 569.226 56.9117C570.714 53.9357 573.442 51.4557 576.418 49.9677C580.634 47.7357 585.594 46.9917 590.306 46.7437C596.754 46.4957 603.202 47.2397 609.65 48.7277C613.866 49.7197 618.329 52.1997 621.057 55.4237C624.529 59.6397 626.266 65.3437 627.258 70.5517C628.498 78.9837 628.002 87.9117 626.266 96.3437C623.29 110.48 615.85 124.864 604.442 133.296C609.154 137.512 613.122 142.968 616.098 148.424C622.298 159.832 625.274 172.976 625.77 185.624C626.514 197.776 626.514 210.92 621.554 222.08C617.834 229.52 611.634 234.48 603.202 235.72Z"/>
<path d="M718.679 235.224C707.519 235.224 696.11 234.976 685.198 232.496C673.046 229.768 660.895 223.072 652.463 213.648C645.271 205.96 640.807 195.792 638.327 185.872C634.359 169.504 634.854 152.392 636.094 135.776C637.83 112.96 641.799 88.4077 654.695 69.5597C662.135 58.3997 676.022 50.4637 689.414 48.9757C699.582 47.7357 709.999 46.4957 720.167 46.7437C734.551 46.7437 749.678 50.2157 762.078 57.6557C770.758 62.8637 778.199 70.7997 782.663 79.7277C788.615 92.1277 790.102 106.512 790.846 120.152C792.334 144.704 791.591 170.744 782.663 193.808C777.455 207.2 767.287 219.352 754.887 226.544C744.223 232.992 731.079 234.976 718.679 235.224ZM710.247 184.136C716.447 185.376 722.894 185.376 728.846 183.144C733.806 181.408 737.527 176.944 740.007 172.232C743.975 165.288 745.463 156.856 746.455 148.92C747.199 142.224 747.446 135.28 747.198 128.584C746.95 123.624 746.454 118.416 744.966 113.456C743.478 108.744 740.75 105.52 736.534 103.04C731.326 99.8157 724.879 99.0717 718.679 99.0717C714.215 98.8237 709.751 99.0717 705.783 100.808C702.559 102.048 699.83 104.528 697.846 107.256C693.63 112.712 691.399 119.904 689.911 126.848C688.175 135.776 687.679 145.2 688.671 154.128C689.415 161.568 690.654 169.504 694.87 175.208C698.59 179.92 704.543 182.896 710.247 184.136Z"/>
</mask>
<path d="M114.324 229.768C109.612 236.96 97.7075 238.448 90.0195 234.728C86.7955 233.24 83.8195 230.264 83.0755 226.792C81.8355 222.824 82.3315 218.112 83.3235 213.896C77.8675 213.152 72.6595 212.16 67.4515 211.168C60.2595 209.68 52.3235 206.704 48.1075 200.752C38.6835 187.856 45.8755 169.008 61.7475 168.76C65.2195 168.76 81.8355 172.48 85.0595 173.224C88.7795 173.72 95.4755 174.712 97.2115 171.488C97.9555 170 97.4595 168.016 96.4675 166.528C94.7315 163.552 92.0035 161.072 89.0275 159.088C79.6035 152.144 68.6915 147.184 60.2595 139.248C56.0435 135.28 52.0755 130.816 49.8435 125.608C47.6115 120.648 46.8675 114.944 47.8595 109.488C49.3475 102.544 53.3155 95.8477 58.2755 90.8877C65.2195 84.1917 74.6435 79.9757 84.0675 77.7437C83.5715 73.7757 83.0755 69.5597 83.0755 65.5917C83.0755 62.3677 83.5715 58.8957 85.5555 56.1677C87.5395 53.4397 91.5075 52.1997 94.9795 51.7037C99.4435 51.2077 103.66 50.9597 108.124 51.7037C111.596 52.1997 115.068 54.6797 116.556 57.6557C117.548 60.8797 117.3 64.3517 117.052 67.5757C117.052 68.5677 116.308 74.0237 116.308 75.0157C121.02 75.5117 125.732 76.0077 130.196 76.9997C136.892 78.4877 144.084 82.9517 147.06 89.1517C154.252 105.024 145.324 125.36 128.212 121.888C121.764 120.4 115.068 119.408 108.372 119.904C105.644 120.152 99.9395 121.144 98.6995 123.376C97.7075 125.856 100.684 128.832 102.42 130.568C110.604 137.76 121.516 141.232 130.444 146.936C137.388 151.4 143.34 158.096 146.068 165.784C150.036 176.448 148.3 188.104 141.356 197.528C135.404 205.464 125.484 210.672 115.812 212.904C116.556 218.608 117.3 225.056 114.324 229.768Z" fill="white"/>
<path d="M256.618 232C248.186 234.48 239.258 235.224 230.578 234.976C228.594 234.976 215.946 233.984 213.962 233.984C208.754 233.736 203.546 234.232 198.338 233.984C190.898 233.488 182.962 232.496 176.762 228.28C173.538 225.8 168.826 217.864 168.578 213.896C167.338 173.968 165.602 133.792 159.154 94.3597C157.914 87.4157 156.674 80.4717 157.418 73.7757C157.914 69.3117 159.65 64.8477 162.378 61.3757C167.09 55.9197 174.282 52.9437 180.978 50.7117C189.41 48.2317 197.842 46.4957 206.522 45.2557C214.706 43.7677 222.89 42.5277 231.074 42.2797C245.706 41.7837 261.578 45.2557 273.73 53.6877C283.154 60.3837 290.346 72.0397 291.586 83.4477C292.33 88.6557 291.338 93.8637 290.098 99.0717C287.618 108 282.162 116.184 275.962 123.128C286.626 128.336 296.546 136.768 302.25 147.184C308.45 158.84 310.186 173.72 307.458 186.616C305.722 195.048 301.506 203.232 295.554 209.432C285.386 220.344 271.002 227.784 256.618 232ZM216.194 112.464C218.178 114.448 221.402 114.448 223.882 114.2C233.554 113.704 242.482 106.016 244.962 96.3437C246.698 89.6477 243.97 80.4717 237.522 77.7437C234.298 76.5037 230.578 76.9997 227.106 77.7437C221.898 78.9837 217.682 83.1997 214.954 87.9117C212.97 91.3837 211.978 95.3517 211.73 99.5677C211.482 100.064 212.226 102.048 212.474 102.792C213.218 106.016 213.714 110.232 216.194 112.464ZM217.682 177.44C220.41 188.104 232.81 191.576 243.474 188.848C256.122 185.624 260.834 166.776 251.162 157.6C246.45 153.136 238.762 150.656 232.562 152.392C226.858 153.88 221.402 158.096 218.178 163.304C216.442 166.032 216.938 174.464 217.682 177.44Z" fill="white"/>
<path d="M416.287 230.016C407.359 232 397.935 232 388.759 232.248C373.135 232.496 356.519 230.76 342.631 223.816C333.951 219.352 326.263 211.664 322.047 202.984C316.591 192.072 315.351 179.672 315.103 167.52C314.607 149.168 315.351 130.568 315.599 112.216C315.847 99.5677 315.103 87.1677 316.343 74.5197C317.087 68.0717 318.079 60.6317 322.543 55.9197C327.255 50.9597 334.943 48.9757 341.887 48.7277C348.335 48.4797 355.279 48.4797 361.479 50.7117C365.447 51.9517 369.167 54.6797 371.399 58.1517C373.631 62.1197 374.375 66.8317 374.375 71.2957C375.119 95.3517 371.895 119.656 372.639 143.712C372.887 149.912 373.879 165.288 378.591 169.008C380.575 170.744 383.303 171.488 385.783 171.984C390.495 172.976 396.199 170.992 399.671 167.768C406.367 161.32 405.871 137.264 405.623 127.84C405.375 116.68 402.151 71.7917 406.119 61.3757C407.359 57.9037 409.839 54.6797 413.063 52.6957C419.015 48.9757 426.951 48.7277 433.895 49.4717C440.343 49.9677 447.287 51.4557 452.247 55.6717C455.719 58.3997 457.703 63.1117 458.447 67.3277C460.431 77.9917 459.935 88.9037 459.935 99.8157C459.935 118.912 459.439 138.256 457.951 157.6C456.711 172.48 454.479 187.608 448.527 201.248C444.807 210.176 439.103 218.608 431.167 223.816C426.703 226.792 421.495 229.024 416.287 230.016Z" fill="white"/>
<path d="M603.202 235.72C593.034 237.208 580.881 235.968 572.945 229.52C567.737 225.304 564.761 218.36 563.273 211.912C561.289 202.24 561.29 192.32 559.802 182.648C558.562 174.712 556.081 165.784 549.633 161.072C546.409 158.84 542.442 158.096 538.474 158.096C539.218 165.288 539.714 172.48 540.21 179.672C540.706 187.608 541.946 215.384 538.474 222.576C531.778 236.216 509.706 238.448 495.074 234.232C487.882 232 480.69 226.048 478.706 218.608C475.978 208.936 473.994 158.096 473.002 147.928C471.762 132.056 470.77 115.936 471.018 99.8157C471.018 89.3997 471.514 78.9837 473.746 68.8157C474.986 63.6077 477.217 58.3997 480.938 54.6797C484.409 51.2077 489.618 49.2237 494.578 47.7357C500.778 46.2477 507.721 45.5037 514.169 46.2477C520.617 46.9917 527.313 48.9757 532.273 53.1917C535.497 55.9197 537.729 60.1357 538.721 64.1037C540.457 70.3037 540.458 76.5037 540.458 82.7037C540.706 95.8477 539.466 108.992 539.218 122.136C545.666 120.896 552.858 118.664 556.826 113.456C561.042 108 562.282 100.808 563.026 94.1117C564.514 81.7117 563.522 68.3197 569.226 56.9117C570.714 53.9357 573.442 51.4557 576.418 49.9677C580.634 47.7357 585.594 46.9917 590.306 46.7437C596.754 46.4957 603.202 47.2397 609.65 48.7277C613.866 49.7197 618.329 52.1997 621.057 55.4237C624.529 59.6397 626.266 65.3437 627.258 70.5517C628.498 78.9837 628.002 87.9117 626.266 96.3437C623.29 110.48 615.85 124.864 604.442 133.296C609.154 137.512 613.122 142.968 616.098 148.424C622.298 159.832 625.274 172.976 625.77 185.624C626.514 197.776 626.514 210.92 621.554 222.08C617.834 229.52 611.634 234.48 603.202 235.72Z" fill="white"/>
<path d="M718.679 235.224C707.519 235.224 696.11 234.976 685.198 232.496C673.046 229.768 660.895 223.072 652.463 213.648C645.271 205.96 640.807 195.792 638.327 185.872C634.359 169.504 634.854 152.392 636.094 135.776C637.83 112.96 641.799 88.4077 654.695 69.5597C662.135 58.3997 676.022 50.4637 689.414 48.9757C699.582 47.7357 709.999 46.4957 720.167 46.7437C734.551 46.7437 749.678 50.2157 762.078 57.6557C770.758 62.8637 778.199 70.7997 782.663 79.7277C788.615 92.1277 790.102 106.512 790.846 120.152C792.334 144.704 791.591 170.744 782.663 193.808C777.455 207.2 767.287 219.352 754.887 226.544C744.223 232.992 731.079 234.976 718.679 235.224ZM710.247 184.136C716.447 185.376 722.894 185.376 728.846 183.144C733.806 181.408 737.527 176.944 740.007 172.232C743.975 165.288 745.463 156.856 746.455 148.92C747.199 142.224 747.446 135.28 747.198 128.584C746.95 123.624 746.454 118.416 744.966 113.456C743.478 108.744 740.75 105.52 736.534 103.04C731.326 99.8157 724.879 99.0717 718.679 99.0717C714.215 98.8237 709.751 99.0717 705.783 100.808C702.559 102.048 699.83 104.528 697.846 107.256C693.63 112.712 691.399 119.904 689.911 126.848C688.175 135.776 687.679 145.2 688.671 154.128C689.415 161.568 690.654 169.504 694.87 175.208C698.59 179.92 704.543 182.896 710.247 184.136Z" fill="white"/>
<path d="M114.324 229.768C109.612 236.96 97.7075 238.448 90.0195 234.728C86.7955 233.24 83.8195 230.264 83.0755 226.792C81.8355 222.824 82.3315 218.112 83.3235 213.896C77.8675 213.152 72.6595 212.16 67.4515 211.168C60.2595 209.68 52.3235 206.704 48.1075 200.752C38.6835 187.856 45.8755 169.008 61.7475 168.76C65.2195 168.76 81.8355 172.48 85.0595 173.224C88.7795 173.72 95.4755 174.712 97.2115 171.488C97.9555 170 97.4595 168.016 96.4675 166.528C94.7315 163.552 92.0035 161.072 89.0275 159.088C79.6035 152.144 68.6915 147.184 60.2595 139.248C56.0435 135.28 52.0755 130.816 49.8435 125.608C47.6115 120.648 46.8675 114.944 47.8595 109.488C49.3475 102.544 53.3155 95.8477 58.2755 90.8877C65.2195 84.1917 74.6435 79.9757 84.0675 77.7437C83.5715 73.7757 83.0755 69.5597 83.0755 65.5917C83.0755 62.3677 83.5715 58.8957 85.5555 56.1677C87.5395 53.4397 91.5075 52.1997 94.9795 51.7037C99.4435 51.2077 103.66 50.9597 108.124 51.7037C111.596 52.1997 115.068 54.6797 116.556 57.6557C117.548 60.8797 117.3 64.3517 117.052 67.5757C117.052 68.5677 116.308 74.0237 116.308 75.0157C121.02 75.5117 125.732 76.0077 130.196 76.9997C136.892 78.4877 144.084 82.9517 147.06 89.1517C154.252 105.024 145.324 125.36 128.212 121.888C121.764 120.4 115.068 119.408 108.372 119.904C105.644 120.152 99.9395 121.144 98.6995 123.376C97.7075 125.856 100.684 128.832 102.42 130.568C110.604 137.76 121.516 141.232 130.444 146.936C137.388 151.4 143.34 158.096 146.068 165.784C150.036 176.448 148.3 188.104 141.356 197.528C135.404 205.464 125.484 210.672 115.812 212.904C116.556 218.608 117.3 225.056 114.324 229.768Z" stroke="black" stroke-width="38" mask="url(#path-1-outside-1_2041_58)"/>
<path d="M256.618 232C248.186 234.48 239.258 235.224 230.578 234.976C228.594 234.976 215.946 233.984 213.962 233.984C208.754 233.736 203.546 234.232 198.338 233.984C190.898 233.488 182.962 232.496 176.762 228.28C173.538 225.8 168.826 217.864 168.578 213.896C167.338 173.968 165.602 133.792 159.154 94.3597C157.914 87.4157 156.674 80.4717 157.418 73.7757C157.914 69.3117 159.65 64.8477 162.378 61.3757C167.09 55.9197 174.282 52.9437 180.978 50.7117C189.41 48.2317 197.842 46.4957 206.522 45.2557C214.706 43.7677 222.89 42.5277 231.074 42.2797C245.706 41.7837 261.578 45.2557 273.73 53.6877C283.154 60.3837 290.346 72.0397 291.586 83.4477C292.33 88.6557 291.338 93.8637 290.098 99.0717C287.618 108 282.162 116.184 275.962 123.128C286.626 128.336 296.546 136.768 302.25 147.184C308.45 158.84 310.186 173.72 307.458 186.616C305.722 195.048 301.506 203.232 295.554 209.432C285.386 220.344 271.002 227.784 256.618 232ZM216.194 112.464C218.178 114.448 221.402 114.448 223.882 114.2C233.554 113.704 242.482 106.016 244.962 96.3437C246.698 89.6477 243.97 80.4717 237.522 77.7437C234.298 76.5037 230.578 76.9997 227.106 77.7437C221.898 78.9837 217.682 83.1997 214.954 87.9117C212.97 91.3837 211.978 95.3517 211.73 99.5677C211.482 100.064 212.226 102.048 212.474 102.792C213.218 106.016 213.714 110.232 216.194 112.464ZM217.682 177.44C220.41 188.104 232.81 191.576 243.474 188.848C256.122 185.624 260.834 166.776 251.162 157.6C246.45 153.136 238.762 150.656 232.562 152.392C226.858 153.88 221.402 158.096 218.178 163.304C216.442 166.032 216.938 174.464 217.682 177.44Z" stroke="black" stroke-width="38" mask="url(#path-1-outside-1_2041_58)"/>
<path d="M416.287 230.016C407.359 232 397.935 232 388.759 232.248C373.135 232.496 356.519 230.76 342.631 223.816C333.951 219.352 326.263 211.664 322.047 202.984C316.591 192.072 315.351 179.672 315.103 167.52C314.607 149.168 315.351 130.568 315.599 112.216C315.847 99.5677 315.103 87.1677 316.343 74.5197C317.087 68.0717 318.079 60.6317 322.543 55.9197C327.255 50.9597 334.943 48.9757 341.887 48.7277C348.335 48.4797 355.279 48.4797 361.479 50.7117C365.447 51.9517 369.167 54.6797 371.399 58.1517C373.631 62.1197 374.375 66.8317 374.375 71.2957C375.119 95.3517 371.895 119.656 372.639 143.712C372.887 149.912 373.879 165.288 378.591 169.008C380.575 170.744 383.303 171.488 385.783 171.984C390.495 172.976 396.199 170.992 399.671 167.768C406.367 161.32 405.871 137.264 405.623 127.84C405.375 116.68 402.151 71.7917 406.119 61.3757C407.359 57.9037 409.839 54.6797 413.063 52.6957C419.015 48.9757 426.951 48.7277 433.895 49.4717C440.343 49.9677 447.287 51.4557 452.247 55.6717C455.719 58.3997 457.703 63.1117 458.447 67.3277C460.431 77.9917 459.935 88.9037 459.935 99.8157C459.935 118.912 459.439 138.256 457.951 157.6C456.711 172.48 454.479 187.608 448.527 201.248C444.807 210.176 439.103 218.608 431.167 223.816C426.703 226.792 421.495 229.024 416.287 230.016Z" stroke="black" stroke-width="38" mask="url(#path-1-outside-1_2041_58)"/>
<path d="M603.202 235.72C593.034 237.208 580.881 235.968 572.945 229.52C567.737 225.304 564.761 218.36 563.273 211.912C561.289 202.24 561.29 192.32 559.802 182.648C558.562 174.712 556.081 165.784 549.633 161.072C546.409 158.84 542.442 158.096 538.474 158.096C539.218 165.288 539.714 172.48 540.21 179.672C540.706 187.608 541.946 215.384 538.474 222.576C531.778 236.216 509.706 238.448 495.074 234.232C487.882 232 480.69 226.048 478.706 218.608C475.978 208.936 473.994 158.096 473.002 147.928C471.762 132.056 470.77 115.936 471.018 99.8157C471.018 89.3997 471.514 78.9837 473.746 68.8157C474.986 63.6077 477.217 58.3997 480.938 54.6797C484.409 51.2077 489.618 49.2237 494.578 47.7357C500.778 46.2477 507.721 45.5037 514.169 46.2477C520.617 46.9917 527.313 48.9757 532.273 53.1917C535.497 55.9197 537.729 60.1357 538.721 64.1037C540.457 70.3037 540.458 76.5037 540.458 82.7037C540.706 95.8477 539.466 108.992 539.218 122.136C545.666 120.896 552.858 118.664 556.826 113.456C561.042 108 562.282 100.808 563.026 94.1117C564.514 81.7117 563.522 68.3197 569.226 56.9117C570.714 53.9357 573.442 51.4557 576.418 49.9677C580.634 47.7357 585.594 46.9917 590.306 46.7437C596.754 46.4957 603.202 47.2397 609.65 48.7277C613.866 49.7197 618.329 52.1997 621.057 55.4237C624.529 59.6397 626.266 65.3437 627.258 70.5517C628.498 78.9837 628.002 87.9117 626.266 96.3437C623.29 110.48 615.85 124.864 604.442 133.296C609.154 137.512 613.122 142.968 616.098 148.424C622.298 159.832 625.274 172.976 625.77 185.624C626.514 197.776 626.514 210.92 621.554 222.08C617.834 229.52 611.634 234.48 603.202 235.72Z" stroke="black" stroke-width="38" mask="url(#path-1-outside-1_2041_58)"/>
<path d="M718.679 235.224C707.519 235.224 696.11 234.976 685.198 232.496C673.046 229.768 660.895 223.072 652.463 213.648C645.271 205.96 640.807 195.792 638.327 185.872C634.359 169.504 634.854 152.392 636.094 135.776C637.83 112.96 641.799 88.4077 654.695 69.5597C662.135 58.3997 676.022 50.4637 689.414 48.9757C699.582 47.7357 709.999 46.4957 720.167 46.7437C734.551 46.7437 749.678 50.2157 762.078 57.6557C770.758 62.8637 778.199 70.7997 782.663 79.7277C788.615 92.1277 790.102 106.512 790.846 120.152C792.334 144.704 791.591 170.744 782.663 193.808C777.455 207.2 767.287 219.352 754.887 226.544C744.223 232.992 731.079 234.976 718.679 235.224ZM710.247 184.136C716.447 185.376 722.894 185.376 728.846 183.144C733.806 181.408 737.527 176.944 740.007 172.232C743.975 165.288 745.463 156.856 746.455 148.92C747.199 142.224 747.446 135.28 747.198 128.584C746.95 123.624 746.454 118.416 744.966 113.456C743.478 108.744 740.75 105.52 736.534 103.04C731.326 99.8157 724.879 99.0717 718.679 99.0717C714.215 98.8237 709.751 99.0717 705.783 100.808C702.559 102.048 699.83 104.528 697.846 107.256C693.63 112.712 691.399 119.904 689.911 126.848C688.175 135.776 687.679 145.2 688.671 154.128C689.415 161.568 690.654 169.504 694.87 175.208C698.59 179.92 704.543 182.896 710.247 184.136Z" stroke="black" stroke-width="38" mask="url(#path-1-outside-1_2041_58)"/>
</svg>
