<svg width="702" height="239" viewBox="0 0 702 239" fill="none" xmlns="http://www.w3.org/2000/svg">
<mask id="path-1-outside-1_2033_11" maskUnits="userSpaceOnUse" x="-0.0432129" y="0.822266" width="702" height="238" fill="black">
<rect fill="white" x="-0.0432129" y="0.822266" width="702" height="238"/>
<path d="M179.239 57.3047C179.239 59.7246 179.239 62.124 179.239 64.5029C179.239 66.8818 179.116 69.2812 178.87 71.7012C178.419 76.8281 177.312 81.6885 175.548 86.2822C173.784 90.835 171.385 94.834 168.35 98.2793C165.356 101.725 161.705 104.452 157.398 106.462C153.092 108.472 148.149 109.477 142.571 109.477C140.398 109.477 138.121 109.292 135.742 108.923C133.404 108.554 131.066 108 128.729 107.262C126.432 106.523 124.217 105.621 122.084 104.555C119.992 103.447 118.126 102.176 116.485 100.74L120.3 75.2695C122.72 77.6074 125.406 79.5146 128.359 80.9912C131.313 82.4268 134.532 83.1445 138.019 83.1445C140.274 83.1445 142.182 82.8164 143.74 82.1602C145.299 81.5039 146.591 80.6016 147.616 79.4531C148.642 78.3047 149.441 76.9717 150.016 75.4541C150.631 73.8955 151.062 72.2549 151.308 70.5322C151.595 68.7686 151.759 66.9639 151.8 65.1182C151.882 63.2725 151.923 61.4473 151.923 59.6426C151.923 53.1211 151.595 46.6406 150.939 40.2012C150.282 33.7207 149.708 27.2402 149.216 20.7598L177.394 18.9141C178.624 31.7109 179.239 44.5078 179.239 57.3047Z"/>
<path d="M262.018 64.5645C262.018 68.2969 261.587 71.9062 260.726 75.3926C259.865 78.8379 258.614 82.0781 256.973 85.1133C255.373 88.1484 253.405 90.9375 251.067 93.4805C248.77 95.9824 246.165 98.1357 243.253 99.9404C240.382 101.745 237.244 103.16 233.84 104.186C230.436 105.17 226.826 105.662 223.012 105.662C219.321 105.662 215.793 105.19 212.43 104.247C209.108 103.304 205.991 101.991 203.078 100.31C200.166 98.5869 197.521 96.5361 195.142 94.1572C192.804 91.7373 190.794 89.0713 189.113 86.1592C187.472 83.2061 186.18 80.0479 185.237 76.6846C184.334 73.3213 183.883 69.8145 183.883 66.1641C183.883 62.5957 184.314 59.1094 185.175 55.7051C186.036 52.2598 187.267 49.0195 188.867 45.9844C190.507 42.9492 192.476 40.1602 194.773 37.6172C197.07 35.0742 199.633 32.8799 202.463 31.0342C205.334 29.1885 208.431 27.7529 211.753 26.7275C215.076 25.7021 218.582 25.1895 222.274 25.1895C228.221 25.1895 233.635 26.1123 238.516 27.958C243.438 29.8037 247.621 32.4492 251.067 35.8945C254.553 39.2988 257.24 43.4414 259.126 48.3223C261.054 53.1621 262.018 58.5762 262.018 64.5645ZM234.701 66.1641C234.701 64.4004 234.435 62.6982 233.902 61.0576C233.409 59.376 232.671 57.8994 231.687 56.6279C230.702 55.3154 229.472 54.2695 227.995 53.4902C226.56 52.6699 224.899 52.2598 223.012 52.2598C221.084 52.2598 219.362 52.6084 217.844 53.3057C216.326 54.0029 215.014 54.9668 213.907 56.1973C212.84 57.3867 212.02 58.8018 211.446 60.4424C210.871 62.042 210.584 63.7441 210.584 65.5488C210.584 67.2715 210.83 68.9941 211.323 70.7168C211.815 72.4395 212.553 73.998 213.537 75.3926C214.522 76.7871 215.732 77.915 217.167 78.7764C218.644 79.6377 220.346 80.0684 222.274 80.0684C224.201 80.0684 225.924 79.6992 227.442 78.9609C229 78.1816 230.313 77.1562 231.379 75.8848C232.446 74.5723 233.266 73.0752 233.84 71.3936C234.414 69.7119 234.701 67.9688 234.701 66.1641Z"/>
<path d="M300.807 21.375L294.04 105.17L268.077 106.523V23.0977L300.807 21.375Z"/>
<path d="M390.046 19.7754L385.616 103.201L353.378 106.154L336.151 61.4883L333.444 107.016H305.759L307.973 19.7754L338.735 18.2988L360.022 62.5957L361.007 20.7598L390.046 19.7754Z"/>
<path d="M495.802 39.5859C495.802 42.6211 495.658 45.9639 495.371 49.6143C495.084 53.2646 494.613 57.0381 493.956 60.9346C493.3 64.8311 492.439 68.7891 491.372 72.8086C490.347 76.7871 489.055 80.6221 487.496 84.3135C485.938 88.0049 484.113 91.4707 482.021 94.7109C479.97 97.9102 477.591 100.72 474.884 103.14C472.218 105.519 469.224 107.385 465.902 108.738C462.579 110.133 458.888 110.83 454.827 110.83C450.07 110.83 445.927 110.051 442.4 108.492C438.913 106.975 435.919 104.924 433.417 102.34C430.915 99.7148 428.865 96.6797 427.265 93.2344C425.665 89.748 424.414 86.0771 423.512 82.2217C422.61 78.3252 421.974 74.3672 421.605 70.3477C421.277 66.2871 421.113 62.3906 421.113 58.6582C421.113 52.916 421.4 47.1943 421.974 41.4932C422.548 35.751 423.368 30.0293 424.435 24.3281L453.228 25.4355C452.12 31.875 451.156 38.3555 450.336 44.877C449.557 51.3574 449.167 57.8789 449.167 64.4414C449.167 65.1387 449.188 66.1846 449.229 67.5791C449.311 68.9326 449.434 70.4707 449.598 72.1934C449.762 73.875 449.988 75.6182 450.275 77.4229C450.603 79.1865 451.033 80.8066 451.567 82.2832C452.1 83.7598 452.736 84.9697 453.474 85.9131C454.253 86.8564 455.156 87.3281 456.181 87.3281C457.37 87.3281 458.437 86.7744 459.38 85.667C460.323 84.5186 461.144 83.001 461.841 81.1143C462.579 79.2275 463.215 77.0537 463.748 74.5928C464.281 72.1318 464.733 69.5684 465.102 66.9023C465.471 64.2363 465.758 61.5703 465.963 58.9043C466.209 56.2383 466.394 53.7568 466.517 51.46C466.681 49.1631 466.783 47.1328 466.824 45.3691C466.865 43.6055 466.886 42.293 466.886 41.4316C466.886 38.2324 466.824 35.0537 466.701 31.8955C466.619 28.6963 466.476 25.5176 466.271 22.3594H495.064C495.556 28.0195 495.802 33.7617 495.802 39.5859Z"/>
<path d="M564.984 75.2695C564.984 80.8887 564 85.8105 562.031 90.0352C560.103 94.2188 557.437 97.7051 554.033 100.494C550.669 103.283 546.711 105.375 542.159 106.77C537.647 108.164 532.787 108.861 527.578 108.861C525.568 108.861 523.353 108.595 520.933 108.062C518.554 107.528 516.134 106.872 513.673 106.093C511.212 105.272 508.833 104.411 506.537 103.509C504.281 102.565 502.271 101.684 500.507 100.863L503.214 75.5156C506.701 77.6074 510.556 79.207 514.781 80.3145C519.046 81.3809 523.23 81.9141 527.332 81.9141C528.111 81.9141 529.054 81.8936 530.162 81.8525C531.269 81.7705 532.315 81.5859 533.299 81.2988C534.325 80.9707 535.186 80.499 535.883 79.8838C536.581 79.2686 536.929 78.3867 536.929 77.2383C536.929 76.459 536.683 75.8027 536.191 75.2695C535.699 74.6953 535.063 74.2441 534.284 73.916C533.504 73.5469 532.623 73.2803 531.638 73.1162C530.654 72.9111 529.69 72.7676 528.747 72.6855C527.803 72.6035 526.921 72.5625 526.101 72.5625C525.281 72.5625 524.625 72.5625 524.132 72.5625C520.605 72.5625 517.385 71.9473 514.473 70.7168C511.602 69.4863 509.121 67.7842 507.029 65.6104C504.978 63.3955 503.378 60.791 502.23 57.7969C501.082 54.7617 500.507 51.4805 500.507 47.9531C500.507 43.1133 501.471 38.7861 503.399 34.9717C505.368 31.1162 507.972 27.8555 511.212 25.1895C514.494 22.4824 518.247 20.4111 522.471 18.9756C526.696 17.54 531.064 16.8223 535.576 16.8223C537.585 16.8223 539.657 16.9043 541.79 17.0684C543.922 17.1914 546.035 17.4375 548.126 17.8066C550.259 18.1758 552.331 18.6475 554.34 19.2217C556.35 19.7959 558.257 20.5137 560.062 21.375L557.724 46.3535C554.935 45.4102 552.002 44.6309 548.926 44.0156C545.891 43.3594 542.917 43.0312 540.005 43.0312C539.472 43.0312 538.775 43.0518 537.914 43.0928C537.093 43.0928 536.211 43.1543 535.268 43.2773C534.366 43.3594 533.443 43.5029 532.5 43.708C531.556 43.9131 530.715 44.2002 529.977 44.5693C529.239 44.8975 528.644 45.3486 528.193 45.9229C527.742 46.4971 527.537 47.1738 527.578 47.9531C527.619 48.8555 527.947 49.5938 528.562 50.168C529.218 50.7012 530.039 51.1318 531.023 51.46C532.048 51.7471 533.156 51.9521 534.345 52.0752C535.576 52.1982 536.786 52.2803 537.975 52.3213C539.165 52.3213 540.272 52.3213 541.297 52.3213C542.323 52.2803 543.164 52.3008 543.82 52.3828C547.101 52.5879 550.054 53.2852 552.679 54.4746C555.304 55.6641 557.519 57.2432 559.324 59.2119C561.169 61.1807 562.564 63.5391 563.507 66.2871C564.492 68.9941 564.984 71.9883 564.984 75.2695Z"/>
<path d="M103.644 211.709L73.1287 215.646L69.4373 201.742H55.4099L52.3337 215.646L20.9568 212.57L45.4431 130.621L79.6501 128.898L103.644 211.709ZM67.2224 182.916L62.5466 161.506L57.9939 182.916H67.2224Z"/>
<path d="M163.967 129.021L163.352 155.107L145.018 155.846L140.342 214.17L114.379 215.523L114.502 157.199L96.168 158.184L96.9062 129.145L163.967 129.021Z"/>
<path d="M257.48 184.27C257.48 189.889 256.496 194.811 254.527 199.035C252.599 203.219 249.933 206.705 246.529 209.494C243.165 212.283 239.207 214.375 234.655 215.77C230.143 217.164 225.283 217.861 220.074 217.861C218.064 217.861 215.849 217.595 213.429 217.062C211.05 216.528 208.63 215.872 206.169 215.093C203.708 214.272 201.33 213.411 199.033 212.509C196.777 211.565 194.767 210.684 193.003 209.863L195.71 184.516C199.197 186.607 203.052 188.207 207.277 189.314C211.542 190.381 215.726 190.914 219.828 190.914C220.607 190.914 221.55 190.894 222.658 190.853C223.765 190.771 224.811 190.586 225.795 190.299C226.821 189.971 227.682 189.499 228.379 188.884C229.077 188.269 229.425 187.387 229.425 186.238C229.425 185.459 229.179 184.803 228.687 184.27C228.195 183.695 227.559 183.244 226.78 182.916C226 182.547 225.119 182.28 224.134 182.116C223.15 181.911 222.186 181.768 221.243 181.686C220.299 181.604 219.417 181.562 218.597 181.562C217.777 181.562 217.121 181.562 216.628 181.562C213.101 181.562 209.881 180.947 206.969 179.717C204.098 178.486 201.617 176.784 199.525 174.61C197.474 172.396 195.874 169.791 194.726 166.797C193.578 163.762 193.003 160.48 193.003 156.953C193.003 152.113 193.967 147.786 195.895 143.972C197.864 140.116 200.468 136.855 203.708 134.189C206.99 131.482 210.743 129.411 214.967 127.976C219.192 126.54 223.56 125.822 228.072 125.822C230.081 125.822 232.153 125.904 234.286 126.068C236.418 126.191 238.531 126.438 240.622 126.807C242.755 127.176 244.827 127.647 246.836 128.222C248.846 128.796 250.753 129.514 252.558 130.375L250.22 155.354C247.431 154.41 244.498 153.631 241.422 153.016C238.387 152.359 235.414 152.031 232.501 152.031C231.968 152.031 231.271 152.052 230.41 152.093C229.589 152.093 228.707 152.154 227.764 152.277C226.862 152.359 225.939 152.503 224.996 152.708C224.052 152.913 223.211 153.2 222.473 153.569C221.735 153.897 221.14 154.349 220.689 154.923C220.238 155.497 220.033 156.174 220.074 156.953C220.115 157.855 220.443 158.594 221.058 159.168C221.714 159.701 222.535 160.132 223.519 160.46C224.544 160.747 225.652 160.952 226.841 161.075C228.072 161.198 229.282 161.28 230.471 161.321C231.661 161.321 232.768 161.321 233.793 161.321C234.819 161.28 235.66 161.301 236.316 161.383C239.597 161.588 242.55 162.285 245.175 163.475C247.8 164.664 250.015 166.243 251.82 168.212C253.665 170.181 255.06 172.539 256.003 175.287C256.988 177.994 257.48 180.988 257.48 184.27Z"/>
<path d="M338.72 173.564C338.72 177.297 338.29 180.906 337.428 184.393C336.567 187.838 335.316 191.078 333.675 194.113C332.076 197.148 330.107 199.938 327.769 202.48C325.472 204.982 322.868 207.136 319.956 208.94C317.085 210.745 313.947 212.16 310.543 213.186C307.138 214.17 303.529 214.662 299.715 214.662C296.023 214.662 292.496 214.19 289.133 213.247C285.81 212.304 282.693 210.991 279.781 209.31C276.869 207.587 274.223 205.536 271.844 203.157C269.507 200.737 267.497 198.071 265.815 195.159C264.174 192.206 262.883 189.048 261.939 185.685C261.037 182.321 260.586 178.814 260.586 175.164C260.586 171.596 261.016 168.109 261.878 164.705C262.739 161.26 263.969 158.02 265.569 154.984C267.21 151.949 269.178 149.16 271.475 146.617C273.772 144.074 276.336 141.88 279.166 140.034C282.037 138.188 285.133 136.753 288.456 135.728C291.778 134.702 295.285 134.189 298.976 134.189C304.924 134.189 310.338 135.112 315.218 136.958C320.14 138.804 324.324 141.449 327.769 144.895C331.256 148.299 333.942 152.441 335.829 157.322C337.757 162.162 338.72 167.576 338.72 173.564ZM311.404 175.164C311.404 173.4 311.137 171.698 310.604 170.058C310.112 168.376 309.374 166.899 308.389 165.628C307.405 164.315 306.174 163.27 304.698 162.49C303.262 161.67 301.601 161.26 299.715 161.26C297.787 161.26 296.064 161.608 294.547 162.306C293.029 163.003 291.716 163.967 290.609 165.197C289.543 166.387 288.722 167.802 288.148 169.442C287.574 171.042 287.287 172.744 287.287 174.549C287.287 176.271 287.533 177.994 288.025 179.717C288.517 181.439 289.256 182.998 290.24 184.393C291.224 185.787 292.434 186.915 293.87 187.776C295.346 188.638 297.049 189.068 298.976 189.068C300.904 189.068 302.627 188.699 304.144 187.961C305.703 187.182 307.015 186.156 308.082 184.885C309.148 183.572 309.968 182.075 310.543 180.394C311.117 178.712 311.404 176.969 311.404 175.164Z"/>
<path d="M405.257 130.498L401.811 156.461C400.622 156.133 399.433 155.907 398.243 155.784C397.054 155.661 395.864 155.6 394.675 155.6C391.64 155.6 388.748 156.01 386 156.83C383.252 157.609 380.811 158.819 378.679 160.46C376.587 162.101 374.905 164.151 373.634 166.612C372.403 169.073 371.788 171.965 371.788 175.287C371.788 177.42 372.116 179.266 372.772 180.824C373.47 182.383 374.434 183.675 375.664 184.7C376.894 185.726 378.351 186.484 380.032 186.977C381.714 187.469 383.56 187.715 385.569 187.715C387.087 187.715 388.666 187.551 390.307 187.223C391.947 186.895 393.567 186.464 395.167 185.931C396.767 185.397 398.325 184.782 399.843 184.085C401.36 183.388 402.755 182.67 404.026 181.932L401.565 210.848C399.966 211.668 398.223 212.406 396.336 213.062C394.49 213.678 392.583 214.231 390.614 214.724C388.645 215.175 386.677 215.523 384.708 215.77C382.739 216.016 380.852 216.139 379.048 216.139C373.839 216.139 368.978 215.175 364.467 213.247C359.955 211.319 356.038 208.674 352.716 205.311C349.393 201.947 346.768 197.989 344.841 193.437C342.954 188.843 342.011 183.9 342.011 178.609C342.011 171.596 343.016 164.992 345.025 158.799C347.035 152.564 349.988 147.109 353.885 142.434C357.781 137.758 362.601 134.066 368.343 131.359C374.126 128.652 380.77 127.299 388.276 127.299C391.106 127.299 393.998 127.524 396.951 127.976C399.945 128.427 402.714 129.268 405.257 130.498Z"/>
<path d="M443.615 130.375L436.848 214.17L410.885 215.523V132.098L443.615 130.375Z"/>
<path d="M525.04 211.709L494.525 215.646L490.833 201.742H476.806L473.73 215.646L442.353 212.57L466.839 130.621L501.046 128.898L525.04 211.709ZM488.619 182.916L483.943 161.506L479.39 182.916H488.619Z"/>
<path d="M581.672 181.932L579.088 209.248L527.285 213.309C527.531 198.994 527.798 184.762 528.085 170.611C528.413 156.461 528.802 142.229 529.254 127.914H561.246C560.302 136.896 559.4 145.879 558.539 154.861C557.677 163.803 557.062 172.826 556.693 181.932C558.621 182.014 560.528 182.055 562.415 182.055C564.301 182.055 566.209 182.055 568.136 182.055C570.433 182.055 572.689 182.034 574.904 181.993C577.119 181.952 579.375 181.932 581.672 181.932Z"/>
<path d="M648.823 184.27C648.823 189.889 647.839 194.811 645.87 199.035C643.942 203.219 641.276 206.705 637.872 209.494C634.509 212.283 630.551 214.375 625.998 215.77C621.486 217.164 616.626 217.861 611.417 217.861C609.407 217.861 607.192 217.595 604.772 217.062C602.393 216.528 599.974 215.872 597.513 215.093C595.052 214.272 592.673 213.411 590.376 212.509C588.12 211.565 586.11 210.684 584.347 209.863L587.054 184.516C590.54 186.607 594.395 188.207 598.62 189.314C602.886 190.381 607.069 190.914 611.171 190.914C611.95 190.914 612.893 190.894 614.001 190.853C615.108 190.771 616.154 190.586 617.139 190.299C618.164 189.971 619.025 189.499 619.723 188.884C620.42 188.269 620.768 187.387 620.768 186.238C620.768 185.459 620.522 184.803 620.03 184.27C619.538 183.695 618.902 183.244 618.123 182.916C617.344 182.547 616.462 182.28 615.477 182.116C614.493 181.911 613.529 181.768 612.586 181.686C611.643 181.604 610.761 181.562 609.94 181.562C609.12 181.562 608.464 181.562 607.972 181.562C604.444 181.562 601.225 180.947 598.312 179.717C595.441 178.486 592.96 176.784 590.868 174.61C588.817 172.396 587.218 169.791 586.069 166.797C584.921 163.762 584.347 160.48 584.347 156.953C584.347 152.113 585.31 147.786 587.238 143.972C589.207 140.116 591.811 136.855 595.052 134.189C598.333 131.482 602.086 129.411 606.31 127.976C610.535 126.54 614.903 125.822 619.415 125.822C621.425 125.822 623.496 125.904 625.629 126.068C627.762 126.191 629.874 126.438 631.966 126.807C634.099 127.176 636.17 127.647 638.18 128.222C640.189 128.796 642.097 129.514 643.901 130.375L641.563 155.354C638.774 154.41 635.842 153.631 632.766 153.016C629.73 152.359 626.757 152.031 623.845 152.031C623.311 152.031 622.614 152.052 621.753 152.093C620.933 152.093 620.051 152.154 619.107 152.277C618.205 152.359 617.282 152.503 616.339 152.708C615.395 152.913 614.555 153.2 613.816 153.569C613.078 153.897 612.483 154.349 612.032 154.923C611.581 155.497 611.376 156.174 611.417 156.953C611.458 157.855 611.786 158.594 612.401 159.168C613.058 159.701 613.878 160.132 614.862 160.46C615.888 160.747 616.995 160.952 618.185 161.075C619.415 161.198 620.625 161.28 621.814 161.321C623.004 161.321 624.111 161.321 625.137 161.321C626.162 161.28 627.003 161.301 627.659 161.383C630.94 161.588 633.893 162.285 636.518 163.475C639.143 164.664 641.358 166.243 643.163 168.212C645.009 170.181 646.403 172.539 647.347 175.287C648.331 177.994 648.823 180.988 648.823 184.27Z"/>
<path d="M684.167 125.576L679.122 190.299H656.359L654.021 125.576H684.167ZM680.107 209.248C680.107 211.053 679.758 212.734 679.061 214.293C678.363 215.852 677.42 217.205 676.231 218.354C675.082 219.543 673.729 220.466 672.17 221.122C670.612 221.819 668.95 222.168 667.187 222.168C665.382 222.168 663.7 221.819 662.142 221.122C660.583 220.466 659.209 219.543 658.02 218.354C656.871 217.205 655.948 215.852 655.251 214.293C654.595 212.734 654.267 211.053 654.267 209.248C654.267 207.484 654.595 205.803 655.251 204.203C655.948 202.604 656.871 201.229 658.02 200.081C659.209 198.892 660.583 197.948 662.142 197.251C663.7 196.554 665.382 196.205 667.187 196.205C668.95 196.205 670.612 196.554 672.17 197.251C673.729 197.948 675.082 198.892 676.231 200.081C677.42 201.229 678.363 202.604 679.061 204.203C679.758 205.803 680.107 207.484 680.107 209.248Z"/>
</mask>
<path d="M179.239 57.3047C179.239 59.7246 179.239 62.124 179.239 64.5029C179.239 66.8818 179.116 69.2812 178.87 71.7012C178.419 76.8281 177.312 81.6885 175.548 86.2822C173.784 90.835 171.385 94.834 168.35 98.2793C165.356 101.725 161.705 104.452 157.398 106.462C153.092 108.472 148.149 109.477 142.571 109.477C140.398 109.477 138.121 109.292 135.742 108.923C133.404 108.554 131.066 108 128.729 107.262C126.432 106.523 124.217 105.621 122.084 104.555C119.992 103.447 118.126 102.176 116.485 100.74L120.3 75.2695C122.72 77.6074 125.406 79.5146 128.359 80.9912C131.313 82.4268 134.532 83.1445 138.019 83.1445C140.274 83.1445 142.182 82.8164 143.74 82.1602C145.299 81.5039 146.591 80.6016 147.616 79.4531C148.642 78.3047 149.441 76.9717 150.016 75.4541C150.631 73.8955 151.062 72.2549 151.308 70.5322C151.595 68.7686 151.759 66.9639 151.8 65.1182C151.882 63.2725 151.923 61.4473 151.923 59.6426C151.923 53.1211 151.595 46.6406 150.939 40.2012C150.282 33.7207 149.708 27.2402 149.216 20.7598L177.394 18.9141C178.624 31.7109 179.239 44.5078 179.239 57.3047Z" fill="white"/>
<path d="M262.018 64.5645C262.018 68.2969 261.587 71.9062 260.726 75.3926C259.865 78.8379 258.614 82.0781 256.973 85.1133C255.373 88.1484 253.405 90.9375 251.067 93.4805C248.77 95.9824 246.165 98.1357 243.253 99.9404C240.382 101.745 237.244 103.16 233.84 104.186C230.436 105.17 226.826 105.662 223.012 105.662C219.321 105.662 215.793 105.19 212.43 104.247C209.108 103.304 205.991 101.991 203.078 100.31C200.166 98.5869 197.521 96.5361 195.142 94.1572C192.804 91.7373 190.794 89.0713 189.113 86.1592C187.472 83.2061 186.18 80.0479 185.237 76.6846C184.334 73.3213 183.883 69.8145 183.883 66.1641C183.883 62.5957 184.314 59.1094 185.175 55.7051C186.036 52.2598 187.267 49.0195 188.867 45.9844C190.507 42.9492 192.476 40.1602 194.773 37.6172C197.07 35.0742 199.633 32.8799 202.463 31.0342C205.334 29.1885 208.431 27.7529 211.753 26.7275C215.076 25.7021 218.582 25.1895 222.274 25.1895C228.221 25.1895 233.635 26.1123 238.516 27.958C243.438 29.8037 247.621 32.4492 251.067 35.8945C254.553 39.2988 257.24 43.4414 259.126 48.3223C261.054 53.1621 262.018 58.5762 262.018 64.5645ZM234.701 66.1641C234.701 64.4004 234.435 62.6982 233.902 61.0576C233.409 59.376 232.671 57.8994 231.687 56.6279C230.702 55.3154 229.472 54.2695 227.995 53.4902C226.56 52.6699 224.899 52.2598 223.012 52.2598C221.084 52.2598 219.362 52.6084 217.844 53.3057C216.326 54.0029 215.014 54.9668 213.907 56.1973C212.84 57.3867 212.02 58.8018 211.446 60.4424C210.871 62.042 210.584 63.7441 210.584 65.5488C210.584 67.2715 210.83 68.9941 211.323 70.7168C211.815 72.4395 212.553 73.998 213.537 75.3926C214.522 76.7871 215.732 77.915 217.167 78.7764C218.644 79.6377 220.346 80.0684 222.274 80.0684C224.201 80.0684 225.924 79.6992 227.442 78.9609C229 78.1816 230.313 77.1562 231.379 75.8848C232.446 74.5723 233.266 73.0752 233.84 71.3936C234.414 69.7119 234.701 67.9688 234.701 66.1641Z" fill="white"/>
<path d="M300.807 21.375L294.04 105.17L268.077 106.523V23.0977L300.807 21.375Z" fill="white"/>
<path d="M390.046 19.7754L385.616 103.201L353.378 106.154L336.151 61.4883L333.444 107.016H305.759L307.973 19.7754L338.735 18.2988L360.022 62.5957L361.007 20.7598L390.046 19.7754Z" fill="white"/>
<path d="M495.802 39.5859C495.802 42.6211 495.658 45.9639 495.371 49.6143C495.084 53.2646 494.613 57.0381 493.956 60.9346C493.3 64.8311 492.439 68.7891 491.372 72.8086C490.347 76.7871 489.055 80.6221 487.496 84.3135C485.938 88.0049 484.113 91.4707 482.021 94.7109C479.97 97.9102 477.591 100.72 474.884 103.14C472.218 105.519 469.224 107.385 465.902 108.738C462.579 110.133 458.888 110.83 454.827 110.83C450.07 110.83 445.927 110.051 442.4 108.492C438.913 106.975 435.919 104.924 433.417 102.34C430.915 99.7148 428.865 96.6797 427.265 93.2344C425.665 89.748 424.414 86.0771 423.512 82.2217C422.61 78.3252 421.974 74.3672 421.605 70.3477C421.277 66.2871 421.113 62.3906 421.113 58.6582C421.113 52.916 421.4 47.1943 421.974 41.4932C422.548 35.751 423.368 30.0293 424.435 24.3281L453.228 25.4355C452.12 31.875 451.156 38.3555 450.336 44.877C449.557 51.3574 449.167 57.8789 449.167 64.4414C449.167 65.1387 449.188 66.1846 449.229 67.5791C449.311 68.9326 449.434 70.4707 449.598 72.1934C449.762 73.875 449.988 75.6182 450.275 77.4229C450.603 79.1865 451.033 80.8066 451.567 82.2832C452.1 83.7598 452.736 84.9697 453.474 85.9131C454.253 86.8564 455.156 87.3281 456.181 87.3281C457.37 87.3281 458.437 86.7744 459.38 85.667C460.323 84.5186 461.144 83.001 461.841 81.1143C462.579 79.2275 463.215 77.0537 463.748 74.5928C464.281 72.1318 464.733 69.5684 465.102 66.9023C465.471 64.2363 465.758 61.5703 465.963 58.9043C466.209 56.2383 466.394 53.7568 466.517 51.46C466.681 49.1631 466.783 47.1328 466.824 45.3691C466.865 43.6055 466.886 42.293 466.886 41.4316C466.886 38.2324 466.824 35.0537 466.701 31.8955C466.619 28.6963 466.476 25.5176 466.271 22.3594H495.064C495.556 28.0195 495.802 33.7617 495.802 39.5859Z" fill="white"/>
<path d="M564.984 75.2695C564.984 80.8887 564 85.8105 562.031 90.0352C560.103 94.2188 557.437 97.7051 554.033 100.494C550.669 103.283 546.711 105.375 542.159 106.77C537.647 108.164 532.787 108.861 527.578 108.861C525.568 108.861 523.353 108.595 520.933 108.062C518.554 107.528 516.134 106.872 513.673 106.093C511.212 105.272 508.833 104.411 506.537 103.509C504.281 102.565 502.271 101.684 500.507 100.863L503.214 75.5156C506.701 77.6074 510.556 79.207 514.781 80.3145C519.046 81.3809 523.23 81.9141 527.332 81.9141C528.111 81.9141 529.054 81.8936 530.162 81.8525C531.269 81.7705 532.315 81.5859 533.299 81.2988C534.325 80.9707 535.186 80.499 535.883 79.8838C536.581 79.2686 536.929 78.3867 536.929 77.2383C536.929 76.459 536.683 75.8027 536.191 75.2695C535.699 74.6953 535.063 74.2441 534.284 73.916C533.504 73.5469 532.623 73.2803 531.638 73.1162C530.654 72.9111 529.69 72.7676 528.747 72.6855C527.803 72.6035 526.921 72.5625 526.101 72.5625C525.281 72.5625 524.625 72.5625 524.132 72.5625C520.605 72.5625 517.385 71.9473 514.473 70.7168C511.602 69.4863 509.121 67.7842 507.029 65.6104C504.978 63.3955 503.378 60.791 502.23 57.7969C501.082 54.7617 500.507 51.4805 500.507 47.9531C500.507 43.1133 501.471 38.7861 503.399 34.9717C505.368 31.1162 507.972 27.8555 511.212 25.1895C514.494 22.4824 518.247 20.4111 522.471 18.9756C526.696 17.54 531.064 16.8223 535.576 16.8223C537.585 16.8223 539.657 16.9043 541.79 17.0684C543.922 17.1914 546.035 17.4375 548.126 17.8066C550.259 18.1758 552.331 18.6475 554.34 19.2217C556.35 19.7959 558.257 20.5137 560.062 21.375L557.724 46.3535C554.935 45.4102 552.002 44.6309 548.926 44.0156C545.891 43.3594 542.917 43.0312 540.005 43.0312C539.472 43.0312 538.775 43.0518 537.914 43.0928C537.093 43.0928 536.211 43.1543 535.268 43.2773C534.366 43.3594 533.443 43.5029 532.5 43.708C531.556 43.9131 530.715 44.2002 529.977 44.5693C529.239 44.8975 528.644 45.3486 528.193 45.9229C527.742 46.4971 527.537 47.1738 527.578 47.9531C527.619 48.8555 527.947 49.5938 528.562 50.168C529.218 50.7012 530.039 51.1318 531.023 51.46C532.048 51.7471 533.156 51.9521 534.345 52.0752C535.576 52.1982 536.786 52.2803 537.975 52.3213C539.165 52.3213 540.272 52.3213 541.297 52.3213C542.323 52.2803 543.164 52.3008 543.82 52.3828C547.101 52.5879 550.054 53.2852 552.679 54.4746C555.304 55.6641 557.519 57.2432 559.324 59.2119C561.169 61.1807 562.564 63.5391 563.507 66.2871C564.492 68.9941 564.984 71.9883 564.984 75.2695Z" fill="white"/>
<path d="M103.644 211.709L73.1287 215.646L69.4373 201.742H55.4099L52.3337 215.646L20.9568 212.57L45.4431 130.621L79.6501 128.898L103.644 211.709ZM67.2224 182.916L62.5466 161.506L57.9939 182.916H67.2224Z" fill="white"/>
<path d="M163.967 129.021L163.352 155.107L145.018 155.846L140.342 214.17L114.379 215.523L114.502 157.199L96.168 158.184L96.9062 129.145L163.967 129.021Z" fill="white"/>
<path d="M257.48 184.27C257.48 189.889 256.496 194.811 254.527 199.035C252.599 203.219 249.933 206.705 246.529 209.494C243.165 212.283 239.207 214.375 234.655 215.77C230.143 217.164 225.283 217.861 220.074 217.861C218.064 217.861 215.849 217.595 213.429 217.062C211.05 216.528 208.63 215.872 206.169 215.093C203.708 214.272 201.33 213.411 199.033 212.509C196.777 211.565 194.767 210.684 193.003 209.863L195.71 184.516C199.197 186.607 203.052 188.207 207.277 189.314C211.542 190.381 215.726 190.914 219.828 190.914C220.607 190.914 221.55 190.894 222.658 190.853C223.765 190.771 224.811 190.586 225.795 190.299C226.821 189.971 227.682 189.499 228.379 188.884C229.077 188.269 229.425 187.387 229.425 186.238C229.425 185.459 229.179 184.803 228.687 184.27C228.195 183.695 227.559 183.244 226.78 182.916C226 182.547 225.119 182.28 224.134 182.116C223.15 181.911 222.186 181.768 221.243 181.686C220.299 181.604 219.417 181.562 218.597 181.562C217.777 181.562 217.121 181.562 216.628 181.562C213.101 181.562 209.881 180.947 206.969 179.717C204.098 178.486 201.617 176.784 199.525 174.61C197.474 172.396 195.874 169.791 194.726 166.797C193.578 163.762 193.003 160.48 193.003 156.953C193.003 152.113 193.967 147.786 195.895 143.972C197.864 140.116 200.468 136.855 203.708 134.189C206.99 131.482 210.743 129.411 214.967 127.976C219.192 126.54 223.56 125.822 228.072 125.822C230.081 125.822 232.153 125.904 234.286 126.068C236.418 126.191 238.531 126.438 240.622 126.807C242.755 127.176 244.827 127.647 246.836 128.222C248.846 128.796 250.753 129.514 252.558 130.375L250.22 155.354C247.431 154.41 244.498 153.631 241.422 153.016C238.387 152.359 235.414 152.031 232.501 152.031C231.968 152.031 231.271 152.052 230.41 152.093C229.589 152.093 228.707 152.154 227.764 152.277C226.862 152.359 225.939 152.503 224.996 152.708C224.052 152.913 223.211 153.2 222.473 153.569C221.735 153.897 221.14 154.349 220.689 154.923C220.238 155.497 220.033 156.174 220.074 156.953C220.115 157.855 220.443 158.594 221.058 159.168C221.714 159.701 222.535 160.132 223.519 160.46C224.544 160.747 225.652 160.952 226.841 161.075C228.072 161.198 229.282 161.28 230.471 161.321C231.661 161.321 232.768 161.321 233.793 161.321C234.819 161.28 235.66 161.301 236.316 161.383C239.597 161.588 242.55 162.285 245.175 163.475C247.8 164.664 250.015 166.243 251.82 168.212C253.665 170.181 255.06 172.539 256.003 175.287C256.988 177.994 257.48 180.988 257.48 184.27Z" fill="white"/>
<path d="M338.72 173.564C338.72 177.297 338.29 180.906 337.428 184.393C336.567 187.838 335.316 191.078 333.675 194.113C332.076 197.148 330.107 199.938 327.769 202.48C325.472 204.982 322.868 207.136 319.956 208.94C317.085 210.745 313.947 212.16 310.543 213.186C307.138 214.17 303.529 214.662 299.715 214.662C296.023 214.662 292.496 214.19 289.133 213.247C285.81 212.304 282.693 210.991 279.781 209.31C276.869 207.587 274.223 205.536 271.844 203.157C269.507 200.737 267.497 198.071 265.815 195.159C264.174 192.206 262.883 189.048 261.939 185.685C261.037 182.321 260.586 178.814 260.586 175.164C260.586 171.596 261.016 168.109 261.878 164.705C262.739 161.26 263.969 158.02 265.569 154.984C267.21 151.949 269.178 149.16 271.475 146.617C273.772 144.074 276.336 141.88 279.166 140.034C282.037 138.188 285.133 136.753 288.456 135.728C291.778 134.702 295.285 134.189 298.976 134.189C304.924 134.189 310.338 135.112 315.218 136.958C320.14 138.804 324.324 141.449 327.769 144.895C331.256 148.299 333.942 152.441 335.829 157.322C337.757 162.162 338.72 167.576 338.72 173.564ZM311.404 175.164C311.404 173.4 311.137 171.698 310.604 170.058C310.112 168.376 309.374 166.899 308.389 165.628C307.405 164.315 306.174 163.27 304.698 162.49C303.262 161.67 301.601 161.26 299.715 161.26C297.787 161.26 296.064 161.608 294.547 162.306C293.029 163.003 291.716 163.967 290.609 165.197C289.543 166.387 288.722 167.802 288.148 169.442C287.574 171.042 287.287 172.744 287.287 174.549C287.287 176.271 287.533 177.994 288.025 179.717C288.517 181.439 289.256 182.998 290.24 184.393C291.224 185.787 292.434 186.915 293.87 187.776C295.346 188.638 297.049 189.068 298.976 189.068C300.904 189.068 302.627 188.699 304.144 187.961C305.703 187.182 307.015 186.156 308.082 184.885C309.148 183.572 309.968 182.075 310.543 180.394C311.117 178.712 311.404 176.969 311.404 175.164Z" fill="white"/>
<path d="M405.257 130.498L401.811 156.461C400.622 156.133 399.433 155.907 398.243 155.784C397.054 155.661 395.864 155.6 394.675 155.6C391.64 155.6 388.748 156.01 386 156.83C383.252 157.609 380.811 158.819 378.679 160.46C376.587 162.101 374.905 164.151 373.634 166.612C372.403 169.073 371.788 171.965 371.788 175.287C371.788 177.42 372.116 179.266 372.772 180.824C373.47 182.383 374.434 183.675 375.664 184.7C376.894 185.726 378.351 186.484 380.032 186.977C381.714 187.469 383.56 187.715 385.569 187.715C387.087 187.715 388.666 187.551 390.307 187.223C391.947 186.895 393.567 186.464 395.167 185.931C396.767 185.397 398.325 184.782 399.843 184.085C401.36 183.388 402.755 182.67 404.026 181.932L401.565 210.848C399.966 211.668 398.223 212.406 396.336 213.062C394.49 213.678 392.583 214.231 390.614 214.724C388.645 215.175 386.677 215.523 384.708 215.77C382.739 216.016 380.852 216.139 379.048 216.139C373.839 216.139 368.978 215.175 364.467 213.247C359.955 211.319 356.038 208.674 352.716 205.311C349.393 201.947 346.768 197.989 344.841 193.437C342.954 188.843 342.011 183.9 342.011 178.609C342.011 171.596 343.016 164.992 345.025 158.799C347.035 152.564 349.988 147.109 353.885 142.434C357.781 137.758 362.601 134.066 368.343 131.359C374.126 128.652 380.77 127.299 388.276 127.299C391.106 127.299 393.998 127.524 396.951 127.976C399.945 128.427 402.714 129.268 405.257 130.498Z" fill="white"/>
<path d="M443.615 130.375L436.848 214.17L410.885 215.523V132.098L443.615 130.375Z" fill="white"/>
<path d="M525.04 211.709L494.525 215.646L490.833 201.742H476.806L473.73 215.646L442.353 212.57L466.839 130.621L501.046 128.898L525.04 211.709ZM488.619 182.916L483.943 161.506L479.39 182.916H488.619Z" fill="white"/>
<path d="M581.672 181.932L579.088 209.248L527.285 213.309C527.531 198.994 527.798 184.762 528.085 170.611C528.413 156.461 528.802 142.229 529.254 127.914H561.246C560.302 136.896 559.4 145.879 558.539 154.861C557.677 163.803 557.062 172.826 556.693 181.932C558.621 182.014 560.528 182.055 562.415 182.055C564.301 182.055 566.209 182.055 568.136 182.055C570.433 182.055 572.689 182.034 574.904 181.993C577.119 181.952 579.375 181.932 581.672 181.932Z" fill="white"/>
<path d="M648.823 184.27C648.823 189.889 647.839 194.811 645.87 199.035C643.942 203.219 641.276 206.705 637.872 209.494C634.509 212.283 630.551 214.375 625.998 215.77C621.486 217.164 616.626 217.861 611.417 217.861C609.407 217.861 607.192 217.595 604.772 217.062C602.393 216.528 599.974 215.872 597.513 215.093C595.052 214.272 592.673 213.411 590.376 212.509C588.12 211.565 586.11 210.684 584.347 209.863L587.054 184.516C590.54 186.607 594.395 188.207 598.62 189.314C602.886 190.381 607.069 190.914 611.171 190.914C611.95 190.914 612.893 190.894 614.001 190.853C615.108 190.771 616.154 190.586 617.139 190.299C618.164 189.971 619.025 189.499 619.723 188.884C620.42 188.269 620.768 187.387 620.768 186.238C620.768 185.459 620.522 184.803 620.03 184.27C619.538 183.695 618.902 183.244 618.123 182.916C617.344 182.547 616.462 182.28 615.477 182.116C614.493 181.911 613.529 181.768 612.586 181.686C611.643 181.604 610.761 181.562 609.94 181.562C609.12 181.562 608.464 181.562 607.972 181.562C604.444 181.562 601.225 180.947 598.312 179.717C595.441 178.486 592.96 176.784 590.868 174.61C588.817 172.396 587.218 169.791 586.069 166.797C584.921 163.762 584.347 160.48 584.347 156.953C584.347 152.113 585.31 147.786 587.238 143.972C589.207 140.116 591.811 136.855 595.052 134.189C598.333 131.482 602.086 129.411 606.31 127.976C610.535 126.54 614.903 125.822 619.415 125.822C621.425 125.822 623.496 125.904 625.629 126.068C627.762 126.191 629.874 126.438 631.966 126.807C634.099 127.176 636.17 127.647 638.18 128.222C640.189 128.796 642.097 129.514 643.901 130.375L641.563 155.354C638.774 154.41 635.842 153.631 632.766 153.016C629.73 152.359 626.757 152.031 623.845 152.031C623.311 152.031 622.614 152.052 621.753 152.093C620.933 152.093 620.051 152.154 619.107 152.277C618.205 152.359 617.282 152.503 616.339 152.708C615.395 152.913 614.555 153.2 613.816 153.569C613.078 153.897 612.483 154.349 612.032 154.923C611.581 155.497 611.376 156.174 611.417 156.953C611.458 157.855 611.786 158.594 612.401 159.168C613.058 159.701 613.878 160.132 614.862 160.46C615.888 160.747 616.995 160.952 618.185 161.075C619.415 161.198 620.625 161.28 621.814 161.321C623.004 161.321 624.111 161.321 625.137 161.321C626.162 161.28 627.003 161.301 627.659 161.383C630.94 161.588 633.893 162.285 636.518 163.475C639.143 164.664 641.358 166.243 643.163 168.212C645.009 170.181 646.403 172.539 647.347 175.287C648.331 177.994 648.823 180.988 648.823 184.27Z" fill="white"/>
<path d="M684.167 125.576L679.122 190.299H656.359L654.021 125.576H684.167ZM680.107 209.248C680.107 211.053 679.758 212.734 679.061 214.293C678.363 215.852 677.42 217.205 676.231 218.354C675.082 219.543 673.729 220.466 672.17 221.122C670.612 221.819 668.95 222.168 667.187 222.168C665.382 222.168 663.7 221.819 662.142 221.122C660.583 220.466 659.209 219.543 658.02 218.354C656.871 217.205 655.948 215.852 655.251 214.293C654.595 212.734 654.267 211.053 654.267 209.248C654.267 207.484 654.595 205.803 655.251 204.203C655.948 202.604 656.871 201.229 658.02 200.081C659.209 198.892 660.583 197.948 662.142 197.251C663.7 196.554 665.382 196.205 667.187 196.205C668.95 196.205 670.612 196.554 672.17 197.251C673.729 197.948 675.082 198.892 676.231 200.081C677.42 201.229 678.363 202.604 679.061 204.203C679.758 205.803 680.107 207.484 680.107 209.248Z" fill="white"/>
<path d="M179.239 57.3047C179.239 59.7246 179.239 62.124 179.239 64.5029C179.239 66.8818 179.116 69.2812 178.87 71.7012C178.419 76.8281 177.312 81.6885 175.548 86.2822C173.784 90.835 171.385 94.834 168.35 98.2793C165.356 101.725 161.705 104.452 157.398 106.462C153.092 108.472 148.149 109.477 142.571 109.477C140.398 109.477 138.121 109.292 135.742 108.923C133.404 108.554 131.066 108 128.729 107.262C126.432 106.523 124.217 105.621 122.084 104.555C119.992 103.447 118.126 102.176 116.485 100.74L120.3 75.2695C122.72 77.6074 125.406 79.5146 128.359 80.9912C131.313 82.4268 134.532 83.1445 138.019 83.1445C140.274 83.1445 142.182 82.8164 143.74 82.1602C145.299 81.5039 146.591 80.6016 147.616 79.4531C148.642 78.3047 149.441 76.9717 150.016 75.4541C150.631 73.8955 151.062 72.2549 151.308 70.5322C151.595 68.7686 151.759 66.9639 151.8 65.1182C151.882 63.2725 151.923 61.4473 151.923 59.6426C151.923 53.1211 151.595 46.6406 150.939 40.2012C150.282 33.7207 149.708 27.2402 149.216 20.7598L177.394 18.9141C178.624 31.7109 179.239 44.5078 179.239 57.3047Z" stroke="black" stroke-width="32" mask="url(#path-1-outside-1_2033_11)"/>
<path d="M262.018 64.5645C262.018 68.2969 261.587 71.9062 260.726 75.3926C259.865 78.8379 258.614 82.0781 256.973 85.1133C255.373 88.1484 253.405 90.9375 251.067 93.4805C248.77 95.9824 246.165 98.1357 243.253 99.9404C240.382 101.745 237.244 103.16 233.84 104.186C230.436 105.17 226.826 105.662 223.012 105.662C219.321 105.662 215.793 105.19 212.43 104.247C209.108 103.304 205.991 101.991 203.078 100.31C200.166 98.5869 197.521 96.5361 195.142 94.1572C192.804 91.7373 190.794 89.0713 189.113 86.1592C187.472 83.2061 186.18 80.0479 185.237 76.6846C184.334 73.3213 183.883 69.8145 183.883 66.1641C183.883 62.5957 184.314 59.1094 185.175 55.7051C186.036 52.2598 187.267 49.0195 188.867 45.9844C190.507 42.9492 192.476 40.1602 194.773 37.6172C197.07 35.0742 199.633 32.8799 202.463 31.0342C205.334 29.1885 208.431 27.7529 211.753 26.7275C215.076 25.7021 218.582 25.1895 222.274 25.1895C228.221 25.1895 233.635 26.1123 238.516 27.958C243.438 29.8037 247.621 32.4492 251.067 35.8945C254.553 39.2988 257.24 43.4414 259.126 48.3223C261.054 53.1621 262.018 58.5762 262.018 64.5645ZM234.701 66.1641C234.701 64.4004 234.435 62.6982 233.902 61.0576C233.409 59.376 232.671 57.8994 231.687 56.6279C230.702 55.3154 229.472 54.2695 227.995 53.4902C226.56 52.6699 224.899 52.2598 223.012 52.2598C221.084 52.2598 219.362 52.6084 217.844 53.3057C216.326 54.0029 215.014 54.9668 213.907 56.1973C212.84 57.3867 212.02 58.8018 211.446 60.4424C210.871 62.042 210.584 63.7441 210.584 65.5488C210.584 67.2715 210.83 68.9941 211.323 70.7168C211.815 72.4395 212.553 73.998 213.537 75.3926C214.522 76.7871 215.732 77.915 217.167 78.7764C218.644 79.6377 220.346 80.0684 222.274 80.0684C224.201 80.0684 225.924 79.6992 227.442 78.9609C229 78.1816 230.313 77.1562 231.379 75.8848C232.446 74.5723 233.266 73.0752 233.84 71.3936C234.414 69.7119 234.701 67.9688 234.701 66.1641Z" stroke="black" stroke-width="32" mask="url(#path-1-outside-1_2033_11)"/>
<path d="M300.807 21.375L294.04 105.17L268.077 106.523V23.0977L300.807 21.375Z" stroke="black" stroke-width="32" mask="url(#path-1-outside-1_2033_11)"/>
<path d="M390.046 19.7754L385.616 103.201L353.378 106.154L336.151 61.4883L333.444 107.016H305.759L307.973 19.7754L338.735 18.2988L360.022 62.5957L361.007 20.7598L390.046 19.7754Z" stroke="black" stroke-width="32" mask="url(#path-1-outside-1_2033_11)"/>
<path d="M495.802 39.5859C495.802 42.6211 495.658 45.9639 495.371 49.6143C495.084 53.2646 494.613 57.0381 493.956 60.9346C493.3 64.8311 492.439 68.7891 491.372 72.8086C490.347 76.7871 489.055 80.6221 487.496 84.3135C485.938 88.0049 484.113 91.4707 482.021 94.7109C479.97 97.9102 477.591 100.72 474.884 103.14C472.218 105.519 469.224 107.385 465.902 108.738C462.579 110.133 458.888 110.83 454.827 110.83C450.07 110.83 445.927 110.051 442.4 108.492C438.913 106.975 435.919 104.924 433.417 102.34C430.915 99.7148 428.865 96.6797 427.265 93.2344C425.665 89.748 424.414 86.0771 423.512 82.2217C422.61 78.3252 421.974 74.3672 421.605 70.3477C421.277 66.2871 421.113 62.3906 421.113 58.6582C421.113 52.916 421.4 47.1943 421.974 41.4932C422.548 35.751 423.368 30.0293 424.435 24.3281L453.228 25.4355C452.12 31.875 451.156 38.3555 450.336 44.877C449.557 51.3574 449.167 57.8789 449.167 64.4414C449.167 65.1387 449.188 66.1846 449.229 67.5791C449.311 68.9326 449.434 70.4707 449.598 72.1934C449.762 73.875 449.988 75.6182 450.275 77.4229C450.603 79.1865 451.033 80.8066 451.567 82.2832C452.1 83.7598 452.736 84.9697 453.474 85.9131C454.253 86.8564 455.156 87.3281 456.181 87.3281C457.37 87.3281 458.437 86.7744 459.38 85.667C460.323 84.5186 461.144 83.001 461.841 81.1143C462.579 79.2275 463.215 77.0537 463.748 74.5928C464.281 72.1318 464.733 69.5684 465.102 66.9023C465.471 64.2363 465.758 61.5703 465.963 58.9043C466.209 56.2383 466.394 53.7568 466.517 51.46C466.681 49.1631 466.783 47.1328 466.824 45.3691C466.865 43.6055 466.886 42.293 466.886 41.4316C466.886 38.2324 466.824 35.0537 466.701 31.8955C466.619 28.6963 466.476 25.5176 466.271 22.3594H495.064C495.556 28.0195 495.802 33.7617 495.802 39.5859Z" stroke="black" stroke-width="32" mask="url(#path-1-outside-1_2033_11)"/>
<path d="M564.984 75.2695C564.984 80.8887 564 85.8105 562.031 90.0352C560.103 94.2188 557.437 97.7051 554.033 100.494C550.669 103.283 546.711 105.375 542.159 106.77C537.647 108.164 532.787 108.861 527.578 108.861C525.568 108.861 523.353 108.595 520.933 108.062C518.554 107.528 516.134 106.872 513.673 106.093C511.212 105.272 508.833 104.411 506.537 103.509C504.281 102.565 502.271 101.684 500.507 100.863L503.214 75.5156C506.701 77.6074 510.556 79.207 514.781 80.3145C519.046 81.3809 523.23 81.9141 527.332 81.9141C528.111 81.9141 529.054 81.8936 530.162 81.8525C531.269 81.7705 532.315 81.5859 533.299 81.2988C534.325 80.9707 535.186 80.499 535.883 79.8838C536.581 79.2686 536.929 78.3867 536.929 77.2383C536.929 76.459 536.683 75.8027 536.191 75.2695C535.699 74.6953 535.063 74.2441 534.284 73.916C533.504 73.5469 532.623 73.2803 531.638 73.1162C530.654 72.9111 529.69 72.7676 528.747 72.6855C527.803 72.6035 526.921 72.5625 526.101 72.5625C525.281 72.5625 524.625 72.5625 524.132 72.5625C520.605 72.5625 517.385 71.9473 514.473 70.7168C511.602 69.4863 509.121 67.7842 507.029 65.6104C504.978 63.3955 503.378 60.791 502.23 57.7969C501.082 54.7617 500.507 51.4805 500.507 47.9531C500.507 43.1133 501.471 38.7861 503.399 34.9717C505.368 31.1162 507.972 27.8555 511.212 25.1895C514.494 22.4824 518.247 20.4111 522.471 18.9756C526.696 17.54 531.064 16.8223 535.576 16.8223C537.585 16.8223 539.657 16.9043 541.79 17.0684C543.922 17.1914 546.035 17.4375 548.126 17.8066C550.259 18.1758 552.331 18.6475 554.34 19.2217C556.35 19.7959 558.257 20.5137 560.062 21.375L557.724 46.3535C554.935 45.4102 552.002 44.6309 548.926 44.0156C545.891 43.3594 542.917 43.0312 540.005 43.0312C539.472 43.0312 538.775 43.0518 537.914 43.0928C537.093 43.0928 536.211 43.1543 535.268 43.2773C534.366 43.3594 533.443 43.5029 532.5 43.708C531.556 43.9131 530.715 44.2002 529.977 44.5693C529.239 44.8975 528.644 45.3486 528.193 45.9229C527.742 46.4971 527.537 47.1738 527.578 47.9531C527.619 48.8555 527.947 49.5938 528.562 50.168C529.218 50.7012 530.039 51.1318 531.023 51.46C532.048 51.7471 533.156 51.9521 534.345 52.0752C535.576 52.1982 536.786 52.2803 537.975 52.3213C539.165 52.3213 540.272 52.3213 541.297 52.3213C542.323 52.2803 543.164 52.3008 543.82 52.3828C547.101 52.5879 550.054 53.2852 552.679 54.4746C555.304 55.6641 557.519 57.2432 559.324 59.2119C561.169 61.1807 562.564 63.5391 563.507 66.2871C564.492 68.9941 564.984 71.9883 564.984 75.2695Z" stroke="black" stroke-width="32" mask="url(#path-1-outside-1_2033_11)"/>
<path d="M103.644 211.709L73.1287 215.646L69.4373 201.742H55.4099L52.3337 215.646L20.9568 212.57L45.4431 130.621L79.6501 128.898L103.644 211.709ZM67.2224 182.916L62.5466 161.506L57.9939 182.916H67.2224Z" stroke="black" stroke-width="32" mask="url(#path-1-outside-1_2033_11)"/>
<path d="M163.967 129.021L163.352 155.107L145.018 155.846L140.342 214.17L114.379 215.523L114.502 157.199L96.168 158.184L96.9062 129.145L163.967 129.021Z" stroke="black" stroke-width="32" mask="url(#path-1-outside-1_2033_11)"/>
<path d="M257.48 184.27C257.48 189.889 256.496 194.811 254.527 199.035C252.599 203.219 249.933 206.705 246.529 209.494C243.165 212.283 239.207 214.375 234.655 215.77C230.143 217.164 225.283 217.861 220.074 217.861C218.064 217.861 215.849 217.595 213.429 217.062C211.05 216.528 208.63 215.872 206.169 215.093C203.708 214.272 201.33 213.411 199.033 212.509C196.777 211.565 194.767 210.684 193.003 209.863L195.71 184.516C199.197 186.607 203.052 188.207 207.277 189.314C211.542 190.381 215.726 190.914 219.828 190.914C220.607 190.914 221.55 190.894 222.658 190.853C223.765 190.771 224.811 190.586 225.795 190.299C226.821 189.971 227.682 189.499 228.379 188.884C229.077 188.269 229.425 187.387 229.425 186.238C229.425 185.459 229.179 184.803 228.687 184.27C228.195 183.695 227.559 183.244 226.78 182.916C226 182.547 225.119 182.28 224.134 182.116C223.15 181.911 222.186 181.768 221.243 181.686C220.299 181.604 219.417 181.562 218.597 181.562C217.777 181.562 217.121 181.562 216.628 181.562C213.101 181.562 209.881 180.947 206.969 179.717C204.098 178.486 201.617 176.784 199.525 174.61C197.474 172.396 195.874 169.791 194.726 166.797C193.578 163.762 193.003 160.48 193.003 156.953C193.003 152.113 193.967 147.786 195.895 143.972C197.864 140.116 200.468 136.855 203.708 134.189C206.99 131.482 210.743 129.411 214.967 127.976C219.192 126.54 223.56 125.822 228.072 125.822C230.081 125.822 232.153 125.904 234.286 126.068C236.418 126.191 238.531 126.438 240.622 126.807C242.755 127.176 244.827 127.647 246.836 128.222C248.846 128.796 250.753 129.514 252.558 130.375L250.22 155.354C247.431 154.41 244.498 153.631 241.422 153.016C238.387 152.359 235.414 152.031 232.501 152.031C231.968 152.031 231.271 152.052 230.41 152.093C229.589 152.093 228.707 152.154 227.764 152.277C226.862 152.359 225.939 152.503 224.996 152.708C224.052 152.913 223.211 153.2 222.473 153.569C221.735 153.897 221.14 154.349 220.689 154.923C220.238 155.497 220.033 156.174 220.074 156.953C220.115 157.855 220.443 158.594 221.058 159.168C221.714 159.701 222.535 160.132 223.519 160.46C224.544 160.747 225.652 160.952 226.841 161.075C228.072 161.198 229.282 161.28 230.471 161.321C231.661 161.321 232.768 161.321 233.793 161.321C234.819 161.28 235.66 161.301 236.316 161.383C239.597 161.588 242.55 162.285 245.175 163.475C247.8 164.664 250.015 166.243 251.82 168.212C253.665 170.181 255.06 172.539 256.003 175.287C256.988 177.994 257.48 180.988 257.48 184.27Z" stroke="black" stroke-width="32" mask="url(#path-1-outside-1_2033_11)"/>
<path d="M338.72 173.564C338.72 177.297 338.29 180.906 337.428 184.393C336.567 187.838 335.316 191.078 333.675 194.113C332.076 197.148 330.107 199.938 327.769 202.48C325.472 204.982 322.868 207.136 319.956 208.94C317.085 210.745 313.947 212.16 310.543 213.186C307.138 214.17 303.529 214.662 299.715 214.662C296.023 214.662 292.496 214.19 289.133 213.247C285.81 212.304 282.693 210.991 279.781 209.31C276.869 207.587 274.223 205.536 271.844 203.157C269.507 200.737 267.497 198.071 265.815 195.159C264.174 192.206 262.883 189.048 261.939 185.685C261.037 182.321 260.586 178.814 260.586 175.164C260.586 171.596 261.016 168.109 261.878 164.705C262.739 161.26 263.969 158.02 265.569 154.984C267.21 151.949 269.178 149.16 271.475 146.617C273.772 144.074 276.336 141.88 279.166 140.034C282.037 138.188 285.133 136.753 288.456 135.728C291.778 134.702 295.285 134.189 298.976 134.189C304.924 134.189 310.338 135.112 315.218 136.958C320.14 138.804 324.324 141.449 327.769 144.895C331.256 148.299 333.942 152.441 335.829 157.322C337.757 162.162 338.72 167.576 338.72 173.564ZM311.404 175.164C311.404 173.4 311.137 171.698 310.604 170.058C310.112 168.376 309.374 166.899 308.389 165.628C307.405 164.315 306.174 163.27 304.698 162.49C303.262 161.67 301.601 161.26 299.715 161.26C297.787 161.26 296.064 161.608 294.547 162.306C293.029 163.003 291.716 163.967 290.609 165.197C289.543 166.387 288.722 167.802 288.148 169.442C287.574 171.042 287.287 172.744 287.287 174.549C287.287 176.271 287.533 177.994 288.025 179.717C288.517 181.439 289.256 182.998 290.24 184.393C291.224 185.787 292.434 186.915 293.87 187.776C295.346 188.638 297.049 189.068 298.976 189.068C300.904 189.068 302.627 188.699 304.144 187.961C305.703 187.182 307.015 186.156 308.082 184.885C309.148 183.572 309.968 182.075 310.543 180.394C311.117 178.712 311.404 176.969 311.404 175.164Z" stroke="black" stroke-width="32" mask="url(#path-1-outside-1_2033_11)"/>
<path d="M405.257 130.498L401.811 156.461C400.622 156.133 399.433 155.907 398.243 155.784C397.054 155.661 395.864 155.6 394.675 155.6C391.64 155.6 388.748 156.01 386 156.83C383.252 157.609 380.811 158.819 378.679 160.46C376.587 162.101 374.905 164.151 373.634 166.612C372.403 169.073 371.788 171.965 371.788 175.287C371.788 177.42 372.116 179.266 372.772 180.824C373.47 182.383 374.434 183.675 375.664 184.7C376.894 185.726 378.351 186.484 380.032 186.977C381.714 187.469 383.56 187.715 385.569 187.715C387.087 187.715 388.666 187.551 390.307 187.223C391.947 186.895 393.567 186.464 395.167 185.931C396.767 185.397 398.325 184.782 399.843 184.085C401.36 183.388 402.755 182.67 404.026 181.932L401.565 210.848C399.966 211.668 398.223 212.406 396.336 213.062C394.49 213.678 392.583 214.231 390.614 214.724C388.645 215.175 386.677 215.523 384.708 215.77C382.739 216.016 380.852 216.139 379.048 216.139C373.839 216.139 368.978 215.175 364.467 213.247C359.955 211.319 356.038 208.674 352.716 205.311C349.393 201.947 346.768 197.989 344.841 193.437C342.954 188.843 342.011 183.9 342.011 178.609C342.011 171.596 343.016 164.992 345.025 158.799C347.035 152.564 349.988 147.109 353.885 142.434C357.781 137.758 362.601 134.066 368.343 131.359C374.126 128.652 380.77 127.299 388.276 127.299C391.106 127.299 393.998 127.524 396.951 127.976C399.945 128.427 402.714 129.268 405.257 130.498Z" stroke="black" stroke-width="32" mask="url(#path-1-outside-1_2033_11)"/>
<path d="M443.615 130.375L436.848 214.17L410.885 215.523V132.098L443.615 130.375Z" stroke="black" stroke-width="32" mask="url(#path-1-outside-1_2033_11)"/>
<path d="M525.04 211.709L494.525 215.646L490.833 201.742H476.806L473.73 215.646L442.353 212.57L466.839 130.621L501.046 128.898L525.04 211.709ZM488.619 182.916L483.943 161.506L479.39 182.916H488.619Z" stroke="black" stroke-width="32" mask="url(#path-1-outside-1_2033_11)"/>
<path d="M581.672 181.932L579.088 209.248L527.285 213.309C527.531 198.994 527.798 184.762 528.085 170.611C528.413 156.461 528.802 142.229 529.254 127.914H561.246C560.302 136.896 559.4 145.879 558.539 154.861C557.677 163.803 557.062 172.826 556.693 181.932C558.621 182.014 560.528 182.055 562.415 182.055C564.301 182.055 566.209 182.055 568.136 182.055C570.433 182.055 572.689 182.034 574.904 181.993C577.119 181.952 579.375 181.932 581.672 181.932Z" stroke="black" stroke-width="32" mask="url(#path-1-outside-1_2033_11)"/>
<path d="M648.823 184.27C648.823 189.889 647.839 194.811 645.87 199.035C643.942 203.219 641.276 206.705 637.872 209.494C634.509 212.283 630.551 214.375 625.998 215.77C621.486 217.164 616.626 217.861 611.417 217.861C609.407 217.861 607.192 217.595 604.772 217.062C602.393 216.528 599.974 215.872 597.513 215.093C595.052 214.272 592.673 213.411 590.376 212.509C588.12 211.565 586.11 210.684 584.347 209.863L587.054 184.516C590.54 186.607 594.395 188.207 598.62 189.314C602.886 190.381 607.069 190.914 611.171 190.914C611.95 190.914 612.893 190.894 614.001 190.853C615.108 190.771 616.154 190.586 617.139 190.299C618.164 189.971 619.025 189.499 619.723 188.884C620.42 188.269 620.768 187.387 620.768 186.238C620.768 185.459 620.522 184.803 620.03 184.27C619.538 183.695 618.902 183.244 618.123 182.916C617.344 182.547 616.462 182.28 615.477 182.116C614.493 181.911 613.529 181.768 612.586 181.686C611.643 181.604 610.761 181.562 609.94 181.562C609.12 181.562 608.464 181.562 607.972 181.562C604.444 181.562 601.225 180.947 598.312 179.717C595.441 178.486 592.96 176.784 590.868 174.61C588.817 172.396 587.218 169.791 586.069 166.797C584.921 163.762 584.347 160.48 584.347 156.953C584.347 152.113 585.31 147.786 587.238 143.972C589.207 140.116 591.811 136.855 595.052 134.189C598.333 131.482 602.086 129.411 606.31 127.976C610.535 126.54 614.903 125.822 619.415 125.822C621.425 125.822 623.496 125.904 625.629 126.068C627.762 126.191 629.874 126.438 631.966 126.807C634.099 127.176 636.17 127.647 638.18 128.222C640.189 128.796 642.097 129.514 643.901 130.375L641.563 155.354C638.774 154.41 635.842 153.631 632.766 153.016C629.73 152.359 626.757 152.031 623.845 152.031C623.311 152.031 622.614 152.052 621.753 152.093C620.933 152.093 620.051 152.154 619.107 152.277C618.205 152.359 617.282 152.503 616.339 152.708C615.395 152.913 614.555 153.2 613.816 153.569C613.078 153.897 612.483 154.349 612.032 154.923C611.581 155.497 611.376 156.174 611.417 156.953C611.458 157.855 611.786 158.594 612.401 159.168C613.058 159.701 613.878 160.132 614.862 160.46C615.888 160.747 616.995 160.952 618.185 161.075C619.415 161.198 620.625 161.28 621.814 161.321C623.004 161.321 624.111 161.321 625.137 161.321C626.162 161.28 627.003 161.301 627.659 161.383C630.94 161.588 633.893 162.285 636.518 163.475C639.143 164.664 641.358 166.243 643.163 168.212C645.009 170.181 646.403 172.539 647.347 175.287C648.331 177.994 648.823 180.988 648.823 184.27Z" stroke="black" stroke-width="32" mask="url(#path-1-outside-1_2033_11)"/>
<path d="M684.167 125.576L679.122 190.299H656.359L654.021 125.576H684.167ZM680.107 209.248C680.107 211.053 679.758 212.734 679.061 214.293C678.363 215.852 677.42 217.205 676.231 218.354C675.082 219.543 673.729 220.466 672.17 221.122C670.612 221.819 668.95 222.168 667.187 222.168C665.382 222.168 663.7 221.819 662.142 221.122C660.583 220.466 659.209 219.543 658.02 218.354C656.871 217.205 655.948 215.852 655.251 214.293C654.595 212.734 654.267 211.053 654.267 209.248C654.267 207.484 654.595 205.803 655.251 204.203C655.948 202.604 656.871 201.229 658.02 200.081C659.209 198.892 660.583 197.948 662.142 197.251C663.7 196.554 665.382 196.205 667.187 196.205C668.95 196.205 670.612 196.554 672.17 197.251C673.729 197.948 675.082 198.892 676.231 200.081C677.42 201.229 678.363 202.604 679.061 204.203C679.758 205.803 680.107 207.484 680.107 209.248Z" stroke="black" stroke-width="32" mask="url(#path-1-outside-1_2033_11)"/>
</svg>
