<svg width="1173" height="130" viewBox="0 0 1173 130" fill="none" xmlns="http://www.w3.org/2000/svg">
<mask id="path-1-outside-1_2033_10" maskUnits="userSpaceOnUse" x="-0.718994" y="0.576172" width="1173" height="129" fill="black">
<rect fill="white" x="-0.718994" y="0.576172" width="1173" height="129"/>
<path d="M80.0349 57.3047C80.0349 59.7246 80.0349 62.124 80.0349 64.5029C80.0349 66.8818 79.9119 69.2812 79.6658 71.7012C79.2146 76.8281 78.1072 81.6885 76.3435 86.2822C74.5798 90.835 72.1804 94.834 69.1453 98.2793C66.1511 101.725 62.5007 104.452 58.1941 106.462C53.8875 108.472 48.9451 109.477 43.3669 109.477C41.1931 109.477 38.9167 109.292 36.5378 108.923C34.2 108.554 31.8621 108 29.5242 107.262C27.2273 106.523 25.0125 105.621 22.8796 104.555C20.7878 103.447 18.9216 102.176 17.281 100.74L21.0955 75.2695C23.5154 77.6074 26.2019 79.5146 29.155 80.9912C32.1082 82.4268 35.3279 83.1445 38.8142 83.1445C41.0701 83.1445 42.9773 82.8164 44.5359 82.1602C46.0945 81.5039 47.3865 80.6016 48.4119 79.4531C49.4373 78.3047 50.2371 76.9717 50.8113 75.4541C51.4265 73.8955 51.8572 72.2549 52.1033 70.5322C52.3904 68.7686 52.5544 66.9639 52.5955 65.1182C52.6775 63.2725 52.7185 61.4473 52.7185 59.6426C52.7185 53.1211 52.3904 46.6406 51.7341 40.2012C51.0779 33.7207 50.5037 27.2402 50.0115 20.7598L78.1892 18.9141C79.4197 31.7109 80.0349 44.5078 80.0349 57.3047Z"/>
<path d="M162.813 64.5645C162.813 68.2969 162.383 71.9062 161.521 75.3926C160.66 78.8379 159.409 82.0781 157.769 85.1133C156.169 88.1484 154.2 90.9375 151.862 93.4805C149.565 95.9824 146.961 98.1357 144.049 99.9404C141.178 101.745 138.04 103.16 134.636 104.186C131.231 105.17 127.622 105.662 123.808 105.662C120.116 105.662 116.589 105.19 113.226 104.247C109.903 103.304 106.786 101.991 103.874 100.31C100.962 98.5869 98.3164 96.5361 95.9375 94.1572C93.5996 91.7373 91.5898 89.0713 89.9082 86.1592C88.2676 83.2061 86.9756 80.0479 86.0322 76.6846C85.1299 73.3213 84.6787 69.8145 84.6787 66.1641C84.6787 62.5957 85.1094 59.1094 85.9707 55.7051C86.832 52.2598 88.0625 49.0195 89.6621 45.9844C91.3027 42.9492 93.2715 40.1602 95.5684 37.6172C97.8652 35.0742 100.429 32.8799 103.259 31.0342C106.13 29.1885 109.227 27.7529 112.549 26.7275C115.871 25.7021 119.378 25.1895 123.069 25.1895C129.017 25.1895 134.431 26.1123 139.312 27.958C144.233 29.8037 148.417 32.4492 151.862 35.8945C155.349 39.2988 158.035 43.4414 159.922 48.3223C161.85 53.1621 162.813 58.5762 162.813 64.5645ZM135.497 66.1641C135.497 64.4004 135.23 62.6982 134.697 61.0576C134.205 59.376 133.467 57.8994 132.482 56.6279C131.498 55.3154 130.268 54.2695 128.791 53.4902C127.355 52.6699 125.694 52.2598 123.808 52.2598C121.88 52.2598 120.157 52.6084 118.64 53.3057C117.122 54.0029 115.81 54.9668 114.702 56.1973C113.636 57.3867 112.815 58.8018 112.241 60.4424C111.667 62.042 111.38 63.7441 111.38 65.5488C111.38 67.2715 111.626 68.9941 112.118 70.7168C112.61 72.4395 113.349 73.998 114.333 75.3926C115.317 76.7871 116.527 77.915 117.963 78.7764C119.439 79.6377 121.142 80.0684 123.069 80.0684C124.997 80.0684 126.72 79.6992 128.237 78.9609C129.796 78.1816 131.108 77.1562 132.175 75.8848C133.241 74.5723 134.062 73.0752 134.636 71.3936C135.21 69.7119 135.497 67.9688 135.497 66.1641Z"/>
<path d="M201.603 21.375L194.835 105.17L168.872 106.523V23.0977L201.603 21.375Z"/>
<path d="M290.841 19.7754L286.412 103.201L254.173 106.154L236.947 61.4883L234.24 107.016H206.554L208.769 19.7754L239.531 18.2988L260.818 62.5957L261.802 20.7598L290.841 19.7754Z"/>
<path d="M396.598 39.5859C396.598 42.6211 396.454 45.9639 396.167 49.6143C395.88 53.2646 395.408 57.0381 394.752 60.9346C394.096 64.8311 393.234 68.7891 392.168 72.8086C391.143 76.7871 389.851 80.6221 388.292 84.3135C386.733 88.0049 384.908 91.4707 382.816 94.7109C380.766 97.9102 378.387 100.72 375.68 103.14C373.014 105.519 370.019 107.385 366.697 108.738C363.375 110.133 359.684 110.83 355.623 110.83C350.865 110.83 346.723 110.051 343.195 108.492C339.709 106.975 336.715 104.924 334.213 102.34C331.711 99.7148 329.66 96.6797 328.06 93.2344C326.461 89.748 325.21 86.0771 324.308 82.2217C323.405 78.3252 322.769 74.3672 322.4 70.3477C322.072 66.2871 321.908 62.3906 321.908 58.6582C321.908 52.916 322.195 47.1943 322.769 41.4932C323.344 35.751 324.164 30.0293 325.23 24.3281L354.023 25.4355C352.916 31.875 351.952 38.3555 351.132 44.877C350.352 51.3574 349.963 57.8789 349.963 64.4414C349.963 65.1387 349.983 66.1846 350.024 67.5791C350.106 68.9326 350.229 70.4707 350.393 72.1934C350.558 73.875 350.783 75.6182 351.07 77.4229C351.398 79.1865 351.829 80.8066 352.362 82.2832C352.895 83.7598 353.531 84.9697 354.269 85.9131C355.049 86.8564 355.951 87.3281 356.977 87.3281C358.166 87.3281 359.232 86.7744 360.176 85.667C361.119 84.5186 361.939 83.001 362.637 81.1143C363.375 79.2275 364.011 77.0537 364.544 74.5928C365.077 72.1318 365.528 69.5684 365.897 66.9023C366.267 64.2363 366.554 61.5703 366.759 58.9043C367.005 56.2383 367.189 53.7568 367.312 51.46C367.477 49.1631 367.579 47.1328 367.62 45.3691C367.661 43.6055 367.682 42.293 367.682 41.4316C367.682 38.2324 367.62 35.0537 367.497 31.8955C367.415 28.6963 367.271 25.5176 367.066 22.3594H395.859C396.352 28.0195 396.598 33.7617 396.598 39.5859Z"/>
<path d="M465.779 75.2695C465.779 80.8887 464.795 85.8105 462.826 90.0352C460.899 94.2188 458.233 97.7051 454.828 100.494C451.465 103.283 447.507 105.375 442.954 106.77C438.443 108.164 433.582 108.861 428.373 108.861C426.363 108.861 424.149 108.595 421.729 108.062C419.35 107.528 416.93 106.872 414.469 106.093C412.008 105.272 409.629 104.411 407.332 103.509C405.076 102.565 403.067 101.684 401.303 100.863L404.01 75.5156C407.496 77.6074 411.352 79.207 415.576 80.3145C419.842 81.3809 424.026 81.9141 428.127 81.9141C428.906 81.9141 429.85 81.8936 430.957 81.8525C432.065 81.7705 433.111 81.5859 434.095 81.2988C435.12 80.9707 435.982 80.499 436.679 79.8838C437.376 79.2686 437.725 78.3867 437.725 77.2383C437.725 76.459 437.479 75.8027 436.987 75.2695C436.494 74.6953 435.859 74.2441 435.079 73.916C434.3 73.5469 433.418 73.2803 432.434 73.1162C431.449 72.9111 430.486 72.7676 429.542 72.6855C428.599 72.6035 427.717 72.5625 426.897 72.5625C426.076 72.5625 425.42 72.5625 424.928 72.5625C421.401 72.5625 418.181 71.9473 415.269 70.7168C412.398 69.4863 409.916 67.7842 407.824 65.6104C405.774 63.3955 404.174 60.791 403.026 57.7969C401.877 54.7617 401.303 51.4805 401.303 47.9531C401.303 43.1133 402.267 38.7861 404.195 34.9717C406.163 31.1162 408.768 27.8555 412.008 25.1895C415.289 22.4824 419.042 20.4111 423.267 18.9756C427.491 17.54 431.86 16.8223 436.371 16.8223C438.381 16.8223 440.452 16.9043 442.585 17.0684C444.718 17.1914 446.83 17.4375 448.922 17.8066C451.055 18.1758 453.126 18.6475 455.136 19.2217C457.146 19.7959 459.053 20.5137 460.858 21.375L458.52 46.3535C455.731 45.4102 452.798 44.6309 449.722 44.0156C446.687 43.3594 443.713 43.0312 440.801 43.0312C440.268 43.0312 439.57 43.0518 438.709 43.0928C437.889 43.0928 437.007 43.1543 436.064 43.2773C435.161 43.3594 434.238 43.5029 433.295 43.708C432.352 43.9131 431.511 44.2002 430.773 44.5693C430.034 44.8975 429.44 45.3486 428.988 45.9229C428.537 46.4971 428.332 47.1738 428.373 47.9531C428.414 48.8555 428.742 49.5938 429.358 50.168C430.014 50.7012 430.834 51.1318 431.819 51.46C432.844 51.7471 433.951 51.9521 435.141 52.0752C436.371 52.1982 437.581 52.2803 438.771 52.3213C439.96 52.3213 441.068 52.3213 442.093 52.3213C443.118 52.2803 443.959 52.3008 444.615 52.3828C447.897 52.5879 450.85 53.2852 453.475 54.4746C456.1 55.6641 458.315 57.2432 460.119 59.2119C461.965 61.1807 463.36 63.5391 464.303 66.2871C465.287 68.9941 465.779 71.9883 465.779 75.2695Z"/>
<path d="M574.427 102.709L543.912 106.646L540.22 92.7422H526.193L523.117 106.646L491.74 103.57L516.226 21.6211L550.433 19.8984L574.427 102.709ZM538.006 73.916L533.33 52.5059L528.777 73.916H538.006Z"/>
<path d="M634.75 20.0215L634.135 46.1074L615.801 46.8457L611.125 105.17L585.162 106.523L585.285 48.1992L566.951 49.1836L567.689 20.1445L634.75 20.0215Z"/>
<path d="M728.263 75.2695C728.263 80.8887 727.279 85.8105 725.31 90.0352C723.382 94.2188 720.716 97.7051 717.312 100.494C713.949 103.283 709.991 105.375 705.438 106.77C700.926 108.164 696.066 108.861 690.857 108.861C688.847 108.861 686.632 108.595 684.212 108.062C681.833 107.528 679.413 106.872 676.953 106.093C674.492 105.272 672.113 104.411 669.816 103.509C667.56 102.565 665.55 101.684 663.786 100.863L666.494 75.5156C669.98 77.6074 673.835 79.207 678.06 80.3145C682.326 81.3809 686.509 81.9141 690.611 81.9141C691.39 81.9141 692.333 81.8936 693.441 81.8525C694.548 81.7705 695.594 81.5859 696.578 81.2988C697.604 80.9707 698.465 80.499 699.162 79.8838C699.86 79.2686 700.208 78.3867 700.208 77.2383C700.208 76.459 699.962 75.8027 699.47 75.2695C698.978 74.6953 698.342 74.2441 697.563 73.916C696.784 73.5469 695.902 73.2803 694.917 73.1162C693.933 72.9111 692.969 72.7676 692.026 72.6855C691.082 72.6035 690.201 72.5625 689.38 72.5625C688.56 72.5625 687.904 72.5625 687.411 72.5625C683.884 72.5625 680.664 71.9473 677.752 70.7168C674.881 69.4863 672.4 67.7842 670.308 65.6104C668.257 63.3955 666.658 60.791 665.509 57.7969C664.361 54.7617 663.786 51.4805 663.786 47.9531C663.786 43.1133 664.75 38.7861 666.678 34.9717C668.647 31.1162 671.251 27.8555 674.492 25.1895C677.773 22.4824 681.526 20.4111 685.75 18.9756C689.975 17.54 694.343 16.8223 698.855 16.8223C700.865 16.8223 702.936 16.9043 705.069 17.0684C707.202 17.1914 709.314 17.4375 711.406 17.8066C713.538 18.1758 715.61 18.6475 717.62 19.2217C719.629 19.7959 721.536 20.5137 723.341 21.375L721.003 46.3535C718.214 45.4102 715.282 44.6309 712.205 44.0156C709.17 43.3594 706.197 43.0312 703.285 43.0312C702.751 43.0312 702.054 43.0518 701.193 43.0928C700.372 43.0928 699.491 43.1543 698.547 43.2773C697.645 43.3594 696.722 43.5029 695.779 43.708C694.835 43.9131 693.995 44.2002 693.256 44.5693C692.518 44.8975 691.923 45.3486 691.472 45.9229C691.021 46.4971 690.816 47.1738 690.857 47.9531C690.898 48.8555 691.226 49.5938 691.841 50.168C692.497 50.7012 693.318 51.1318 694.302 51.46C695.328 51.7471 696.435 51.9521 697.624 52.0752C698.855 52.1982 700.065 52.2803 701.254 52.3213C702.444 52.3213 703.551 52.3213 704.577 52.3213C705.602 52.2803 706.443 52.3008 707.099 52.3828C710.38 52.5879 713.333 53.2852 715.958 54.4746C718.583 55.6641 720.798 57.2432 722.603 59.2119C724.449 61.1807 725.843 63.5391 726.786 66.2871C727.771 68.9941 728.263 71.9883 728.263 75.2695Z"/>
<path d="M809.504 64.5645C809.504 68.2969 809.073 71.9062 808.212 75.3926C807.35 78.8379 806.099 82.0781 804.459 85.1133C802.859 88.1484 800.89 90.9375 798.552 93.4805C796.255 95.9824 793.651 98.1357 790.739 99.9404C787.868 101.745 784.73 103.16 781.326 104.186C777.922 105.17 774.312 105.662 770.498 105.662C766.806 105.662 763.279 105.19 759.916 104.247C756.593 103.304 753.476 101.991 750.564 100.31C747.652 98.5869 745.006 96.5361 742.628 94.1572C740.29 91.7373 738.28 89.0713 736.598 86.1592C734.958 83.2061 733.666 80.0479 732.722 76.6846C731.82 73.3213 731.369 69.8145 731.369 66.1641C731.369 62.5957 731.799 59.1094 732.661 55.7051C733.522 52.2598 734.753 49.0195 736.352 45.9844C737.993 42.9492 739.962 40.1602 742.258 37.6172C744.555 35.0742 747.119 32.8799 749.949 31.0342C752.82 29.1885 755.917 27.7529 759.239 26.7275C762.561 25.7021 766.068 25.1895 769.759 25.1895C775.707 25.1895 781.121 26.1123 786.002 27.958C790.923 29.8037 795.107 32.4492 798.552 35.8945C802.039 39.2988 804.725 43.4414 806.612 48.3223C808.54 53.1621 809.504 58.5762 809.504 64.5645ZM782.187 66.1641C782.187 64.4004 781.921 62.6982 781.387 61.0576C780.895 59.376 780.157 57.8994 779.172 56.6279C778.188 55.3154 776.958 54.2695 775.481 53.4902C774.046 52.6699 772.384 52.2598 770.498 52.2598C768.57 52.2598 766.847 52.6084 765.33 53.3057C763.812 54.0029 762.5 54.9668 761.392 56.1973C760.326 57.3867 759.505 58.8018 758.931 60.4424C758.357 62.042 758.07 63.7441 758.07 65.5488C758.07 67.2715 758.316 68.9941 758.808 70.7168C759.3 72.4395 760.039 73.998 761.023 75.3926C762.007 76.7871 763.217 77.915 764.653 78.7764C766.13 79.6377 767.832 80.0684 769.759 80.0684C771.687 80.0684 773.41 79.6992 774.927 78.9609C776.486 78.1816 777.798 77.1562 778.865 75.8848C779.931 74.5723 780.752 73.0752 781.326 71.3936C781.9 69.7119 782.187 67.9688 782.187 66.1641Z"/>
<path d="M876.04 21.498L872.595 47.4609C871.405 47.1328 870.216 46.9072 869.026 46.7842C867.837 46.6611 866.647 46.5996 865.458 46.5996C862.423 46.5996 859.531 47.0098 856.783 47.8301C854.035 48.6094 851.595 49.8193 849.462 51.46C847.37 53.1006 845.688 55.1514 844.417 57.6123C843.186 60.0732 842.571 62.9648 842.571 66.2871C842.571 68.4199 842.899 70.2656 843.556 71.8242C844.253 73.3828 845.217 74.6748 846.447 75.7002C847.678 76.7256 849.134 77.4844 850.815 77.9766C852.497 78.4688 854.343 78.7148 856.352 78.7148C857.87 78.7148 859.449 78.5508 861.09 78.2227C862.73 77.8945 864.351 77.4639 865.95 76.9307C867.55 76.3975 869.108 75.7822 870.626 75.085C872.143 74.3877 873.538 73.6699 874.81 72.9316L872.349 101.848C870.749 102.668 869.006 103.406 867.119 104.062C865.273 104.678 863.366 105.231 861.397 105.724C859.429 106.175 857.46 106.523 855.491 106.77C853.522 107.016 851.636 107.139 849.831 107.139C844.622 107.139 839.762 106.175 835.25 104.247C830.738 102.319 826.821 99.6738 823.499 96.3105C820.177 92.9473 817.552 88.9893 815.624 84.4365C813.737 79.8428 812.794 74.9004 812.794 69.6094C812.794 62.5957 813.799 55.9922 815.809 49.7988C817.818 43.5645 820.771 38.1094 824.668 33.4336C828.564 28.7578 833.384 25.0664 839.126 22.3594C844.909 19.6523 851.554 18.2988 859.06 18.2988C861.89 18.2988 864.781 18.5244 867.734 18.9756C870.728 19.4268 873.497 20.2676 876.04 21.498Z"/>
<path d="M914.399 21.375L907.631 105.17L881.668 106.523V23.0977L914.399 21.375Z"/>
<path d="M995.824 102.709L965.308 106.646L961.617 92.7422H947.589L944.513 106.646L913.136 103.57L937.622 21.6211L971.83 19.8984L995.824 102.709ZM959.402 73.916L954.726 52.5059L950.173 73.916H959.402Z"/>
<path d="M1052.45 72.9316L1049.87 100.248L998.068 104.309C998.314 89.9941 998.581 75.7617 998.868 61.6113C999.196 47.4609 999.586 33.2285 1000.04 18.9141H1032.03C1031.09 27.8965 1030.18 36.8789 1029.32 45.8613C1028.46 54.8027 1027.85 63.8262 1027.48 72.9316C1029.4 73.0137 1031.31 73.0547 1033.2 73.0547C1035.08 73.0547 1036.99 73.0547 1038.92 73.0547C1041.22 73.0547 1043.47 73.0342 1045.69 72.9932C1047.9 72.9521 1050.16 72.9316 1052.45 72.9316Z"/>
<path d="M1119.61 75.2695C1119.61 80.8887 1118.62 85.8105 1116.65 90.0352C1114.73 94.2188 1112.06 97.7051 1108.66 100.494C1105.29 103.283 1101.33 105.375 1096.78 106.77C1092.27 108.164 1087.41 108.861 1082.2 108.861C1080.19 108.861 1077.98 108.595 1075.56 108.062C1073.18 107.528 1070.76 106.872 1068.3 106.093C1065.83 105.272 1063.46 104.411 1061.16 103.509C1058.9 102.565 1056.89 101.684 1055.13 100.863L1057.84 75.5156C1061.32 77.6074 1065.18 79.207 1069.4 80.3145C1073.67 81.3809 1077.85 81.9141 1081.95 81.9141C1082.73 81.9141 1083.68 81.8936 1084.78 81.8525C1085.89 81.7705 1086.94 81.5859 1087.92 81.2988C1088.95 80.9707 1089.81 80.499 1090.51 79.8838C1091.2 79.2686 1091.55 78.3867 1091.55 77.2383C1091.55 76.459 1091.31 75.8027 1090.81 75.2695C1090.32 74.6953 1089.69 74.2441 1088.91 73.916C1088.13 73.5469 1087.25 73.2803 1086.26 73.1162C1085.28 72.9111 1084.31 72.7676 1083.37 72.6855C1082.43 72.6035 1081.54 72.5625 1080.72 72.5625C1079.9 72.5625 1079.25 72.5625 1078.75 72.5625C1075.23 72.5625 1072.01 71.9473 1069.1 70.7168C1066.22 69.4863 1063.74 67.7842 1061.65 65.6104C1059.6 63.3955 1058 60.791 1056.85 57.7969C1055.7 54.7617 1055.13 51.4805 1055.13 47.9531C1055.13 43.1133 1056.09 38.7861 1058.02 34.9717C1059.99 31.1162 1062.59 27.8555 1065.83 25.1895C1069.12 22.4824 1072.87 20.4111 1077.09 18.9756C1081.32 17.54 1085.69 16.8223 1090.2 16.8223C1092.21 16.8223 1094.28 16.9043 1096.41 17.0684C1098.54 17.1914 1100.66 17.4375 1102.75 17.8066C1104.88 18.1758 1106.95 18.6475 1108.96 19.2217C1110.97 19.7959 1112.88 20.5137 1114.68 21.375L1112.35 46.3535C1109.56 45.4102 1106.62 44.6309 1103.55 44.0156C1100.51 43.3594 1097.54 43.0312 1094.63 43.0312C1094.09 43.0312 1093.4 43.0518 1092.54 43.0928C1091.72 43.0928 1090.83 43.1543 1089.89 43.2773C1088.99 43.3594 1088.07 43.5029 1087.12 43.708C1086.18 43.9131 1085.34 44.2002 1084.6 44.5693C1083.86 44.8975 1083.27 45.3486 1082.82 45.9229C1082.36 46.4971 1082.16 47.1738 1082.2 47.9531C1082.24 48.8555 1082.57 49.5938 1083.18 50.168C1083.84 50.7012 1084.66 51.1318 1085.65 51.46C1086.67 51.7471 1087.78 51.9521 1088.97 52.0752C1090.2 52.1982 1091.41 52.2803 1092.6 52.3213C1093.79 52.3213 1094.89 52.3213 1095.92 52.3213C1096.95 52.2803 1097.79 52.3008 1098.44 52.3828C1101.72 52.5879 1104.68 53.2852 1107.3 54.4746C1109.93 55.6641 1112.14 57.2432 1113.95 59.2119C1115.79 61.1807 1117.19 63.5391 1118.13 66.2871C1119.11 68.9941 1119.61 71.9883 1119.61 75.2695Z"/>
<path d="M1154.95 16.5762L1149.91 81.2988H1127.14L1124.8 16.5762H1154.95ZM1150.89 100.248C1150.89 102.053 1150.54 103.734 1149.84 105.293C1149.15 106.852 1148.2 108.205 1147.01 109.354C1145.87 110.543 1144.51 111.466 1142.95 112.122C1141.39 112.819 1139.73 113.168 1137.97 113.168C1136.17 113.168 1134.48 112.819 1132.93 112.122C1131.37 111.466 1129.99 110.543 1128.8 109.354C1127.65 108.205 1126.73 106.852 1126.03 105.293C1125.38 103.734 1125.05 102.053 1125.05 100.248C1125.05 98.4844 1125.38 96.8027 1126.03 95.2031C1126.73 93.6035 1127.65 92.2295 1128.8 91.0811C1129.99 89.8916 1131.37 88.9482 1132.93 88.251C1134.48 87.5537 1136.17 87.2051 1137.97 87.2051C1139.73 87.2051 1141.39 87.5537 1142.95 88.251C1144.51 88.9482 1145.87 89.8916 1147.01 91.0811C1148.2 92.2295 1149.15 93.6035 1149.84 95.2031C1150.54 96.8027 1150.89 98.4844 1150.89 100.248Z"/>
</mask>
<path d="M80.0349 57.3047C80.0349 59.7246 80.0349 62.124 80.0349 64.5029C80.0349 66.8818 79.9119 69.2812 79.6658 71.7012C79.2146 76.8281 78.1072 81.6885 76.3435 86.2822C74.5798 90.835 72.1804 94.834 69.1453 98.2793C66.1511 101.725 62.5007 104.452 58.1941 106.462C53.8875 108.472 48.9451 109.477 43.3669 109.477C41.1931 109.477 38.9167 109.292 36.5378 108.923C34.2 108.554 31.8621 108 29.5242 107.262C27.2273 106.523 25.0125 105.621 22.8796 104.555C20.7878 103.447 18.9216 102.176 17.281 100.74L21.0955 75.2695C23.5154 77.6074 26.2019 79.5146 29.155 80.9912C32.1082 82.4268 35.3279 83.1445 38.8142 83.1445C41.0701 83.1445 42.9773 82.8164 44.5359 82.1602C46.0945 81.5039 47.3865 80.6016 48.4119 79.4531C49.4373 78.3047 50.2371 76.9717 50.8113 75.4541C51.4265 73.8955 51.8572 72.2549 52.1033 70.5322C52.3904 68.7686 52.5544 66.9639 52.5955 65.1182C52.6775 63.2725 52.7185 61.4473 52.7185 59.6426C52.7185 53.1211 52.3904 46.6406 51.7341 40.2012C51.0779 33.7207 50.5037 27.2402 50.0115 20.7598L78.1892 18.9141C79.4197 31.7109 80.0349 44.5078 80.0349 57.3047Z" fill="white"/>
<path d="M162.813 64.5645C162.813 68.2969 162.383 71.9062 161.521 75.3926C160.66 78.8379 159.409 82.0781 157.769 85.1133C156.169 88.1484 154.2 90.9375 151.862 93.4805C149.565 95.9824 146.961 98.1357 144.049 99.9404C141.178 101.745 138.04 103.16 134.636 104.186C131.231 105.17 127.622 105.662 123.808 105.662C120.116 105.662 116.589 105.19 113.226 104.247C109.903 103.304 106.786 101.991 103.874 100.31C100.962 98.5869 98.3164 96.5361 95.9375 94.1572C93.5996 91.7373 91.5898 89.0713 89.9082 86.1592C88.2676 83.2061 86.9756 80.0479 86.0322 76.6846C85.1299 73.3213 84.6787 69.8145 84.6787 66.1641C84.6787 62.5957 85.1094 59.1094 85.9707 55.7051C86.832 52.2598 88.0625 49.0195 89.6621 45.9844C91.3027 42.9492 93.2715 40.1602 95.5684 37.6172C97.8652 35.0742 100.429 32.8799 103.259 31.0342C106.13 29.1885 109.227 27.7529 112.549 26.7275C115.871 25.7021 119.378 25.1895 123.069 25.1895C129.017 25.1895 134.431 26.1123 139.312 27.958C144.233 29.8037 148.417 32.4492 151.862 35.8945C155.349 39.2988 158.035 43.4414 159.922 48.3223C161.85 53.1621 162.813 58.5762 162.813 64.5645ZM135.497 66.1641C135.497 64.4004 135.23 62.6982 134.697 61.0576C134.205 59.376 133.467 57.8994 132.482 56.6279C131.498 55.3154 130.268 54.2695 128.791 53.4902C127.355 52.6699 125.694 52.2598 123.808 52.2598C121.88 52.2598 120.157 52.6084 118.64 53.3057C117.122 54.0029 115.81 54.9668 114.702 56.1973C113.636 57.3867 112.815 58.8018 112.241 60.4424C111.667 62.042 111.38 63.7441 111.38 65.5488C111.38 67.2715 111.626 68.9941 112.118 70.7168C112.61 72.4395 113.349 73.998 114.333 75.3926C115.317 76.7871 116.527 77.915 117.963 78.7764C119.439 79.6377 121.142 80.0684 123.069 80.0684C124.997 80.0684 126.72 79.6992 128.237 78.9609C129.796 78.1816 131.108 77.1562 132.175 75.8848C133.241 74.5723 134.062 73.0752 134.636 71.3936C135.21 69.7119 135.497 67.9688 135.497 66.1641Z" fill="white"/>
<path d="M201.603 21.375L194.835 105.17L168.872 106.523V23.0977L201.603 21.375Z" fill="white"/>
<path d="M290.841 19.7754L286.412 103.201L254.173 106.154L236.947 61.4883L234.24 107.016H206.554L208.769 19.7754L239.531 18.2988L260.818 62.5957L261.802 20.7598L290.841 19.7754Z" fill="white"/>
<path d="M396.598 39.5859C396.598 42.6211 396.454 45.9639 396.167 49.6143C395.88 53.2646 395.408 57.0381 394.752 60.9346C394.096 64.8311 393.234 68.7891 392.168 72.8086C391.143 76.7871 389.851 80.6221 388.292 84.3135C386.733 88.0049 384.908 91.4707 382.816 94.7109C380.766 97.9102 378.387 100.72 375.68 103.14C373.014 105.519 370.019 107.385 366.697 108.738C363.375 110.133 359.684 110.83 355.623 110.83C350.865 110.83 346.723 110.051 343.195 108.492C339.709 106.975 336.715 104.924 334.213 102.34C331.711 99.7148 329.66 96.6797 328.06 93.2344C326.461 89.748 325.21 86.0771 324.308 82.2217C323.405 78.3252 322.769 74.3672 322.4 70.3477C322.072 66.2871 321.908 62.3906 321.908 58.6582C321.908 52.916 322.195 47.1943 322.769 41.4932C323.344 35.751 324.164 30.0293 325.23 24.3281L354.023 25.4355C352.916 31.875 351.952 38.3555 351.132 44.877C350.352 51.3574 349.963 57.8789 349.963 64.4414C349.963 65.1387 349.983 66.1846 350.024 67.5791C350.106 68.9326 350.229 70.4707 350.393 72.1934C350.558 73.875 350.783 75.6182 351.07 77.4229C351.398 79.1865 351.829 80.8066 352.362 82.2832C352.895 83.7598 353.531 84.9697 354.269 85.9131C355.049 86.8564 355.951 87.3281 356.977 87.3281C358.166 87.3281 359.232 86.7744 360.176 85.667C361.119 84.5186 361.939 83.001 362.637 81.1143C363.375 79.2275 364.011 77.0537 364.544 74.5928C365.077 72.1318 365.528 69.5684 365.897 66.9023C366.267 64.2363 366.554 61.5703 366.759 58.9043C367.005 56.2383 367.189 53.7568 367.312 51.46C367.477 49.1631 367.579 47.1328 367.62 45.3691C367.661 43.6055 367.682 42.293 367.682 41.4316C367.682 38.2324 367.62 35.0537 367.497 31.8955C367.415 28.6963 367.271 25.5176 367.066 22.3594H395.859C396.352 28.0195 396.598 33.7617 396.598 39.5859Z" fill="white"/>
<path d="M465.779 75.2695C465.779 80.8887 464.795 85.8105 462.826 90.0352C460.899 94.2188 458.233 97.7051 454.828 100.494C451.465 103.283 447.507 105.375 442.954 106.77C438.443 108.164 433.582 108.861 428.373 108.861C426.363 108.861 424.149 108.595 421.729 108.062C419.35 107.528 416.93 106.872 414.469 106.093C412.008 105.272 409.629 104.411 407.332 103.509C405.076 102.565 403.067 101.684 401.303 100.863L404.01 75.5156C407.496 77.6074 411.352 79.207 415.576 80.3145C419.842 81.3809 424.026 81.9141 428.127 81.9141C428.906 81.9141 429.85 81.8936 430.957 81.8525C432.065 81.7705 433.111 81.5859 434.095 81.2988C435.12 80.9707 435.982 80.499 436.679 79.8838C437.376 79.2686 437.725 78.3867 437.725 77.2383C437.725 76.459 437.479 75.8027 436.987 75.2695C436.494 74.6953 435.859 74.2441 435.079 73.916C434.3 73.5469 433.418 73.2803 432.434 73.1162C431.449 72.9111 430.486 72.7676 429.542 72.6855C428.599 72.6035 427.717 72.5625 426.897 72.5625C426.076 72.5625 425.42 72.5625 424.928 72.5625C421.401 72.5625 418.181 71.9473 415.269 70.7168C412.398 69.4863 409.916 67.7842 407.824 65.6104C405.774 63.3955 404.174 60.791 403.026 57.7969C401.877 54.7617 401.303 51.4805 401.303 47.9531C401.303 43.1133 402.267 38.7861 404.195 34.9717C406.163 31.1162 408.768 27.8555 412.008 25.1895C415.289 22.4824 419.042 20.4111 423.267 18.9756C427.491 17.54 431.86 16.8223 436.371 16.8223C438.381 16.8223 440.452 16.9043 442.585 17.0684C444.718 17.1914 446.83 17.4375 448.922 17.8066C451.055 18.1758 453.126 18.6475 455.136 19.2217C457.146 19.7959 459.053 20.5137 460.858 21.375L458.52 46.3535C455.731 45.4102 452.798 44.6309 449.722 44.0156C446.687 43.3594 443.713 43.0312 440.801 43.0312C440.268 43.0312 439.57 43.0518 438.709 43.0928C437.889 43.0928 437.007 43.1543 436.064 43.2773C435.161 43.3594 434.238 43.5029 433.295 43.708C432.352 43.9131 431.511 44.2002 430.773 44.5693C430.034 44.8975 429.44 45.3486 428.988 45.9229C428.537 46.4971 428.332 47.1738 428.373 47.9531C428.414 48.8555 428.742 49.5938 429.358 50.168C430.014 50.7012 430.834 51.1318 431.819 51.46C432.844 51.7471 433.951 51.9521 435.141 52.0752C436.371 52.1982 437.581 52.2803 438.771 52.3213C439.96 52.3213 441.068 52.3213 442.093 52.3213C443.118 52.2803 443.959 52.3008 444.615 52.3828C447.897 52.5879 450.85 53.2852 453.475 54.4746C456.1 55.6641 458.315 57.2432 460.119 59.2119C461.965 61.1807 463.36 63.5391 464.303 66.2871C465.287 68.9941 465.779 71.9883 465.779 75.2695Z" fill="white"/>
<path d="M574.427 102.709L543.912 106.646L540.22 92.7422H526.193L523.117 106.646L491.74 103.57L516.226 21.6211L550.433 19.8984L574.427 102.709ZM538.006 73.916L533.33 52.5059L528.777 73.916H538.006Z" fill="white"/>
<path d="M634.75 20.0215L634.135 46.1074L615.801 46.8457L611.125 105.17L585.162 106.523L585.285 48.1992L566.951 49.1836L567.689 20.1445L634.75 20.0215Z" fill="white"/>
<path d="M728.263 75.2695C728.263 80.8887 727.279 85.8105 725.31 90.0352C723.382 94.2188 720.716 97.7051 717.312 100.494C713.949 103.283 709.991 105.375 705.438 106.77C700.926 108.164 696.066 108.861 690.857 108.861C688.847 108.861 686.632 108.595 684.212 108.062C681.833 107.528 679.413 106.872 676.953 106.093C674.492 105.272 672.113 104.411 669.816 103.509C667.56 102.565 665.55 101.684 663.786 100.863L666.494 75.5156C669.98 77.6074 673.835 79.207 678.06 80.3145C682.326 81.3809 686.509 81.9141 690.611 81.9141C691.39 81.9141 692.333 81.8936 693.441 81.8525C694.548 81.7705 695.594 81.5859 696.578 81.2988C697.604 80.9707 698.465 80.499 699.162 79.8838C699.86 79.2686 700.208 78.3867 700.208 77.2383C700.208 76.459 699.962 75.8027 699.47 75.2695C698.978 74.6953 698.342 74.2441 697.563 73.916C696.784 73.5469 695.902 73.2803 694.917 73.1162C693.933 72.9111 692.969 72.7676 692.026 72.6855C691.082 72.6035 690.201 72.5625 689.38 72.5625C688.56 72.5625 687.904 72.5625 687.411 72.5625C683.884 72.5625 680.664 71.9473 677.752 70.7168C674.881 69.4863 672.4 67.7842 670.308 65.6104C668.257 63.3955 666.658 60.791 665.509 57.7969C664.361 54.7617 663.786 51.4805 663.786 47.9531C663.786 43.1133 664.75 38.7861 666.678 34.9717C668.647 31.1162 671.251 27.8555 674.492 25.1895C677.773 22.4824 681.526 20.4111 685.75 18.9756C689.975 17.54 694.343 16.8223 698.855 16.8223C700.865 16.8223 702.936 16.9043 705.069 17.0684C707.202 17.1914 709.314 17.4375 711.406 17.8066C713.538 18.1758 715.61 18.6475 717.62 19.2217C719.629 19.7959 721.536 20.5137 723.341 21.375L721.003 46.3535C718.214 45.4102 715.282 44.6309 712.205 44.0156C709.17 43.3594 706.197 43.0312 703.285 43.0312C702.751 43.0312 702.054 43.0518 701.193 43.0928C700.372 43.0928 699.491 43.1543 698.547 43.2773C697.645 43.3594 696.722 43.5029 695.779 43.708C694.835 43.9131 693.995 44.2002 693.256 44.5693C692.518 44.8975 691.923 45.3486 691.472 45.9229C691.021 46.4971 690.816 47.1738 690.857 47.9531C690.898 48.8555 691.226 49.5938 691.841 50.168C692.497 50.7012 693.318 51.1318 694.302 51.46C695.328 51.7471 696.435 51.9521 697.624 52.0752C698.855 52.1982 700.065 52.2803 701.254 52.3213C702.444 52.3213 703.551 52.3213 704.577 52.3213C705.602 52.2803 706.443 52.3008 707.099 52.3828C710.38 52.5879 713.333 53.2852 715.958 54.4746C718.583 55.6641 720.798 57.2432 722.603 59.2119C724.449 61.1807 725.843 63.5391 726.786 66.2871C727.771 68.9941 728.263 71.9883 728.263 75.2695Z" fill="white"/>
<path d="M809.504 64.5645C809.504 68.2969 809.073 71.9062 808.212 75.3926C807.35 78.8379 806.099 82.0781 804.459 85.1133C802.859 88.1484 800.89 90.9375 798.552 93.4805C796.255 95.9824 793.651 98.1357 790.739 99.9404C787.868 101.745 784.73 103.16 781.326 104.186C777.922 105.17 774.312 105.662 770.498 105.662C766.806 105.662 763.279 105.19 759.916 104.247C756.593 103.304 753.476 101.991 750.564 100.31C747.652 98.5869 745.006 96.5361 742.628 94.1572C740.29 91.7373 738.28 89.0713 736.598 86.1592C734.958 83.2061 733.666 80.0479 732.722 76.6846C731.82 73.3213 731.369 69.8145 731.369 66.1641C731.369 62.5957 731.799 59.1094 732.661 55.7051C733.522 52.2598 734.753 49.0195 736.352 45.9844C737.993 42.9492 739.962 40.1602 742.258 37.6172C744.555 35.0742 747.119 32.8799 749.949 31.0342C752.82 29.1885 755.917 27.7529 759.239 26.7275C762.561 25.7021 766.068 25.1895 769.759 25.1895C775.707 25.1895 781.121 26.1123 786.002 27.958C790.923 29.8037 795.107 32.4492 798.552 35.8945C802.039 39.2988 804.725 43.4414 806.612 48.3223C808.54 53.1621 809.504 58.5762 809.504 64.5645ZM782.187 66.1641C782.187 64.4004 781.921 62.6982 781.387 61.0576C780.895 59.376 780.157 57.8994 779.172 56.6279C778.188 55.3154 776.958 54.2695 775.481 53.4902C774.046 52.6699 772.384 52.2598 770.498 52.2598C768.57 52.2598 766.847 52.6084 765.33 53.3057C763.812 54.0029 762.5 54.9668 761.392 56.1973C760.326 57.3867 759.505 58.8018 758.931 60.4424C758.357 62.042 758.07 63.7441 758.07 65.5488C758.07 67.2715 758.316 68.9941 758.808 70.7168C759.3 72.4395 760.039 73.998 761.023 75.3926C762.007 76.7871 763.217 77.915 764.653 78.7764C766.13 79.6377 767.832 80.0684 769.759 80.0684C771.687 80.0684 773.41 79.6992 774.927 78.9609C776.486 78.1816 777.798 77.1562 778.865 75.8848C779.931 74.5723 780.752 73.0752 781.326 71.3936C781.9 69.7119 782.187 67.9688 782.187 66.1641Z" fill="white"/>
<path d="M876.04 21.498L872.595 47.4609C871.405 47.1328 870.216 46.9072 869.026 46.7842C867.837 46.6611 866.647 46.5996 865.458 46.5996C862.423 46.5996 859.531 47.0098 856.783 47.8301C854.035 48.6094 851.595 49.8193 849.462 51.46C847.37 53.1006 845.688 55.1514 844.417 57.6123C843.186 60.0732 842.571 62.9648 842.571 66.2871C842.571 68.4199 842.899 70.2656 843.556 71.8242C844.253 73.3828 845.217 74.6748 846.447 75.7002C847.678 76.7256 849.134 77.4844 850.815 77.9766C852.497 78.4688 854.343 78.7148 856.352 78.7148C857.87 78.7148 859.449 78.5508 861.09 78.2227C862.73 77.8945 864.351 77.4639 865.95 76.9307C867.55 76.3975 869.108 75.7822 870.626 75.085C872.143 74.3877 873.538 73.6699 874.81 72.9316L872.349 101.848C870.749 102.668 869.006 103.406 867.119 104.062C865.273 104.678 863.366 105.231 861.397 105.724C859.429 106.175 857.46 106.523 855.491 106.77C853.522 107.016 851.636 107.139 849.831 107.139C844.622 107.139 839.762 106.175 835.25 104.247C830.738 102.319 826.821 99.6738 823.499 96.3105C820.177 92.9473 817.552 88.9893 815.624 84.4365C813.737 79.8428 812.794 74.9004 812.794 69.6094C812.794 62.5957 813.799 55.9922 815.809 49.7988C817.818 43.5645 820.771 38.1094 824.668 33.4336C828.564 28.7578 833.384 25.0664 839.126 22.3594C844.909 19.6523 851.554 18.2988 859.06 18.2988C861.89 18.2988 864.781 18.5244 867.734 18.9756C870.728 19.4268 873.497 20.2676 876.04 21.498Z" fill="white"/>
<path d="M914.399 21.375L907.631 105.17L881.668 106.523V23.0977L914.399 21.375Z" fill="white"/>
<path d="M995.824 102.709L965.308 106.646L961.617 92.7422H947.589L944.513 106.646L913.136 103.57L937.622 21.6211L971.83 19.8984L995.824 102.709ZM959.402 73.916L954.726 52.5059L950.173 73.916H959.402Z" fill="white"/>
<path d="M1052.45 72.9316L1049.87 100.248L998.068 104.309C998.314 89.9941 998.581 75.7617 998.868 61.6113C999.196 47.4609 999.586 33.2285 1000.04 18.9141H1032.03C1031.09 27.8965 1030.18 36.8789 1029.32 45.8613C1028.46 54.8027 1027.85 63.8262 1027.48 72.9316C1029.4 73.0137 1031.31 73.0547 1033.2 73.0547C1035.08 73.0547 1036.99 73.0547 1038.92 73.0547C1041.22 73.0547 1043.47 73.0342 1045.69 72.9932C1047.9 72.9521 1050.16 72.9316 1052.45 72.9316Z" fill="white"/>
<path d="M1119.61 75.2695C1119.61 80.8887 1118.62 85.8105 1116.65 90.0352C1114.73 94.2188 1112.06 97.7051 1108.66 100.494C1105.29 103.283 1101.33 105.375 1096.78 106.77C1092.27 108.164 1087.41 108.861 1082.2 108.861C1080.19 108.861 1077.98 108.595 1075.56 108.062C1073.18 107.528 1070.76 106.872 1068.3 106.093C1065.83 105.272 1063.46 104.411 1061.16 103.509C1058.9 102.565 1056.89 101.684 1055.13 100.863L1057.84 75.5156C1061.32 77.6074 1065.18 79.207 1069.4 80.3145C1073.67 81.3809 1077.85 81.9141 1081.95 81.9141C1082.73 81.9141 1083.68 81.8936 1084.78 81.8525C1085.89 81.7705 1086.94 81.5859 1087.92 81.2988C1088.95 80.9707 1089.81 80.499 1090.51 79.8838C1091.2 79.2686 1091.55 78.3867 1091.55 77.2383C1091.55 76.459 1091.31 75.8027 1090.81 75.2695C1090.32 74.6953 1089.69 74.2441 1088.91 73.916C1088.13 73.5469 1087.25 73.2803 1086.26 73.1162C1085.28 72.9111 1084.31 72.7676 1083.37 72.6855C1082.43 72.6035 1081.54 72.5625 1080.72 72.5625C1079.9 72.5625 1079.25 72.5625 1078.75 72.5625C1075.23 72.5625 1072.01 71.9473 1069.1 70.7168C1066.22 69.4863 1063.74 67.7842 1061.65 65.6104C1059.6 63.3955 1058 60.791 1056.85 57.7969C1055.7 54.7617 1055.13 51.4805 1055.13 47.9531C1055.13 43.1133 1056.09 38.7861 1058.02 34.9717C1059.99 31.1162 1062.59 27.8555 1065.83 25.1895C1069.12 22.4824 1072.87 20.4111 1077.09 18.9756C1081.32 17.54 1085.69 16.8223 1090.2 16.8223C1092.21 16.8223 1094.28 16.9043 1096.41 17.0684C1098.54 17.1914 1100.66 17.4375 1102.75 17.8066C1104.88 18.1758 1106.95 18.6475 1108.96 19.2217C1110.97 19.7959 1112.88 20.5137 1114.68 21.375L1112.35 46.3535C1109.56 45.4102 1106.62 44.6309 1103.55 44.0156C1100.51 43.3594 1097.54 43.0312 1094.63 43.0312C1094.09 43.0312 1093.4 43.0518 1092.54 43.0928C1091.72 43.0928 1090.83 43.1543 1089.89 43.2773C1088.99 43.3594 1088.07 43.5029 1087.12 43.708C1086.18 43.9131 1085.34 44.2002 1084.6 44.5693C1083.86 44.8975 1083.27 45.3486 1082.82 45.9229C1082.36 46.4971 1082.16 47.1738 1082.2 47.9531C1082.24 48.8555 1082.57 49.5938 1083.18 50.168C1083.84 50.7012 1084.66 51.1318 1085.65 51.46C1086.67 51.7471 1087.78 51.9521 1088.97 52.0752C1090.2 52.1982 1091.41 52.2803 1092.6 52.3213C1093.79 52.3213 1094.89 52.3213 1095.92 52.3213C1096.95 52.2803 1097.79 52.3008 1098.44 52.3828C1101.72 52.5879 1104.68 53.2852 1107.3 54.4746C1109.93 55.6641 1112.14 57.2432 1113.95 59.2119C1115.79 61.1807 1117.19 63.5391 1118.13 66.2871C1119.11 68.9941 1119.61 71.9883 1119.61 75.2695Z" fill="white"/>
<path d="M1154.95 16.5762L1149.91 81.2988H1127.14L1124.8 16.5762H1154.95ZM1150.89 100.248C1150.89 102.053 1150.54 103.734 1149.84 105.293C1149.15 106.852 1148.2 108.205 1147.01 109.354C1145.87 110.543 1144.51 111.466 1142.95 112.122C1141.39 112.819 1139.73 113.168 1137.97 113.168C1136.17 113.168 1134.48 112.819 1132.93 112.122C1131.37 111.466 1129.99 110.543 1128.8 109.354C1127.65 108.205 1126.73 106.852 1126.03 105.293C1125.38 103.734 1125.05 102.053 1125.05 100.248C1125.05 98.4844 1125.38 96.8027 1126.03 95.2031C1126.73 93.6035 1127.65 92.2295 1128.8 91.0811C1129.99 89.8916 1131.37 88.9482 1132.93 88.251C1134.48 87.5537 1136.17 87.2051 1137.97 87.2051C1139.73 87.2051 1141.39 87.5537 1142.95 88.251C1144.51 88.9482 1145.87 89.8916 1147.01 91.0811C1148.2 92.2295 1149.15 93.6035 1149.84 95.2031C1150.54 96.8027 1150.89 98.4844 1150.89 100.248Z" fill="white"/>
<path d="M80.0349 57.3047C80.0349 59.7246 80.0349 62.124 80.0349 64.5029C80.0349 66.8818 79.9119 69.2812 79.6658 71.7012C79.2146 76.8281 78.1072 81.6885 76.3435 86.2822C74.5798 90.835 72.1804 94.834 69.1453 98.2793C66.1511 101.725 62.5007 104.452 58.1941 106.462C53.8875 108.472 48.9451 109.477 43.3669 109.477C41.1931 109.477 38.9167 109.292 36.5378 108.923C34.2 108.554 31.8621 108 29.5242 107.262C27.2273 106.523 25.0125 105.621 22.8796 104.555C20.7878 103.447 18.9216 102.176 17.281 100.74L21.0955 75.2695C23.5154 77.6074 26.2019 79.5146 29.155 80.9912C32.1082 82.4268 35.3279 83.1445 38.8142 83.1445C41.0701 83.1445 42.9773 82.8164 44.5359 82.1602C46.0945 81.5039 47.3865 80.6016 48.4119 79.4531C49.4373 78.3047 50.2371 76.9717 50.8113 75.4541C51.4265 73.8955 51.8572 72.2549 52.1033 70.5322C52.3904 68.7686 52.5544 66.9639 52.5955 65.1182C52.6775 63.2725 52.7185 61.4473 52.7185 59.6426C52.7185 53.1211 52.3904 46.6406 51.7341 40.2012C51.0779 33.7207 50.5037 27.2402 50.0115 20.7598L78.1892 18.9141C79.4197 31.7109 80.0349 44.5078 80.0349 57.3047Z" stroke="black" stroke-width="32" mask="url(#path-1-outside-1_2033_10)"/>
<path d="M162.813 64.5645C162.813 68.2969 162.383 71.9062 161.521 75.3926C160.66 78.8379 159.409 82.0781 157.769 85.1133C156.169 88.1484 154.2 90.9375 151.862 93.4805C149.565 95.9824 146.961 98.1357 144.049 99.9404C141.178 101.745 138.04 103.16 134.636 104.186C131.231 105.17 127.622 105.662 123.808 105.662C120.116 105.662 116.589 105.19 113.226 104.247C109.903 103.304 106.786 101.991 103.874 100.31C100.962 98.5869 98.3164 96.5361 95.9375 94.1572C93.5996 91.7373 91.5898 89.0713 89.9082 86.1592C88.2676 83.2061 86.9756 80.0479 86.0322 76.6846C85.1299 73.3213 84.6787 69.8145 84.6787 66.1641C84.6787 62.5957 85.1094 59.1094 85.9707 55.7051C86.832 52.2598 88.0625 49.0195 89.6621 45.9844C91.3027 42.9492 93.2715 40.1602 95.5684 37.6172C97.8652 35.0742 100.429 32.8799 103.259 31.0342C106.13 29.1885 109.227 27.7529 112.549 26.7275C115.871 25.7021 119.378 25.1895 123.069 25.1895C129.017 25.1895 134.431 26.1123 139.312 27.958C144.233 29.8037 148.417 32.4492 151.862 35.8945C155.349 39.2988 158.035 43.4414 159.922 48.3223C161.85 53.1621 162.813 58.5762 162.813 64.5645ZM135.497 66.1641C135.497 64.4004 135.23 62.6982 134.697 61.0576C134.205 59.376 133.467 57.8994 132.482 56.6279C131.498 55.3154 130.268 54.2695 128.791 53.4902C127.355 52.6699 125.694 52.2598 123.808 52.2598C121.88 52.2598 120.157 52.6084 118.64 53.3057C117.122 54.0029 115.81 54.9668 114.702 56.1973C113.636 57.3867 112.815 58.8018 112.241 60.4424C111.667 62.042 111.38 63.7441 111.38 65.5488C111.38 67.2715 111.626 68.9941 112.118 70.7168C112.61 72.4395 113.349 73.998 114.333 75.3926C115.317 76.7871 116.527 77.915 117.963 78.7764C119.439 79.6377 121.142 80.0684 123.069 80.0684C124.997 80.0684 126.72 79.6992 128.237 78.9609C129.796 78.1816 131.108 77.1562 132.175 75.8848C133.241 74.5723 134.062 73.0752 134.636 71.3936C135.21 69.7119 135.497 67.9688 135.497 66.1641Z" stroke="black" stroke-width="32" mask="url(#path-1-outside-1_2033_10)"/>
<path d="M201.603 21.375L194.835 105.17L168.872 106.523V23.0977L201.603 21.375Z" stroke="black" stroke-width="32" mask="url(#path-1-outside-1_2033_10)"/>
<path d="M290.841 19.7754L286.412 103.201L254.173 106.154L236.947 61.4883L234.24 107.016H206.554L208.769 19.7754L239.531 18.2988L260.818 62.5957L261.802 20.7598L290.841 19.7754Z" stroke="black" stroke-width="32" mask="url(#path-1-outside-1_2033_10)"/>
<path d="M396.598 39.5859C396.598 42.6211 396.454 45.9639 396.167 49.6143C395.88 53.2646 395.408 57.0381 394.752 60.9346C394.096 64.8311 393.234 68.7891 392.168 72.8086C391.143 76.7871 389.851 80.6221 388.292 84.3135C386.733 88.0049 384.908 91.4707 382.816 94.7109C380.766 97.9102 378.387 100.72 375.68 103.14C373.014 105.519 370.019 107.385 366.697 108.738C363.375 110.133 359.684 110.83 355.623 110.83C350.865 110.83 346.723 110.051 343.195 108.492C339.709 106.975 336.715 104.924 334.213 102.34C331.711 99.7148 329.66 96.6797 328.06 93.2344C326.461 89.748 325.21 86.0771 324.308 82.2217C323.405 78.3252 322.769 74.3672 322.4 70.3477C322.072 66.2871 321.908 62.3906 321.908 58.6582C321.908 52.916 322.195 47.1943 322.769 41.4932C323.344 35.751 324.164 30.0293 325.23 24.3281L354.023 25.4355C352.916 31.875 351.952 38.3555 351.132 44.877C350.352 51.3574 349.963 57.8789 349.963 64.4414C349.963 65.1387 349.983 66.1846 350.024 67.5791C350.106 68.9326 350.229 70.4707 350.393 72.1934C350.558 73.875 350.783 75.6182 351.07 77.4229C351.398 79.1865 351.829 80.8066 352.362 82.2832C352.895 83.7598 353.531 84.9697 354.269 85.9131C355.049 86.8564 355.951 87.3281 356.977 87.3281C358.166 87.3281 359.232 86.7744 360.176 85.667C361.119 84.5186 361.939 83.001 362.637 81.1143C363.375 79.2275 364.011 77.0537 364.544 74.5928C365.077 72.1318 365.528 69.5684 365.897 66.9023C366.267 64.2363 366.554 61.5703 366.759 58.9043C367.005 56.2383 367.189 53.7568 367.312 51.46C367.477 49.1631 367.579 47.1328 367.62 45.3691C367.661 43.6055 367.682 42.293 367.682 41.4316C367.682 38.2324 367.62 35.0537 367.497 31.8955C367.415 28.6963 367.271 25.5176 367.066 22.3594H395.859C396.352 28.0195 396.598 33.7617 396.598 39.5859Z" stroke="black" stroke-width="32" mask="url(#path-1-outside-1_2033_10)"/>
<path d="M465.779 75.2695C465.779 80.8887 464.795 85.8105 462.826 90.0352C460.899 94.2188 458.233 97.7051 454.828 100.494C451.465 103.283 447.507 105.375 442.954 106.77C438.443 108.164 433.582 108.861 428.373 108.861C426.363 108.861 424.149 108.595 421.729 108.062C419.35 107.528 416.93 106.872 414.469 106.093C412.008 105.272 409.629 104.411 407.332 103.509C405.076 102.565 403.067 101.684 401.303 100.863L404.01 75.5156C407.496 77.6074 411.352 79.207 415.576 80.3145C419.842 81.3809 424.026 81.9141 428.127 81.9141C428.906 81.9141 429.85 81.8936 430.957 81.8525C432.065 81.7705 433.111 81.5859 434.095 81.2988C435.12 80.9707 435.982 80.499 436.679 79.8838C437.376 79.2686 437.725 78.3867 437.725 77.2383C437.725 76.459 437.479 75.8027 436.987 75.2695C436.494 74.6953 435.859 74.2441 435.079 73.916C434.3 73.5469 433.418 73.2803 432.434 73.1162C431.449 72.9111 430.486 72.7676 429.542 72.6855C428.599 72.6035 427.717 72.5625 426.897 72.5625C426.076 72.5625 425.42 72.5625 424.928 72.5625C421.401 72.5625 418.181 71.9473 415.269 70.7168C412.398 69.4863 409.916 67.7842 407.824 65.6104C405.774 63.3955 404.174 60.791 403.026 57.7969C401.877 54.7617 401.303 51.4805 401.303 47.9531C401.303 43.1133 402.267 38.7861 404.195 34.9717C406.163 31.1162 408.768 27.8555 412.008 25.1895C415.289 22.4824 419.042 20.4111 423.267 18.9756C427.491 17.54 431.86 16.8223 436.371 16.8223C438.381 16.8223 440.452 16.9043 442.585 17.0684C444.718 17.1914 446.83 17.4375 448.922 17.8066C451.055 18.1758 453.126 18.6475 455.136 19.2217C457.146 19.7959 459.053 20.5137 460.858 21.375L458.52 46.3535C455.731 45.4102 452.798 44.6309 449.722 44.0156C446.687 43.3594 443.713 43.0312 440.801 43.0312C440.268 43.0312 439.57 43.0518 438.709 43.0928C437.889 43.0928 437.007 43.1543 436.064 43.2773C435.161 43.3594 434.238 43.5029 433.295 43.708C432.352 43.9131 431.511 44.2002 430.773 44.5693C430.034 44.8975 429.44 45.3486 428.988 45.9229C428.537 46.4971 428.332 47.1738 428.373 47.9531C428.414 48.8555 428.742 49.5938 429.358 50.168C430.014 50.7012 430.834 51.1318 431.819 51.46C432.844 51.7471 433.951 51.9521 435.141 52.0752C436.371 52.1982 437.581 52.2803 438.771 52.3213C439.96 52.3213 441.068 52.3213 442.093 52.3213C443.118 52.2803 443.959 52.3008 444.615 52.3828C447.897 52.5879 450.85 53.2852 453.475 54.4746C456.1 55.6641 458.315 57.2432 460.119 59.2119C461.965 61.1807 463.36 63.5391 464.303 66.2871C465.287 68.9941 465.779 71.9883 465.779 75.2695Z" stroke="black" stroke-width="32" mask="url(#path-1-outside-1_2033_10)"/>
<path d="M574.427 102.709L543.912 106.646L540.22 92.7422H526.193L523.117 106.646L491.74 103.57L516.226 21.6211L550.433 19.8984L574.427 102.709ZM538.006 73.916L533.33 52.5059L528.777 73.916H538.006Z" stroke="black" stroke-width="32" mask="url(#path-1-outside-1_2033_10)"/>
<path d="M634.75 20.0215L634.135 46.1074L615.801 46.8457L611.125 105.17L585.162 106.523L585.285 48.1992L566.951 49.1836L567.689 20.1445L634.75 20.0215Z" stroke="black" stroke-width="32" mask="url(#path-1-outside-1_2033_10)"/>
<path d="M728.263 75.2695C728.263 80.8887 727.279 85.8105 725.31 90.0352C723.382 94.2188 720.716 97.7051 717.312 100.494C713.949 103.283 709.991 105.375 705.438 106.77C700.926 108.164 696.066 108.861 690.857 108.861C688.847 108.861 686.632 108.595 684.212 108.062C681.833 107.528 679.413 106.872 676.953 106.093C674.492 105.272 672.113 104.411 669.816 103.509C667.56 102.565 665.55 101.684 663.786 100.863L666.494 75.5156C669.98 77.6074 673.835 79.207 678.06 80.3145C682.326 81.3809 686.509 81.9141 690.611 81.9141C691.39 81.9141 692.333 81.8936 693.441 81.8525C694.548 81.7705 695.594 81.5859 696.578 81.2988C697.604 80.9707 698.465 80.499 699.162 79.8838C699.86 79.2686 700.208 78.3867 700.208 77.2383C700.208 76.459 699.962 75.8027 699.47 75.2695C698.978 74.6953 698.342 74.2441 697.563 73.916C696.784 73.5469 695.902 73.2803 694.917 73.1162C693.933 72.9111 692.969 72.7676 692.026 72.6855C691.082 72.6035 690.201 72.5625 689.38 72.5625C688.56 72.5625 687.904 72.5625 687.411 72.5625C683.884 72.5625 680.664 71.9473 677.752 70.7168C674.881 69.4863 672.4 67.7842 670.308 65.6104C668.257 63.3955 666.658 60.791 665.509 57.7969C664.361 54.7617 663.786 51.4805 663.786 47.9531C663.786 43.1133 664.75 38.7861 666.678 34.9717C668.647 31.1162 671.251 27.8555 674.492 25.1895C677.773 22.4824 681.526 20.4111 685.75 18.9756C689.975 17.54 694.343 16.8223 698.855 16.8223C700.865 16.8223 702.936 16.9043 705.069 17.0684C707.202 17.1914 709.314 17.4375 711.406 17.8066C713.538 18.1758 715.61 18.6475 717.62 19.2217C719.629 19.7959 721.536 20.5137 723.341 21.375L721.003 46.3535C718.214 45.4102 715.282 44.6309 712.205 44.0156C709.17 43.3594 706.197 43.0312 703.285 43.0312C702.751 43.0312 702.054 43.0518 701.193 43.0928C700.372 43.0928 699.491 43.1543 698.547 43.2773C697.645 43.3594 696.722 43.5029 695.779 43.708C694.835 43.9131 693.995 44.2002 693.256 44.5693C692.518 44.8975 691.923 45.3486 691.472 45.9229C691.021 46.4971 690.816 47.1738 690.857 47.9531C690.898 48.8555 691.226 49.5938 691.841 50.168C692.497 50.7012 693.318 51.1318 694.302 51.46C695.328 51.7471 696.435 51.9521 697.624 52.0752C698.855 52.1982 700.065 52.2803 701.254 52.3213C702.444 52.3213 703.551 52.3213 704.577 52.3213C705.602 52.2803 706.443 52.3008 707.099 52.3828C710.38 52.5879 713.333 53.2852 715.958 54.4746C718.583 55.6641 720.798 57.2432 722.603 59.2119C724.449 61.1807 725.843 63.5391 726.786 66.2871C727.771 68.9941 728.263 71.9883 728.263 75.2695Z" stroke="black" stroke-width="32" mask="url(#path-1-outside-1_2033_10)"/>
<path d="M809.504 64.5645C809.504 68.2969 809.073 71.9062 808.212 75.3926C807.35 78.8379 806.099 82.0781 804.459 85.1133C802.859 88.1484 800.89 90.9375 798.552 93.4805C796.255 95.9824 793.651 98.1357 790.739 99.9404C787.868 101.745 784.73 103.16 781.326 104.186C777.922 105.17 774.312 105.662 770.498 105.662C766.806 105.662 763.279 105.19 759.916 104.247C756.593 103.304 753.476 101.991 750.564 100.31C747.652 98.5869 745.006 96.5361 742.628 94.1572C740.29 91.7373 738.28 89.0713 736.598 86.1592C734.958 83.2061 733.666 80.0479 732.722 76.6846C731.82 73.3213 731.369 69.8145 731.369 66.1641C731.369 62.5957 731.799 59.1094 732.661 55.7051C733.522 52.2598 734.753 49.0195 736.352 45.9844C737.993 42.9492 739.962 40.1602 742.258 37.6172C744.555 35.0742 747.119 32.8799 749.949 31.0342C752.82 29.1885 755.917 27.7529 759.239 26.7275C762.561 25.7021 766.068 25.1895 769.759 25.1895C775.707 25.1895 781.121 26.1123 786.002 27.958C790.923 29.8037 795.107 32.4492 798.552 35.8945C802.039 39.2988 804.725 43.4414 806.612 48.3223C808.54 53.1621 809.504 58.5762 809.504 64.5645ZM782.187 66.1641C782.187 64.4004 781.921 62.6982 781.387 61.0576C780.895 59.376 780.157 57.8994 779.172 56.6279C778.188 55.3154 776.958 54.2695 775.481 53.4902C774.046 52.6699 772.384 52.2598 770.498 52.2598C768.57 52.2598 766.847 52.6084 765.33 53.3057C763.812 54.0029 762.5 54.9668 761.392 56.1973C760.326 57.3867 759.505 58.8018 758.931 60.4424C758.357 62.042 758.07 63.7441 758.07 65.5488C758.07 67.2715 758.316 68.9941 758.808 70.7168C759.3 72.4395 760.039 73.998 761.023 75.3926C762.007 76.7871 763.217 77.915 764.653 78.7764C766.13 79.6377 767.832 80.0684 769.759 80.0684C771.687 80.0684 773.41 79.6992 774.927 78.9609C776.486 78.1816 777.798 77.1562 778.865 75.8848C779.931 74.5723 780.752 73.0752 781.326 71.3936C781.9 69.7119 782.187 67.9688 782.187 66.1641Z" stroke="black" stroke-width="32" mask="url(#path-1-outside-1_2033_10)"/>
<path d="M876.04 21.498L872.595 47.4609C871.405 47.1328 870.216 46.9072 869.026 46.7842C867.837 46.6611 866.647 46.5996 865.458 46.5996C862.423 46.5996 859.531 47.0098 856.783 47.8301C854.035 48.6094 851.595 49.8193 849.462 51.46C847.37 53.1006 845.688 55.1514 844.417 57.6123C843.186 60.0732 842.571 62.9648 842.571 66.2871C842.571 68.4199 842.899 70.2656 843.556 71.8242C844.253 73.3828 845.217 74.6748 846.447 75.7002C847.678 76.7256 849.134 77.4844 850.815 77.9766C852.497 78.4688 854.343 78.7148 856.352 78.7148C857.87 78.7148 859.449 78.5508 861.09 78.2227C862.73 77.8945 864.351 77.4639 865.95 76.9307C867.55 76.3975 869.108 75.7822 870.626 75.085C872.143 74.3877 873.538 73.6699 874.81 72.9316L872.349 101.848C870.749 102.668 869.006 103.406 867.119 104.062C865.273 104.678 863.366 105.231 861.397 105.724C859.429 106.175 857.46 106.523 855.491 106.77C853.522 107.016 851.636 107.139 849.831 107.139C844.622 107.139 839.762 106.175 835.25 104.247C830.738 102.319 826.821 99.6738 823.499 96.3105C820.177 92.9473 817.552 88.9893 815.624 84.4365C813.737 79.8428 812.794 74.9004 812.794 69.6094C812.794 62.5957 813.799 55.9922 815.809 49.7988C817.818 43.5645 820.771 38.1094 824.668 33.4336C828.564 28.7578 833.384 25.0664 839.126 22.3594C844.909 19.6523 851.554 18.2988 859.06 18.2988C861.89 18.2988 864.781 18.5244 867.734 18.9756C870.728 19.4268 873.497 20.2676 876.04 21.498Z" stroke="black" stroke-width="32" mask="url(#path-1-outside-1_2033_10)"/>
<path d="M914.399 21.375L907.631 105.17L881.668 106.523V23.0977L914.399 21.375Z" stroke="black" stroke-width="32" mask="url(#path-1-outside-1_2033_10)"/>
<path d="M995.824 102.709L965.308 106.646L961.617 92.7422H947.589L944.513 106.646L913.136 103.57L937.622 21.6211L971.83 19.8984L995.824 102.709ZM959.402 73.916L954.726 52.5059L950.173 73.916H959.402Z" stroke="black" stroke-width="32" mask="url(#path-1-outside-1_2033_10)"/>
<path d="M1052.45 72.9316L1049.87 100.248L998.068 104.309C998.314 89.9941 998.581 75.7617 998.868 61.6113C999.196 47.4609 999.586 33.2285 1000.04 18.9141H1032.03C1031.09 27.8965 1030.18 36.8789 1029.32 45.8613C1028.46 54.8027 1027.85 63.8262 1027.48 72.9316C1029.4 73.0137 1031.31 73.0547 1033.2 73.0547C1035.08 73.0547 1036.99 73.0547 1038.92 73.0547C1041.22 73.0547 1043.47 73.0342 1045.69 72.9932C1047.9 72.9521 1050.16 72.9316 1052.45 72.9316Z" stroke="black" stroke-width="32" mask="url(#path-1-outside-1_2033_10)"/>
<path d="M1119.61 75.2695C1119.61 80.8887 1118.62 85.8105 1116.65 90.0352C1114.73 94.2188 1112.06 97.7051 1108.66 100.494C1105.29 103.283 1101.33 105.375 1096.78 106.77C1092.27 108.164 1087.41 108.861 1082.2 108.861C1080.19 108.861 1077.98 108.595 1075.56 108.062C1073.18 107.528 1070.76 106.872 1068.3 106.093C1065.83 105.272 1063.46 104.411 1061.16 103.509C1058.9 102.565 1056.89 101.684 1055.13 100.863L1057.84 75.5156C1061.32 77.6074 1065.18 79.207 1069.4 80.3145C1073.67 81.3809 1077.85 81.9141 1081.95 81.9141C1082.73 81.9141 1083.68 81.8936 1084.78 81.8525C1085.89 81.7705 1086.94 81.5859 1087.92 81.2988C1088.95 80.9707 1089.81 80.499 1090.51 79.8838C1091.2 79.2686 1091.55 78.3867 1091.55 77.2383C1091.55 76.459 1091.31 75.8027 1090.81 75.2695C1090.32 74.6953 1089.69 74.2441 1088.91 73.916C1088.13 73.5469 1087.25 73.2803 1086.26 73.1162C1085.28 72.9111 1084.31 72.7676 1083.37 72.6855C1082.43 72.6035 1081.54 72.5625 1080.72 72.5625C1079.9 72.5625 1079.25 72.5625 1078.75 72.5625C1075.23 72.5625 1072.01 71.9473 1069.1 70.7168C1066.22 69.4863 1063.74 67.7842 1061.65 65.6104C1059.6 63.3955 1058 60.791 1056.85 57.7969C1055.7 54.7617 1055.13 51.4805 1055.13 47.9531C1055.13 43.1133 1056.09 38.7861 1058.02 34.9717C1059.99 31.1162 1062.59 27.8555 1065.83 25.1895C1069.12 22.4824 1072.87 20.4111 1077.09 18.9756C1081.32 17.54 1085.69 16.8223 1090.2 16.8223C1092.21 16.8223 1094.28 16.9043 1096.41 17.0684C1098.54 17.1914 1100.66 17.4375 1102.75 17.8066C1104.88 18.1758 1106.95 18.6475 1108.96 19.2217C1110.97 19.7959 1112.88 20.5137 1114.68 21.375L1112.35 46.3535C1109.56 45.4102 1106.62 44.6309 1103.55 44.0156C1100.51 43.3594 1097.54 43.0312 1094.63 43.0312C1094.09 43.0312 1093.4 43.0518 1092.54 43.0928C1091.72 43.0928 1090.83 43.1543 1089.89 43.2773C1088.99 43.3594 1088.07 43.5029 1087.12 43.708C1086.18 43.9131 1085.34 44.2002 1084.6 44.5693C1083.86 44.8975 1083.27 45.3486 1082.82 45.9229C1082.36 46.4971 1082.16 47.1738 1082.2 47.9531C1082.24 48.8555 1082.57 49.5938 1083.18 50.168C1083.84 50.7012 1084.66 51.1318 1085.65 51.46C1086.67 51.7471 1087.78 51.9521 1088.97 52.0752C1090.2 52.1982 1091.41 52.2803 1092.6 52.3213C1093.79 52.3213 1094.89 52.3213 1095.92 52.3213C1096.95 52.2803 1097.79 52.3008 1098.44 52.3828C1101.72 52.5879 1104.68 53.2852 1107.3 54.4746C1109.93 55.6641 1112.14 57.2432 1113.95 59.2119C1115.79 61.1807 1117.19 63.5391 1118.13 66.2871C1119.11 68.9941 1119.61 71.9883 1119.61 75.2695Z" stroke="black" stroke-width="32" mask="url(#path-1-outside-1_2033_10)"/>
<path d="M1154.95 16.5762L1149.91 81.2988H1127.14L1124.8 16.5762H1154.95ZM1150.89 100.248C1150.89 102.053 1150.54 103.734 1149.84 105.293C1149.15 106.852 1148.2 108.205 1147.01 109.354C1145.87 110.543 1144.51 111.466 1142.95 112.122C1141.39 112.819 1139.73 113.168 1137.97 113.168C1136.17 113.168 1134.48 112.819 1132.93 112.122C1131.37 111.466 1129.99 110.543 1128.8 109.354C1127.65 108.205 1126.73 106.852 1126.03 105.293C1125.38 103.734 1125.05 102.053 1125.05 100.248C1125.05 98.4844 1125.38 96.8027 1126.03 95.2031C1126.73 93.6035 1127.65 92.2295 1128.8 91.0811C1129.99 89.8916 1131.37 88.9482 1132.93 88.251C1134.48 87.5537 1136.17 87.2051 1137.97 87.2051C1139.73 87.2051 1141.39 87.5537 1142.95 88.251C1144.51 88.9482 1145.87 89.8916 1147.01 91.0811C1148.2 92.2295 1149.15 93.6035 1149.84 95.2031C1150.54 96.8027 1150.89 98.4844 1150.89 100.248Z" stroke="black" stroke-width="32" mask="url(#path-1-outside-1_2033_10)"/>
</svg>
