<svg width="3560" height="3560" viewBox="0 0 3560 3560" fill="none" xmlns="http://www.w3.org/2000/svg">
<path d="M3560 976.073C3560 1083.51 3560 1190.9 3560 1298.34C3556.45 1298.89 3552.73 1299.02 3549.34 1300.13C3438.46 1336.23 3327.93 1373.48 3216.66 1408.3C3119.82 1438.62 3022.51 1467.44 2924.76 1494.82C2793.21 1531.64 2661.32 1567.44 2529.09 1601.82C2412.99 1631.98 2296.33 1659.95 2179.76 1688.13C2104.23 1706.35 2028.4 1723.25 1952.65 1740.61C1907.59 1750.96 1862.44 1761.01 1817.38 1771.28C1814.64 1771.92 1812.16 1773.46 1809.55 1774.61C1809.85 1775.64 1810.15 1776.71 1810.45 1777.73C1828.16 1776.71 1845.88 1775.85 1863.56 1774.61C1893.38 1772.47 1923.17 1770.03 1952.95 1767.81C1980.64 1765.76 2008.33 1763.88 2035.97 1761.78C2065.16 1759.56 2094.3 1757.08 2123.49 1754.81C2150.53 1752.71 2177.62 1750.75 2204.67 1748.69C2233.55 1746.47 2262.44 1744.16 2291.33 1741.85C2316.83 1739.84 2342.34 1737.87 2367.84 1735.73C2394.54 1733.51 2421.25 1731.12 2447.99 1728.89C2473.5 1726.75 2499.01 1724.79 2524.51 1722.6C2556.73 1719.82 2588.96 1716.92 2621.18 1714.09C2645.15 1712 2669.11 1710.07 2693.03 1707.98C2725.26 1705.11 2757.48 1702.16 2789.71 1699.25C2812.43 1697.2 2835.15 1695.23 2857.88 1693.09C2887.02 1690.31 2916.12 1687.28 2945.26 1684.54C2974.11 1681.8 3002.95 1679.41 3031.79 1676.63C3067.35 1673.21 3102.92 1669.53 3138.48 1665.94C3164.54 1663.28 3190.6 1660.72 3216.66 1657.94C3248.54 1654.56 3280.38 1650.97 3312.22 1647.5C3343.46 1644.12 3374.74 1640.92 3405.98 1637.49C3436.58 1634.12 3467.22 1630.69 3497.78 1627.02C3518.53 1624.53 3539.24 1621.58 3560 1618.85C3560 1672.56 3560 1726.28 3560 1780C2373.32 1780 1186.68 1780 0 1780C0.299559 1776.32 0.855884 1772.6 0.855884 1768.92C0.898678 1723.25 0.898677 1677.57 0.898677 1631.85C0.898677 1628.26 1.24103 1624.66 1.41221 1620.77C3.80868 1620.77 5.30647 1620.64 6.76147 1620.77C25.7621 1622.87 44.7199 1625.05 63.7204 1627.14C93.7191 1630.48 123.761 1633.73 153.759 1637.07C184.657 1640.49 215.597 1644.08 246.494 1647.46C278.675 1650.97 310.814 1654.39 342.995 1657.72C370.255 1660.55 397.557 1663.28 424.817 1666.02C451.777 1668.72 478.781 1671.37 505.741 1674.02C534.884 1676.88 563.984 1679.88 593.127 1682.66C622.269 1685.44 651.455 1688 680.598 1690.74C710.682 1693.56 740.723 1696.52 770.808 1699.3C801.192 1702.08 831.575 1704.64 861.959 1707.34C894.782 1710.24 927.648 1713.15 960.514 1715.97C984.778 1718.07 1009.04 1719.95 1033.31 1722.01C1067.37 1724.91 1101.44 1727.95 1135.54 1730.82C1161.05 1732.95 1186.55 1734.84 1212.02 1736.93C1239.66 1739.2 1267.31 1741.64 1294.95 1743.82C1321.35 1745.91 1347.8 1747.75 1374.25 1749.76C1403.73 1752.03 1433.22 1754.51 1462.75 1756.78C1489.49 1758.83 1516.24 1760.67 1542.98 1762.72C1572.47 1764.99 1602 1767.43 1631.48 1769.69C1662.51 1772.09 1693.53 1774.44 1724.6 1776.54C1732.91 1777.09 1741.29 1776.62 1749.64 1776.62C1749.81 1775.68 1749.94 1774.7 1750.11 1773.76C1746 1772.52 1741.98 1770.98 1737.83 1770.03C1667.77 1754.21 1597.55 1739.07 1527.62 1722.6C1402.79 1693.18 1277.92 1663.75 1153.43 1632.92C1050.17 1607.34 947.034 1581.21 844.542 1552.73C683.807 1508.03 523.201 1462.7 363.45 1414.58C244.74 1378.83 127.484 1338.15 9.54309 1299.96C2.56765 1297.69 0.7275 1294.19 0.7275 1287.34C0.898677 1187.01 0.855884 1086.72 0.855884 986.38C0.855884 983.728 1.24103 981.119 1.49779 977.698C4.365 978.81 6.41912 979.408 8.21647 980.392C108.526 1033.68 208.493 1087.66 309.273 1140.09C382.708 1178.28 456.742 1215.36 531.375 1251.08C629.33 1297.99 727.714 1344.18 826.782 1388.75C940.187 1439.77 1054.02 1489.98 1168.66 1538.23C1285.83 1587.58 1403.99 1634.59 1522.06 1681.72C1594.85 1710.76 1668.33 1738.09 1741.55 1766.1C1744.84 1767.34 1748.48 1767.68 1751.95 1768.45C1752.29 1767.47 1752.68 1766.49 1753.02 1765.54C1750.45 1763.71 1747.97 1761.65 1745.23 1760.11C1730.17 1751.6 1715.02 1743.3 1700 1734.75C1597.93 1676.97 1494.88 1620.77 1394.06 1560.94C1230.8 1464.07 1067.54 1367.02 906.893 1265.92C747.784 1165.8 590.644 1062.47 435.045 956.955C291.471 859.613 151.149 757.523 9.24353 657.701C2.91 653.253 0.684707 648.42 0.684707 640.85C0.898678 540.214 0.813089 439.579 0.855884 338.944C0.855884 336.292 1.15544 333.683 1.36941 329.363C569.633 828.22 1150.73 1308.99 1754.77 1761.57C1755.97 1760.24 1757.17 1758.92 1758.41 1757.59C1173.07 1172.6 587.692 587.602 0.599119 0.940922C6.5475 0.940922 9.58588 0.940922 12.6671 0.940922C112.463 0.940922 212.302 1.02642 312.098 0.769809C320.699 0.72704 326.434 3.507 331.911 9.8368C414.718 105.169 498.338 199.774 580.459 295.704C689.456 423.027 798.025 550.778 905.481 679.384C1007.59 801.618 1108.62 924.793 1209.06 1048.39C1285.54 1142.57 1360.64 1237.82 1435.66 1333.15C1500.19 1415.1 1563.95 1497.68 1627.63 1580.27C1670.04 1635.27 1711.68 1690.83 1753.75 1746.08C1756.1 1749.21 1759.1 1751.82 1761.79 1754.68C1762.95 1753.78 1764.1 1752.88 1765.26 1751.99C1432.32 1144.54 1061.12 561.257 650.899 1.28302C654.536 1.11194 656.59 0.940922 658.687 0.940922C760.366 0.940922 862.045 0.983654 963.681 0.769809C970.613 0.769809 974.165 3.37872 977.289 9.19529C1020.68 90.2424 1066.09 170.263 1107.47 252.294C1182.49 401.001 1256.91 550.051 1328.16 700.555C1386.87 824.542 1442.2 950.24 1496.3 1076.32C1554.2 1211.22 1609.66 1347.14 1664.78 1483.18C1699.31 1568.34 1731.24 1654.52 1764.44 1740.18C1765.77 1743.6 1767.87 1746.68 1769.62 1749.93C1770.99 1749.42 1772.4 1748.91 1773.77 1748.39C1643.68 1158.65 1494.5 574.045 1297.6 0.940922C1302.78 0.940922 1306.42 0.940922 1310.06 0.940922C1407.07 0.940922 1504.13 0.940922 1601.14 0.940922C1618 0.940922 1617.96 0.940911 1619.76 17.2359C1620.19 20.914 1620.96 24.5493 1621.38 28.1847C1625.49 64.2817 1629.64 100.336 1633.62 136.433C1637.65 172.829 1641.58 209.226 1645.52 245.665C1648.9 277.185 1652.24 308.706 1655.53 340.27C1659.04 373.629 1662.55 406.989 1665.89 440.349C1669.27 474.051 1672.39 507.753 1675.69 541.455C1678.6 571.478 1681.64 601.502 1684.5 631.526C1687.24 660.31 1689.81 689.136 1692.51 717.962C1695.37 748.627 1698.37 779.25 1701.15 809.915C1703.98 840.88 1706.59 871.887 1709.28 902.895C1712.15 935.399 1715.06 967.904 1717.84 1000.41C1719.94 1024.66 1721.86 1048.91 1723.92 1073.12C1726.83 1107.46 1729.82 1141.84 1732.65 1176.19C1734.75 1201.64 1736.67 1227.13 1738.73 1252.62C1740.99 1280.84 1743.39 1309.07 1745.61 1337.3C1747.71 1364.03 1749.64 1390.72 1751.69 1417.45C1753.96 1446.27 1756.36 1475.14 1758.58 1503.97C1760.12 1523.94 1761.32 1543.92 1762.86 1563.89C1765.04 1592.42 1767.48 1620.94 1769.67 1649.51C1771.8 1677.48 1773.69 1705.45 1775.87 1733.38C1776.26 1738.26 1777.54 1743.09 1778.4 1747.92C1779.21 1747.92 1780.02 1747.92 1780.88 1747.97C1781.48 1745.87 1782.42 1743.77 1782.59 1741.64C1784.64 1717.09 1786.65 1692.54 1788.54 1667.99C1790.93 1637.28 1793.24 1606.61 1795.56 1575.91C1797.61 1548.58 1799.45 1521.25 1801.55 1493.92C1804.41 1456.15 1807.45 1418.39 1810.41 1380.62C1811.82 1362.19 1813.1 1343.8 1814.6 1325.37C1816.82 1297.74 1819.26 1270.15 1821.53 1242.57C1823.63 1216.78 1825.55 1190.99 1827.69 1165.2C1830.52 1130.81 1833.51 1096.47 1836.38 1062.08C1838.44 1037.83 1840.36 1013.58 1842.5 989.374C1845.33 957.169 1848.32 925.006 1851.19 892.801C1853.88 862.136 1856.41 831.471 1859.15 800.805C1861.97 769.541 1865.01 738.277 1867.92 707.013C1869.97 684.645 1871.86 662.234 1874 639.866C1876.82 610.441 1879.82 581.059 1882.73 551.676C1885.55 523.192 1888.38 494.708 1891.24 466.224C1894.54 433.762 1897.88 401.301 1901.21 368.839C1903.91 342.494 1906.44 316.148 1909.22 289.845C1912.64 257.726 1916.23 225.606 1919.83 193.487C1923.21 163.206 1926.63 132.926 1930.06 102.645C1933.44 72.6644 1937.25 42.7262 1939.99 12.7024C1940.8 3.46429 1943.92 0.769851 1953 0.81262C2052.79 1.06923 2152.63 0.983667 2252.43 0.983667C2255.29 0.983667 2258.2 1.32584 2261.71 1.53968C2260.77 4.79012 2260.3 6.88576 2259.62 8.85313C2251.4 33.0603 2243.1 57.2676 2234.92 81.5176C2168.42 278.383 2107.14 476.831 2051.85 677.118C2014.19 813.422 1976.75 949.855 1942.51 1087.06C1897.83 1266.09 1856.32 1445.89 1813.7 1625.39C1804.59 1663.75 1796.5 1702.33 1788.11 1740.87C1787.51 1743.69 1788.02 1746.81 1788.02 1749.76C1789.05 1749.85 1790.08 1749.93 1791.11 1749.98C1792.6 1746.73 1794.27 1743.52 1795.6 1740.18C1832.91 1643.87 1868.95 1547.04 1907.85 1451.32C1965.58 1309.37 2023.31 1167.34 2084.76 1026.97C2151.69 874.154 2221.79 722.709 2292.65 571.692C2336.43 478.413 2383.2 386.546 2430.49 295.02C2479.75 199.645 2531.31 105.468 2581.6 10.6067C2585.45 3.33596 2589.86 0.727064 2598.16 0.727064C2698.3 1.02645 2798.39 0.898111 2898.53 0.898111C2901.53 0.898111 2904.52 0.898111 2908.8 0.898111C2906.96 3.8064 2905.93 5.60272 2904.74 7.2707C2878.67 43.2394 2852.1 78.8659 2826.55 115.262C2739.89 238.779 2652.38 361.74 2567.48 486.454C2494.38 593.804 2423.26 702.608 2353.25 812.011C2279.56 927.145 2206.64 1042.79 2136.28 1159.98C2051.29 1301.46 1969.09 1444.65 1886.24 1587.41C1856.37 1638.91 1828.16 1691.38 1799.28 1743.43C1797.61 1746.47 1796.75 1749.98 1795.56 1753.27C1796.54 1753.78 1797.52 1754.3 1798.51 1754.81C1800.86 1752.24 1803.47 1749.81 1805.57 1747.03C1875.84 1655.07 1945.51 1562.61 2016.46 1471.17C2098.62 1365.36 2180.83 1259.59 2264.96 1155.36C2389.24 1001.39 2514.92 848.578 2640.57 695.722C2695.86 628.447 2752.13 562.069 2808.49 495.692C2871.61 421.317 2934.99 347.155 2998.8 273.379C3075.31 184.89 3152.43 96.8716 3229.16 8.55379C3234.04 2.95106 3239.26 0.72704 3246.75 0.769809C3347.18 0.983654 3447.62 0.940903 3548.06 0.855366C3552.04 0.855366 3556.02 0.299383 3559.96 0C3559.96 0.598765 3559.96 1.24027 3559.96 1.83903C3556.49 4.87563 3552.81 7.6984 3549.56 10.9488C3236.86 323.248 2924.21 635.546 2611.51 947.888C2445.68 1113.53 2279.81 1279.18 2114.03 1444.86C2040.04 1518.81 1966.13 1592.84 1892.23 1666.88C1864.33 1694.85 1836.38 1722.78 1808.52 1750.79C1806.21 1753.1 1804.59 1756.09 1802.62 1758.74C1803.26 1759.43 1803.94 1760.07 1804.59 1760.75C1807.37 1759.17 1810.32 1757.89 1812.84 1756.01C1889.27 1697.93 1966.05 1640.32 2041.96 1581.51C2151.05 1497 2260.04 1412.32 2368.01 1326.39C2484.67 1233.54 2600.56 1139.71 2716.01 1045.32C2810.67 967.946 2904.39 889.465 2998.16 810.984C3065.17 754.914 3131.76 698.331 3198.13 641.534C3273.88 576.696 3349.32 511.431 3424.69 446.123C3469.96 406.904 3514.85 367.257 3559.91 327.824C3559.91 435.858 3559.91 543.892 3559.91 651.927C3555.76 654.493 3551.44 656.802 3547.46 659.625C3452.67 727.157 3358.78 795.973 3263.01 862.051C3141.3 946.006 3018.61 1028.59 2895.32 1110.24C2695.3 1242.69 2491.6 1369.29 2285.03 1491.27C2200 1541.48 2114.5 1590.96 2028.74 1639.97C1958 1680.39 1886.58 1719.65 1815.54 1759.51C1812.46 1761.22 1809.89 1763.88 1807.11 1766.1C1807.58 1766.87 1808.05 1767.68 1808.52 1768.45C1811.65 1767.68 1814.94 1767.25 1817.94 1766.1C1895.18 1736.55 1972.59 1707.42 2049.54 1677.18C2233.64 1604.82 2416.93 1530.36 2597.39 1449.31C2731.68 1389.01 2865.88 1328.45 2998.54 1264.72C3124.78 1204.07 3249.31 1139.79 3374.02 1075.98C3436.67 1043.95 3498.03 1009.48 3560 976.073Z" fill="#3C8AFF"/>
<path d="M3560 2583.93C3560 2476.49 3560 2369.1 3560 2261.66C3556.45 2261.11 3552.73 2260.98 3549.34 2259.87C3438.46 2223.77 3327.93 2186.52 3216.66 2151.7C3119.82 2121.38 3022.51 2092.56 2924.76 2065.18C2793.21 2028.36 2661.32 1992.56 2529.09 1958.18C2412.99 1928.02 2296.33 1900.05 2179.76 1871.87C2104.23 1853.65 2028.4 1836.75 1952.65 1819.39C1907.59 1809.04 1862.44 1798.99 1817.38 1788.72C1814.64 1788.08 1812.16 1786.54 1809.55 1785.39C1809.85 1784.36 1810.15 1783.29 1810.45 1782.27C1828.16 1783.29 1845.88 1784.15 1863.56 1785.39C1893.38 1787.53 1923.17 1789.97 1952.95 1792.19C1980.64 1794.24 2008.33 1796.12 2035.97 1798.22C2065.16 1800.44 2094.3 1802.92 2123.49 1805.19C2150.53 1807.29 2177.62 1809.25 2204.67 1811.31C2233.55 1813.53 2262.44 1815.84 2291.33 1818.15C2316.83 1820.16 2342.34 1822.13 2367.84 1824.27C2394.54 1826.49 2421.25 1828.89 2447.99 1831.11C2473.5 1833.25 2499.01 1835.21 2524.51 1837.4C2556.73 1840.18 2588.96 1843.08 2621.18 1845.91C2645.15 1848 2669.11 1849.93 2693.03 1852.02C2725.26 1854.89 2757.48 1857.84 2789.71 1860.75C2812.43 1862.8 2835.15 1864.77 2857.88 1866.91C2887.02 1869.69 2916.12 1872.72 2945.26 1875.46C2974.11 1878.2 3002.95 1880.59 3031.79 1883.37C3067.35 1886.79 3102.92 1890.47 3138.48 1894.06C3164.54 1896.72 3190.6 1899.28 3216.66 1902.06C3248.54 1905.44 3280.38 1909.03 3312.22 1912.5C3343.46 1915.88 3374.74 1919.08 3405.98 1922.51C3436.58 1925.88 3467.22 1929.31 3497.78 1932.98C3518.53 1935.47 3539.24 1938.42 3560 1941.15C3560 1887.44 3560 1833.72 3560 1780C2373.32 1780 1186.68 1780 0 1780C0.299559 1783.68 0.855884 1787.4 0.855884 1791.08C0.898678 1836.75 0.898677 1882.43 0.898677 1928.15C0.898677 1931.74 1.24103 1935.34 1.41221 1939.23C3.80868 1939.23 5.30647 1939.36 6.76147 1939.23C25.7621 1937.13 44.7199 1934.95 63.7204 1932.86C93.7191 1929.52 123.761 1926.27 153.759 1922.93C184.657 1919.51 215.597 1915.92 246.494 1912.54C278.675 1909.03 310.814 1905.61 342.995 1902.28C370.255 1899.45 397.557 1896.72 424.817 1893.98C451.777 1891.28 478.781 1888.63 505.741 1885.98C534.884 1883.12 563.984 1880.12 593.127 1877.34C622.269 1874.56 651.455 1872 680.598 1869.26C710.682 1866.44 740.723 1863.48 770.808 1860.7C801.192 1857.92 831.575 1855.36 861.959 1852.66C894.782 1849.76 927.648 1846.85 960.514 1844.03C984.778 1841.93 1009.04 1840.05 1033.31 1837.99C1067.37 1835.09 1101.44 1832.05 1135.54 1829.18C1161.05 1827.05 1186.55 1825.16 1212.02 1823.07C1239.66 1820.8 1267.31 1818.36 1294.95 1816.18C1321.35 1814.09 1347.8 1812.25 1374.25 1810.24C1403.73 1807.97 1433.22 1805.49 1462.75 1803.22C1489.49 1801.17 1516.24 1799.33 1542.98 1797.28C1572.47 1795.01 1602 1792.57 1631.48 1790.31C1662.51 1787.91 1693.53 1785.56 1724.6 1783.46C1732.91 1782.91 1741.29 1783.38 1749.64 1783.38C1749.81 1784.32 1749.94 1785.3 1750.11 1786.24C1746 1787.48 1741.98 1789.02 1737.83 1789.97C1667.77 1805.79 1597.55 1820.93 1527.62 1837.4C1402.79 1866.82 1277.92 1896.25 1153.43 1927.08C1050.17 1952.66 947.034 1978.79 844.542 2007.27C683.807 2051.97 523.201 2097.3 363.45 2145.42C244.74 2181.17 127.484 2221.85 9.54309 2260.04C2.56765 2262.31 0.7275 2265.81 0.7275 2272.66C0.898677 2372.99 0.855884 2473.28 0.855884 2573.62C0.855884 2576.27 1.24103 2578.88 1.49779 2582.3C4.365 2581.19 6.41912 2580.59 8.21647 2579.61C108.526 2526.32 208.493 2472.34 309.273 2419.91C382.708 2381.72 456.742 2344.64 531.375 2308.92C629.33 2262.01 727.714 2215.82 826.782 2171.25C940.187 2120.23 1054.02 2070.02 1168.66 2021.77C1285.83 1972.42 1403.99 1925.41 1522.06 1878.28C1594.85 1849.24 1668.33 1821.91 1741.55 1793.9C1744.84 1792.66 1748.48 1792.32 1751.95 1791.55C1752.29 1792.53 1752.68 1793.52 1753.02 1794.46C1750.45 1796.29 1747.97 1798.35 1745.23 1799.89C1730.17 1808.4 1715.02 1816.7 1700 1825.25C1597.93 1883.03 1494.88 1939.23 1394.06 1999.06C1230.8 2095.93 1067.54 2192.98 906.893 2294.08C747.784 2394.2 590.644 2497.53 435.045 2603.05C291.471 2700.39 151.149 2802.48 9.24353 2902.3C2.91 2906.75 0.684707 2911.58 0.684707 2919.15C0.898678 3019.79 0.813089 3120.42 0.855884 3221.06C0.855884 3223.71 1.15544 3226.32 1.36941 3230.64C569.633 2731.78 1150.73 2251.01 1754.77 1798.43C1755.97 1799.76 1757.17 1801.09 1758.41 1802.41C1173.07 2387.4 587.692 2972.4 0.599119 3559.06C6.5475 3559.06 9.58588 3559.06 12.6671 3559.06C112.463 3559.06 212.302 3558.97 312.098 3559.23C320.699 3559.27 326.434 3556.49 331.911 3550.16C414.718 3454.83 498.338 3360.23 580.459 3264.3C689.456 3136.97 798.025 3009.22 905.481 2880.62C1007.59 2758.38 1108.62 2635.21 1209.06 2511.61C1285.54 2417.43 1360.64 2322.18 1435.66 2226.85C1500.19 2144.9 1563.95 2062.32 1627.63 1979.73C1670.04 1924.73 1711.68 1869.17 1753.75 1813.92C1756.1 1810.79 1759.1 1808.18 1761.79 1805.32C1762.95 1806.22 1764.1 1807.12 1765.26 1808.01C1432.32 2415.46 1061.12 2998.74 650.899 3558.72C654.536 3558.89 656.59 3559.06 658.687 3559.06C760.366 3559.06 862.045 3559.02 963.681 3559.23C970.613 3559.23 974.165 3556.62 977.289 3550.8C1020.68 3469.76 1066.09 3389.74 1107.47 3307.71C1182.49 3159 1256.91 3009.95 1328.16 2859.45C1386.87 2735.46 1442.2 2609.76 1496.3 2483.68C1554.2 2348.78 1609.66 2212.86 1664.78 2076.82C1699.31 1991.66 1731.24 1905.48 1764.44 1819.82C1765.77 1816.4 1767.87 1813.32 1769.62 1810.07C1770.99 1810.58 1772.4 1811.09 1773.77 1811.61C1643.68 2401.35 1494.5 2985.96 1297.6 3559.06C1302.78 3559.06 1306.42 3559.06 1310.06 3559.06C1407.07 3559.06 1504.13 3559.06 1601.14 3559.06C1618 3559.06 1617.96 3559.06 1619.76 3542.76C1620.19 3539.09 1620.96 3535.45 1621.38 3531.82C1625.49 3495.72 1629.64 3459.66 1633.62 3423.57C1637.65 3387.17 1641.58 3350.77 1645.52 3314.34C1648.9 3282.81 1652.24 3251.29 1655.53 3219.73C1659.04 3186.37 1662.55 3153.01 1665.89 3119.65C1669.27 3085.95 1672.39 3052.25 1675.69 3018.55C1678.6 2988.52 1681.64 2958.5 1684.5 2928.47C1687.24 2899.69 1689.81 2870.86 1692.51 2842.04C1695.37 2811.37 1698.37 2780.75 1701.15 2750.08C1703.98 2719.12 1706.59 2688.11 1709.28 2657.11C1712.15 2624.6 1715.06 2592.1 1717.84 2559.59C1719.94 2535.34 1721.86 2511.09 1723.92 2486.88C1726.83 2452.54 1729.82 2418.16 1732.65 2383.81C1734.75 2358.36 1736.67 2332.87 1738.73 2307.38C1740.99 2279.16 1743.39 2250.93 1745.61 2222.7C1747.71 2195.97 1749.64 2169.28 1751.69 2142.55C1753.96 2113.73 1756.36 2084.86 1758.58 2056.03C1760.12 2036.06 1761.32 2016.08 1762.86 1996.11C1765.04 1967.58 1767.48 1939.06 1769.67 1910.49C1771.8 1882.52 1773.69 1854.55 1775.87 1826.62C1776.26 1821.74 1777.54 1816.91 1778.4 1812.08C1779.21 1812.08 1780.02 1812.08 1780.88 1812.03C1781.48 1814.13 1782.42 1816.23 1782.59 1818.36C1784.64 1842.91 1786.65 1867.46 1788.54 1892.01C1790.93 1922.72 1793.24 1953.39 1795.56 1984.09C1797.61 2011.42 1799.45 2038.75 1801.55 2066.08C1804.41 2103.85 1807.45 2141.61 1810.41 2179.38C1811.82 2197.81 1813.1 2216.2 1814.6 2234.63C1816.82 2262.26 1819.26 2289.85 1821.53 2317.43C1823.63 2343.22 1825.55 2369.01 1827.69 2394.8C1830.52 2429.19 1833.51 2463.53 1836.38 2497.92C1838.44 2522.17 1840.36 2546.42 1842.5 2570.63C1845.33 2602.83 1848.32 2634.99 1851.19 2667.2C1853.88 2697.86 1856.41 2728.53 1859.15 2759.19C1861.97 2790.46 1865.01 2821.72 1867.92 2852.99C1869.97 2875.36 1871.86 2897.77 1874 2920.13C1876.82 2949.56 1879.82 2978.94 1882.73 3008.32C1885.55 3036.81 1888.38 3065.29 1891.24 3093.78C1894.54 3126.24 1897.88 3158.7 1901.21 3191.16C1903.91 3217.51 1906.44 3243.85 1909.22 3270.16C1912.64 3302.27 1916.23 3334.39 1919.83 3366.51C1923.21 3396.79 1926.63 3427.07 1930.06 3457.35C1933.44 3487.34 1937.25 3517.27 1939.99 3547.3C1940.8 3556.54 1943.92 3559.23 1953 3559.19C2052.79 3558.93 2152.63 3559.02 2252.43 3559.02C2255.29 3559.02 2258.2 3558.67 2261.71 3558.46C2260.77 3555.21 2260.3 3553.11 2259.62 3551.15C2251.4 3526.94 2243.1 3502.73 2234.92 3478.48C2168.42 3281.62 2107.14 3083.17 2051.85 2882.88C2014.19 2746.58 1976.75 2610.15 1942.51 2472.94C1897.83 2293.91 1856.32 2114.11 1813.7 1934.61C1804.59 1896.25 1796.5 1857.67 1788.11 1819.13C1787.51 1816.31 1788.02 1813.19 1788.02 1810.24C1789.05 1810.15 1790.08 1810.07 1791.11 1810.02C1792.6 1813.27 1794.27 1816.48 1795.6 1819.82C1832.91 1916.13 1868.95 2012.96 1907.85 2108.68C1965.58 2250.63 2023.31 2392.67 2084.76 2533.03C2151.69 2685.85 2221.79 2837.29 2292.65 2988.31C2336.43 3081.59 2383.2 3173.45 2430.49 3264.98C2479.75 3360.35 2531.31 3454.53 2581.6 3549.39C2585.45 3556.66 2589.86 3559.27 2598.16 3559.27C2698.3 3558.97 2798.39 3559.1 2898.53 3559.1C2901.53 3559.1 2904.52 3559.1 2908.8 3559.1C2906.96 3556.19 2905.93 3554.4 2904.74 3552.73C2878.67 3516.76 2852.1 3481.13 2826.55 3444.74C2739.89 3321.22 2652.38 3198.26 2567.48 3073.55C2494.38 2966.2 2423.26 2857.39 2353.25 2747.99C2279.56 2632.86 2206.64 2517.21 2136.28 2400.02C2051.29 2258.54 1969.09 2115.35 1886.24 1972.59C1856.37 1921.09 1828.16 1868.62 1799.28 1816.57C1797.61 1813.53 1796.75 1810.02 1795.56 1806.73C1796.54 1806.22 1797.52 1805.7 1798.51 1805.19C1800.86 1807.76 1803.47 1810.19 1805.57 1812.97C1875.84 1904.93 1945.51 1997.39 2016.46 2088.83C2098.62 2194.65 2180.83 2300.41 2264.96 2404.64C2389.24 2558.61 2514.92 2711.42 2640.57 2864.28C2695.86 2931.55 2752.13 2997.93 2808.49 3064.31C2871.61 3138.68 2934.99 3212.84 2998.8 3286.62C3075.31 3375.11 3152.43 3463.13 3229.16 3551.45C3234.04 3557.05 3239.26 3559.27 3246.75 3559.23C3347.18 3559.02 3447.62 3559.06 3548.06 3559.14C3552.04 3559.14 3556.02 3559.7 3559.96 3560C3559.96 3559.4 3559.96 3558.76 3559.96 3558.16C3556.49 3555.12 3552.81 3552.3 3549.56 3549.05C3236.86 3236.75 2924.21 2924.45 2611.51 2612.11C2445.68 2446.47 2279.81 2280.82 2114.03 2115.14C2040.04 2041.19 1966.13 1967.16 1892.23 1893.12C1864.33 1865.15 1836.38 1837.22 1808.52 1809.21C1806.21 1806.9 1804.59 1803.91 1802.62 1801.26C1803.26 1800.57 1803.94 1799.93 1804.59 1799.25C1807.37 1800.83 1810.32 1802.11 1812.84 1803.99C1889.27 1862.07 1966.05 1919.68 2041.96 1978.49C2151.05 2063 2260.04 2147.68 2368.01 2233.61C2484.67 2326.46 2600.56 2420.29 2716.01 2514.68C2810.67 2592.05 2904.39 2670.53 2998.16 2749.02C3065.17 2805.09 3131.76 2861.67 3198.13 2918.47C3273.88 2983.3 3349.32 3048.57 3424.69 3113.88C3469.96 3153.1 3514.85 3192.74 3559.91 3232.18C3559.91 3124.14 3559.91 3016.11 3559.91 2908.07C3555.76 2905.51 3551.44 2903.2 3547.46 2900.38C3452.67 2832.84 3358.78 2764.03 3263.01 2697.95C3141.3 2613.99 3018.61 2531.41 2895.32 2449.76C2695.3 2317.31 2491.6 2190.71 2285.03 2068.73C2200 2018.52 2114.5 1969.04 2028.74 1920.03C1958 1879.61 1886.58 1840.35 1815.54 1800.49C1812.46 1798.78 1809.89 1796.12 1807.11 1793.9C1807.58 1793.13 1808.05 1792.32 1808.52 1791.55C1811.65 1792.32 1814.94 1792.75 1817.94 1793.9C1895.18 1823.45 1972.59 1852.58 2049.54 1882.82C2233.64 1955.18 2416.93 2029.64 2597.39 2110.69C2731.68 2170.99 2865.88 2231.55 2998.54 2295.28C3124.78 2355.93 3249.31 2420.21 3374.02 2484.02C3436.67 2516.05 3498.03 2550.53 3560 2583.93Z" fill="#3C8AFF"/>
</svg>
