<svg width="92" height="76" viewBox="0 0 100 80 " fill="none" xmlns="http://www.w3.org/2000/svg">
<path d="M83.7418 0.836471C83.7418 0.836471 92.16 -2.44603 91.4584 5.52577C91.2246 8.80831 89.1201 20.2971 87.4832 32.7238L81.8711 69.5348C81.8711 69.5348 81.4035 74.9274 77.1944 75.8653C72.9852 76.8031 66.6717 72.5828 65.5024 71.6449C64.567 70.9416 47.9647 60.3906 42.1186 55.2324C40.4817 53.8256 38.611 51.0119 42.3524 47.7294L66.9055 24.2831C69.7116 21.4694 72.5176 14.9044 60.8256 22.8763L28.0884 45.1505C28.0884 45.1505 24.347 47.495 17.332 45.3849L2.13241 40.6956C2.13241 40.6956 -3.47971 37.1786 6.10766 33.6615C29.4915 22.6416 58.2536 11.3873 83.7418 0.836471Z" fill="black"/>
</svg>
