<svg width="2220" height="1162" viewBox="0 0 2220 1162" fill="none" xmlns="http://www.w3.org/2000/svg">
<path d="M330.001 26.185C173.201 -26.875 0.000976562 209.5 0.000976563 90.5V1162H2220V88.4995C2220 -39.0002 1840 -46.1083 1856 183.957C1866.33 332.529 1966 445.111 1964 525.944C1962 606.778 1816 644.086 1794 509.363C1772 374.641 1690 346.055 1620 397.44C1572 432.675 1594 546.421 1652 573.366C1710 600.31 1848 815.866 1652 807.576C1456 799.285 1458 583.729 1338 461.442C1218 339.156 986.001 395.117 914.001 428.28C842.001 461.442 734.001 573.366 594.001 546.421C454.001 519.477 502.001 355.737 496.001 295.63C490.001 235.523 526.001 92.5099 330.001 26.185Z" fill="#53FFC8"/>
</svg>
