<svg width="969" height="133" viewBox="0 0 969 133" fill="none" xmlns="http://www.w3.org/2000/svg">
<mask id="path-1-outside-1_2023_2" maskUnits="userSpaceOnUse" x="0.638428" y="-0.640137" width="969" height="134" fill="black">
<rect fill="white" x="0.638428" y="-0.640137" width="969" height="134"/>
<path d="M32.9984 16.6199C56.3784 16.6199 71.7784 16.6199 79.1984 16.4799C81.1584 16.4799 84.0984 16.4799 87.8784 16.3399C91.6584 16.3399 94.4584 16.3399 96.2784 16.1999C97.2584 18.0199 98.0984 19.6999 98.6584 21.2399C100.338 25.5799 101.178 29.7799 101.178 34.1199C101.178 45.4599 95.0184 54.1399 83.9584 54.1399H80.4584V102.72C79.8984 105.66 78.7784 108.04 76.9584 110C72.8984 114.76 66.4584 117.14 57.4984 117.14C42.6584 117.14 38.8784 104.54 38.1784 99.6399L37.7584 97.5399V54.1399H20.5384C19.5584 52.5999 18.7184 50.9199 18.0184 49.0999C16.4784 45.0399 15.6384 40.6999 15.6384 36.0799C15.6384 24.8799 21.7984 16.6199 32.9984 16.6199Z"/>
<path d="M152.84 16.1999C160.96 15.7799 174.96 20.1199 185.6 31.3199C192.32 38.5999 197.5 51.4799 197.5 66.7399C197.5 81.8599 192.46 94.4599 185.88 101.6C182.52 105.24 178.74 108.32 174.54 110.7C166.14 115.6 159 117 152.84 117C147.94 117 143.88 116.86 137.02 115.18C130.16 113.5 124.7 110.98 118.54 105.66C109.86 98.2399 103.42 85.4999 103.42 64.4999C103.42 49.9399 108.04 38.1799 117.28 29.3599C126.38 20.5399 138.28 16.1999 152.84 16.1999ZM151.58 50.2199C142.62 50.2199 136.32 56.6599 136.32 66.3199C136.32 77.9399 141.36 83.8199 151.58 83.8199C155.92 84.2399 164.88 80.0399 165.16 67.0199C165.16 61.2799 163.62 56.9399 160.54 54.2799C157.46 51.6199 154.52 50.2199 151.58 50.2199Z"/>
<path d="M283.33 80.0399L300.83 101.18C298.87 110.98 293.27 115.04 287.95 116.44C283.89 117.7 282.77 117.56 281.51 117.56C272.41 117.56 264.85 112.66 260.93 105.94C256.87 99.3599 254.77 93.6199 254.07 88.5799C253.37 88.5799 250.57 88.7199 249.45 88.7199H246.65V107.06C246.65 107.48 243.01 117.28 230.69 117.28C214.45 117.28 206.33 108.88 206.33 92.0799L206.19 90.1199C206.19 84.6599 205.77 70.9399 205.77 56.6599C205.63 46.5799 205.49 34.8199 205.35 21.5199C206.75 20.5399 208.57 19.6999 210.95 18.9999C215.57 17.3199 220.47 16.4799 225.51 16.4799C237.97 16.4799 247.49 22.7799 247.49 34.1199V43.4999C247.35 47.6999 247.35 50.6399 247.35 52.4599C247.21 54.5599 247.21 57.7799 247.21 61.8399C247.35 61.9799 247.77 61.9799 248.19 61.9799C248.47 62.1199 249.17 62.1199 250.43 62.1199C256.73 62.1199 259.95 58.8999 259.95 52.5999C259.95 51.0599 259.95 46.9999 260.09 40.4199V26.1399C260.09 21.5199 260.09 19.1399 259.95 19.1399L260.09 18.9999C261.21 18.5799 267.37 16.0599 276.19 16.1999C286.41 16.1999 300.27 21.0999 300.27 39.1599C300.27 46.1599 298.87 53.4399 296.07 61.1399C293.27 68.8399 289.07 75.1399 283.33 80.0399Z"/>
<path d="M336.613 15.7799L368.393 15.3599C370.353 15.6399 372.173 16.3399 373.853 17.4599C377.493 20.3999 379.312 24.5999 379.312 30.1999C379.312 40.6999 373.853 46.0199 363.073 46.0199C362.233 46.0199 360.273 46.0199 357.053 45.8799H348.652C348.652 46.7199 348.793 53.2999 348.793 54.8399C348.933 54.8399 352.712 54.6999 360.272 54.4199L366.853 53.9999C368.393 54.1399 369.653 54.6999 370.633 55.3999C373.153 57.4999 374.413 60.7199 374.413 64.7799C374.413 74.2999 368.393 77.9399 362.233 77.9399C358.873 77.9399 354.533 77.6599 349.073 77.2399V87.4599C350.053 87.4599 355.373 87.0399 364.753 86.3399C366.853 86.1999 370.353 85.9199 374.973 85.4999C375.673 86.4799 376.373 87.7399 377.073 89.2799C378.613 92.7799 379.312 97.2599 379.312 102.58C379.312 115.32 368.392 117.28 363.772 117.28C363.492 117.28 361.253 117.42 357.053 117.7C352.713 117.84 348.932 117.98 345.712 117.98C336.752 117.98 331.853 117.84 325.133 115.74C321.633 114.76 318.973 113.36 317.013 111.54C312.953 107.9 309.593 101.18 309.173 91.6599L308.893 33.8399C308.893 30.4799 310.152 27.1199 313.652 22.9199C317.012 18.7199 325.273 15.7799 336.613 15.7799Z"/>
<path d="M479.066 102.3L478.926 107.62C478.926 107.9 476.126 117.56 459.326 117.56C451.486 117.56 444.626 113.5 438.886 105.52C433.006 97.5399 429.086 88.2999 427.266 77.7999H426.286C426.426 79.3399 426.566 82.6999 426.986 87.5999C427.266 92.4999 427.546 96.2799 427.686 98.7999C427.966 101.32 428.666 109.3 428.806 111.68C427.546 112.66 426.146 113.64 424.326 114.62C420.546 116.58 416.066 117.56 410.886 117.56C397.866 117.56 388.346 108.88 388.346 92.7799V20.9599L388.906 20.5399C390.026 19.4199 395.626 16.1999 408.366 16.1999C421.386 16.1999 429.786 25.4399 433.566 43.7799C435.106 50.7799 436.786 56.5199 438.606 61.1399H440.286C439.586 47.5599 439.306 34.3999 439.306 21.5199C438.746 20.5399 442.526 16.7599 457.926 16.4799C472.626 16.4799 480.046 25.1599 480.046 42.5199C480.046 48.2599 479.766 60.4399 479.626 72.0599C479.486 83.8199 479.206 95.1599 479.066 102.3Z"/>
<path d="M537.424 16.1999C545.544 15.7799 559.544 20.1199 570.184 31.3199C576.904 38.5999 582.084 51.4799 582.084 66.7399C582.084 81.8599 577.044 94.4599 570.464 101.6C567.104 105.24 563.324 108.32 559.124 110.7C550.724 115.6 543.584 117 537.424 117C532.524 117 528.464 116.86 521.604 115.18C514.744 113.5 509.284 110.98 503.124 105.66C494.444 98.2399 488.004 85.4999 488.004 64.4999C488.004 49.9399 492.624 38.1799 501.864 29.3599C510.964 20.5399 522.864 16.1999 537.424 16.1999ZM536.164 50.2199C527.204 50.2199 520.904 56.6599 520.904 66.3199C520.904 77.9399 525.944 83.8199 536.164 83.8199C540.504 84.2399 549.464 80.0399 549.744 67.0199C549.744 61.2799 548.204 56.9399 545.124 54.2799C542.044 51.6199 539.104 50.2199 536.164 50.2199Z"/>
<path d="M598.615 50.3599L605.895 23.6199C607.295 22.0799 608.695 20.8199 610.235 19.9799C614.155 17.4599 618.355 16.1999 622.835 16.1999C628.575 16.1999 631.515 16.3399 637.675 18.7199C640.615 19.9799 643.275 21.6599 645.375 23.8999C649.575 28.3799 654.195 37.4799 656.435 50.2199C657.975 43.7799 660.215 38.1799 662.875 33.4199C669.595 22.0799 677.995 16.4799 688.215 16.4799C702.355 16.4799 711.735 27.2599 716.215 48.6799C716.775 51.1999 717.475 55.5399 718.455 61.8399C720.835 78.4999 722.795 91.9399 724.335 102.3C724.895 106.08 724.895 106.22 724.895 106.64C724.895 110 720.275 114.9 710.755 117C708.235 117.42 706.135 117.7 704.595 117.7C698.995 117.7 694.935 116.44 692.275 113.92C689.615 111.4 687.515 105.8 686.115 97.2599L682.195 61.9799C678.275 61.9799 676.315 65.4799 676.315 72.6199C676.315 79.4799 676.875 86.7599 677.855 94.1799C678.275 98.5199 678.835 102.72 679.535 107.06C678.275 108.88 676.735 110.7 674.915 112.24C670.855 115.6 665.535 117.28 658.955 117.28C652.095 117.28 646.915 115.32 643.555 111.54C640.055 107.76 638.375 103.56 638.375 98.9399C638.375 96.2799 637.955 86.0599 637.955 80.4599C637.815 75.9799 637.675 71.7799 637.535 67.7199V67.1599C637.535 67.0199 637.675 66.1799 637.675 65.7599C637.675 62.8199 636.555 61.4199 634.455 61.4199C634.315 61.4199 634.035 61.4199 633.895 61.5599H633.755L627.455 110.7C626.335 111.96 624.935 113.08 623.255 114.06C619.475 116.3 615.415 117.42 611.075 117.42C608.835 117.42 607.435 117.28 606.735 117.14C595.535 115.6 589.935 106.08 589.935 93.1999C589.935 91.9399 590.075 90.2599 590.215 88.0199C590.915 81.7199 593.715 69.2599 598.615 50.3599Z"/>
<path d="M775.913 60.5799L775.073 106.78L774.513 107.76C773.393 110.7 769.193 117 759.533 117C743.713 117 735.733 108.6 735.733 91.6599V90.5399C735.733 86.3399 735.173 71.2199 735.173 56.0999C735.033 45.7399 734.893 33.9799 734.753 20.8199C736.293 20.1199 738.113 19.2799 740.353 18.5799C745.253 17.0399 750.013 16.1999 754.493 16.1999C766.953 16.1999 776.053 21.9399 776.053 33.5599V46.2999C775.913 53.0199 775.913 57.7799 775.913 60.5799Z"/>
<path d="M874.258 41.2599V42.3799C874.258 50.3599 868.658 56.3799 862.358 59.7399C861.378 60.4399 859.698 60.9999 857.178 61.6999L854.378 62.1199L853.958 61.2799C853.538 60.8599 853.398 60.4399 853.398 60.1599C850.038 54.4199 843.738 50.3599 836.458 50.3599C831.138 50.3599 826.658 52.0399 822.878 55.5399C819.098 59.0399 817.138 63.2399 817.138 68.1399C817.138 73.0399 818.958 77.0999 822.738 80.5999C826.518 84.0999 830.998 85.7799 836.458 85.7799C843.038 85.7799 849.338 82.4199 852.278 77.9399C854.378 77.0999 856.478 76.6799 858.578 76.6799C862.778 76.6799 866.278 78.4999 869.078 82.1399C871.738 85.6399 873.138 89.5599 873.138 94.0399C873.138 96.2799 872.718 98.7999 871.738 101.6C864.598 113.5 852.138 117 835.198 117C821.198 117 809.298 112.1 799.358 102.3C789.418 92.4999 784.518 80.5999 784.518 66.7399C784.518 52.7399 789.418 40.8399 799.358 30.8999C809.298 21.0999 821.198 16.1999 835.198 16.1999C844.158 16.1999 852.838 18.4399 861.098 22.9199C869.358 27.3999 873.698 33.5599 874.258 41.2599Z"/>
<path d="M913.858 49.5199C913.858 51.1999 916.518 52.7399 921.838 54.2799C924.218 54.9799 926.878 55.5399 929.958 55.9599C939.058 58.6199 946.058 64.0799 949.278 70.0999C952.498 76.1199 953.758 80.8799 953.758 85.2199C953.758 104.4 940.038 115.88 918.198 117H917.078C906.298 116.86 897.618 114.76 891.038 110.98C884.458 107.2 881.238 102.3 881.238 96.5599C881.238 91.6599 882.358 87.8799 884.458 84.9399C885.578 83.5399 886.698 82.5599 887.818 81.8599C897.898 86.4799 906.158 88.8599 912.738 88.8599C916.798 88.8599 918.898 87.7399 919.038 85.6399C919.038 83.8199 915.398 81.4399 908.118 78.2199C903.218 76.2599 899.578 74.8599 897.338 74.1599C888.938 70.9399 883.198 65.0599 881.098 58.7599C878.998 52.4599 878.718 49.5199 878.718 46.5799C879.138 30.0599 889.778 22.2199 900.278 18.9999C905.038 17.4599 911.058 16.4799 913.858 16.3399C915.258 16.1999 916.518 16.1999 917.778 16.1999C925.058 16.1999 932.618 17.4599 940.038 20.5399C947.458 23.6199 952.638 30.0599 952.638 38.3199C952.638 44.0599 949.138 49.5199 947.458 51.0599C946.478 51.7599 945.638 52.4599 944.938 52.8799C934.438 48.5399 926.318 46.2999 920.858 46.2999C917.918 46.2999 915.958 46.8599 914.838 47.9799C914.418 48.3999 913.998 48.8199 913.858 49.5199Z"/>
</mask>
<path d="M32.9984 16.6199C56.3784 16.6199 71.7784 16.6199 79.1984 16.4799C81.1584 16.4799 84.0984 16.4799 87.8784 16.3399C91.6584 16.3399 94.4584 16.3399 96.2784 16.1999C97.2584 18.0199 98.0984 19.6999 98.6584 21.2399C100.338 25.5799 101.178 29.7799 101.178 34.1199C101.178 45.4599 95.0184 54.1399 83.9584 54.1399H80.4584V102.72C79.8984 105.66 78.7784 108.04 76.9584 110C72.8984 114.76 66.4584 117.14 57.4984 117.14C42.6584 117.14 38.8784 104.54 38.1784 99.6399L37.7584 97.5399V54.1399H20.5384C19.5584 52.5999 18.7184 50.9199 18.0184 49.0999C16.4784 45.0399 15.6384 40.6999 15.6384 36.0799C15.6384 24.8799 21.7984 16.6199 32.9984 16.6199Z" fill="#53FFC8"/>
<path d="M152.84 16.1999C160.96 15.7799 174.96 20.1199 185.6 31.3199C192.32 38.5999 197.5 51.4799 197.5 66.7399C197.5 81.8599 192.46 94.4599 185.88 101.6C182.52 105.24 178.74 108.32 174.54 110.7C166.14 115.6 159 117 152.84 117C147.94 117 143.88 116.86 137.02 115.18C130.16 113.5 124.7 110.98 118.54 105.66C109.86 98.2399 103.42 85.4999 103.42 64.4999C103.42 49.9399 108.04 38.1799 117.28 29.3599C126.38 20.5399 138.28 16.1999 152.84 16.1999ZM151.58 50.2199C142.62 50.2199 136.32 56.6599 136.32 66.3199C136.32 77.9399 141.36 83.8199 151.58 83.8199C155.92 84.2399 164.88 80.0399 165.16 67.0199C165.16 61.2799 163.62 56.9399 160.54 54.2799C157.46 51.6199 154.52 50.2199 151.58 50.2199Z" fill="#53FFC8"/>
<path d="M283.33 80.0399L300.83 101.18C298.87 110.98 293.27 115.04 287.95 116.44C283.89 117.7 282.77 117.56 281.51 117.56C272.41 117.56 264.85 112.66 260.93 105.94C256.87 99.3599 254.77 93.6199 254.07 88.5799C253.37 88.5799 250.57 88.7199 249.45 88.7199H246.65V107.06C246.65 107.48 243.01 117.28 230.69 117.28C214.45 117.28 206.33 108.88 206.33 92.0799L206.19 90.1199C206.19 84.6599 205.77 70.9399 205.77 56.6599C205.63 46.5799 205.49 34.8199 205.35 21.5199C206.75 20.5399 208.57 19.6999 210.95 18.9999C215.57 17.3199 220.47 16.4799 225.51 16.4799C237.97 16.4799 247.49 22.7799 247.49 34.1199V43.4999C247.35 47.6999 247.35 50.6399 247.35 52.4599C247.21 54.5599 247.21 57.7799 247.21 61.8399C247.35 61.9799 247.77 61.9799 248.19 61.9799C248.47 62.1199 249.17 62.1199 250.43 62.1199C256.73 62.1199 259.95 58.8999 259.95 52.5999C259.95 51.0599 259.95 46.9999 260.09 40.4199V26.1399C260.09 21.5199 260.09 19.1399 259.95 19.1399L260.09 18.9999C261.21 18.5799 267.37 16.0599 276.19 16.1999C286.41 16.1999 300.27 21.0999 300.27 39.1599C300.27 46.1599 298.87 53.4399 296.07 61.1399C293.27 68.8399 289.07 75.1399 283.33 80.0399Z" fill="#53FFC8"/>
<path d="M336.613 15.7799L368.393 15.3599C370.353 15.6399 372.173 16.3399 373.853 17.4599C377.493 20.3999 379.312 24.5999 379.312 30.1999C379.312 40.6999 373.853 46.0199 363.073 46.0199C362.233 46.0199 360.273 46.0199 357.053 45.8799H348.652C348.652 46.7199 348.793 53.2999 348.793 54.8399C348.933 54.8399 352.712 54.6999 360.272 54.4199L366.853 53.9999C368.393 54.1399 369.653 54.6999 370.633 55.3999C373.153 57.4999 374.413 60.7199 374.413 64.7799C374.413 74.2999 368.393 77.9399 362.233 77.9399C358.873 77.9399 354.533 77.6599 349.073 77.2399V87.4599C350.053 87.4599 355.373 87.0399 364.753 86.3399C366.853 86.1999 370.353 85.9199 374.973 85.4999C375.673 86.4799 376.373 87.7399 377.073 89.2799C378.613 92.7799 379.312 97.2599 379.312 102.58C379.312 115.32 368.392 117.28 363.772 117.28C363.492 117.28 361.253 117.42 357.053 117.7C352.713 117.84 348.932 117.98 345.712 117.98C336.752 117.98 331.853 117.84 325.133 115.74C321.633 114.76 318.973 113.36 317.013 111.54C312.953 107.9 309.593 101.18 309.173 91.6599L308.893 33.8399C308.893 30.4799 310.152 27.1199 313.652 22.9199C317.012 18.7199 325.273 15.7799 336.613 15.7799Z" fill="#53FFC8"/>
<path d="M479.066 102.3L478.926 107.62C478.926 107.9 476.126 117.56 459.326 117.56C451.486 117.56 444.626 113.5 438.886 105.52C433.006 97.5399 429.086 88.2999 427.266 77.7999H426.286C426.426 79.3399 426.566 82.6999 426.986 87.5999C427.266 92.4999 427.546 96.2799 427.686 98.7999C427.966 101.32 428.666 109.3 428.806 111.68C427.546 112.66 426.146 113.64 424.326 114.62C420.546 116.58 416.066 117.56 410.886 117.56C397.866 117.56 388.346 108.88 388.346 92.7799V20.9599L388.906 20.5399C390.026 19.4199 395.626 16.1999 408.366 16.1999C421.386 16.1999 429.786 25.4399 433.566 43.7799C435.106 50.7799 436.786 56.5199 438.606 61.1399H440.286C439.586 47.5599 439.306 34.3999 439.306 21.5199C438.746 20.5399 442.526 16.7599 457.926 16.4799C472.626 16.4799 480.046 25.1599 480.046 42.5199C480.046 48.2599 479.766 60.4399 479.626 72.0599C479.486 83.8199 479.206 95.1599 479.066 102.3Z" fill="#53FFC8"/>
<path d="M537.424 16.1999C545.544 15.7799 559.544 20.1199 570.184 31.3199C576.904 38.5999 582.084 51.4799 582.084 66.7399C582.084 81.8599 577.044 94.4599 570.464 101.6C567.104 105.24 563.324 108.32 559.124 110.7C550.724 115.6 543.584 117 537.424 117C532.524 117 528.464 116.86 521.604 115.18C514.744 113.5 509.284 110.98 503.124 105.66C494.444 98.2399 488.004 85.4999 488.004 64.4999C488.004 49.9399 492.624 38.1799 501.864 29.3599C510.964 20.5399 522.864 16.1999 537.424 16.1999ZM536.164 50.2199C527.204 50.2199 520.904 56.6599 520.904 66.3199C520.904 77.9399 525.944 83.8199 536.164 83.8199C540.504 84.2399 549.464 80.0399 549.744 67.0199C549.744 61.2799 548.204 56.9399 545.124 54.2799C542.044 51.6199 539.104 50.2199 536.164 50.2199Z" fill="#53FFC8"/>
<path d="M598.615 50.3599L605.895 23.6199C607.295 22.0799 608.695 20.8199 610.235 19.9799C614.155 17.4599 618.355 16.1999 622.835 16.1999C628.575 16.1999 631.515 16.3399 637.675 18.7199C640.615 19.9799 643.275 21.6599 645.375 23.8999C649.575 28.3799 654.195 37.4799 656.435 50.2199C657.975 43.7799 660.215 38.1799 662.875 33.4199C669.595 22.0799 677.995 16.4799 688.215 16.4799C702.355 16.4799 711.735 27.2599 716.215 48.6799C716.775 51.1999 717.475 55.5399 718.455 61.8399C720.835 78.4999 722.795 91.9399 724.335 102.3C724.895 106.08 724.895 106.22 724.895 106.64C724.895 110 720.275 114.9 710.755 117C708.235 117.42 706.135 117.7 704.595 117.7C698.995 117.7 694.935 116.44 692.275 113.92C689.615 111.4 687.515 105.8 686.115 97.2599L682.195 61.9799C678.275 61.9799 676.315 65.4799 676.315 72.6199C676.315 79.4799 676.875 86.7599 677.855 94.1799C678.275 98.5199 678.835 102.72 679.535 107.06C678.275 108.88 676.735 110.7 674.915 112.24C670.855 115.6 665.535 117.28 658.955 117.28C652.095 117.28 646.915 115.32 643.555 111.54C640.055 107.76 638.375 103.56 638.375 98.9399C638.375 96.2799 637.955 86.0599 637.955 80.4599C637.815 75.9799 637.675 71.7799 637.535 67.7199V67.1599C637.535 67.0199 637.675 66.1799 637.675 65.7599C637.675 62.8199 636.555 61.4199 634.455 61.4199C634.315 61.4199 634.035 61.4199 633.895 61.5599H633.755L627.455 110.7C626.335 111.96 624.935 113.08 623.255 114.06C619.475 116.3 615.415 117.42 611.075 117.42C608.835 117.42 607.435 117.28 606.735 117.14C595.535 115.6 589.935 106.08 589.935 93.1999C589.935 91.9399 590.075 90.2599 590.215 88.0199C590.915 81.7199 593.715 69.2599 598.615 50.3599Z" fill="#53FFC8"/>
<path d="M775.913 60.5799L775.073 106.78L774.513 107.76C773.393 110.7 769.193 117 759.533 117C743.713 117 735.733 108.6 735.733 91.6599V90.5399C735.733 86.3399 735.173 71.2199 735.173 56.0999C735.033 45.7399 734.893 33.9799 734.753 20.8199C736.293 20.1199 738.113 19.2799 740.353 18.5799C745.253 17.0399 750.013 16.1999 754.493 16.1999C766.953 16.1999 776.053 21.9399 776.053 33.5599V46.2999C775.913 53.0199 775.913 57.7799 775.913 60.5799Z" fill="#53FFC8"/>
<path d="M874.258 41.2599V42.3799C874.258 50.3599 868.658 56.3799 862.358 59.7399C861.378 60.4399 859.698 60.9999 857.178 61.6999L854.378 62.1199L853.958 61.2799C853.538 60.8599 853.398 60.4399 853.398 60.1599C850.038 54.4199 843.738 50.3599 836.458 50.3599C831.138 50.3599 826.658 52.0399 822.878 55.5399C819.098 59.0399 817.138 63.2399 817.138 68.1399C817.138 73.0399 818.958 77.0999 822.738 80.5999C826.518 84.0999 830.998 85.7799 836.458 85.7799C843.038 85.7799 849.338 82.4199 852.278 77.9399C854.378 77.0999 856.478 76.6799 858.578 76.6799C862.778 76.6799 866.278 78.4999 869.078 82.1399C871.738 85.6399 873.138 89.5599 873.138 94.0399C873.138 96.2799 872.718 98.7999 871.738 101.6C864.598 113.5 852.138 117 835.198 117C821.198 117 809.298 112.1 799.358 102.3C789.418 92.4999 784.518 80.5999 784.518 66.7399C784.518 52.7399 789.418 40.8399 799.358 30.8999C809.298 21.0999 821.198 16.1999 835.198 16.1999C844.158 16.1999 852.838 18.4399 861.098 22.9199C869.358 27.3999 873.698 33.5599 874.258 41.2599Z" fill="#53FFC8"/>
<path d="M913.858 49.5199C913.858 51.1999 916.518 52.7399 921.838 54.2799C924.218 54.9799 926.878 55.5399 929.958 55.9599C939.058 58.6199 946.058 64.0799 949.278 70.0999C952.498 76.1199 953.758 80.8799 953.758 85.2199C953.758 104.4 940.038 115.88 918.198 117H917.078C906.298 116.86 897.618 114.76 891.038 110.98C884.458 107.2 881.238 102.3 881.238 96.5599C881.238 91.6599 882.358 87.8799 884.458 84.9399C885.578 83.5399 886.698 82.5599 887.818 81.8599C897.898 86.4799 906.158 88.8599 912.738 88.8599C916.798 88.8599 918.898 87.7399 919.038 85.6399C919.038 83.8199 915.398 81.4399 908.118 78.2199C903.218 76.2599 899.578 74.8599 897.338 74.1599C888.938 70.9399 883.198 65.0599 881.098 58.7599C878.998 52.4599 878.718 49.5199 878.718 46.5799C879.138 30.0599 889.778 22.2199 900.278 18.9999C905.038 17.4599 911.058 16.4799 913.858 16.3399C915.258 16.1999 916.518 16.1999 917.778 16.1999C925.058 16.1999 932.618 17.4599 940.038 20.5399C947.458 23.6199 952.638 30.0599 952.638 38.3199C952.638 44.0599 949.138 49.5199 947.458 51.0599C946.478 51.7599 945.638 52.4599 944.938 52.8799C934.438 48.5399 926.318 46.2999 920.858 46.2999C917.918 46.2999 915.958 46.8599 914.838 47.9799C914.418 48.3999 913.998 48.8199 913.858 49.5199Z" fill="#53FFC8"/>
<path d="M32.9984 16.6199C56.3784 16.6199 71.7784 16.6199 79.1984 16.4799C81.1584 16.4799 84.0984 16.4799 87.8784 16.3399C91.6584 16.3399 94.4584 16.3399 96.2784 16.1999C97.2584 18.0199 98.0984 19.6999 98.6584 21.2399C100.338 25.5799 101.178 29.7799 101.178 34.1199C101.178 45.4599 95.0184 54.1399 83.9584 54.1399H80.4584V102.72C79.8984 105.66 78.7784 108.04 76.9584 110C72.8984 114.76 66.4584 117.14 57.4984 117.14C42.6584 117.14 38.8784 104.54 38.1784 99.6399L37.7584 97.5399V54.1399H20.5384C19.5584 52.5999 18.7184 50.9199 18.0184 49.0999C16.4784 45.0399 15.6384 40.6999 15.6384 36.0799C15.6384 24.8799 21.7984 16.6199 32.9984 16.6199Z" stroke="black" stroke-width="30" mask="url(#path-1-outside-1_2023_2)"/>
<path d="M152.84 16.1999C160.96 15.7799 174.96 20.1199 185.6 31.3199C192.32 38.5999 197.5 51.4799 197.5 66.7399C197.5 81.8599 192.46 94.4599 185.88 101.6C182.52 105.24 178.74 108.32 174.54 110.7C166.14 115.6 159 117 152.84 117C147.94 117 143.88 116.86 137.02 115.18C130.16 113.5 124.7 110.98 118.54 105.66C109.86 98.2399 103.42 85.4999 103.42 64.4999C103.42 49.9399 108.04 38.1799 117.28 29.3599C126.38 20.5399 138.28 16.1999 152.84 16.1999ZM151.58 50.2199C142.62 50.2199 136.32 56.6599 136.32 66.3199C136.32 77.9399 141.36 83.8199 151.58 83.8199C155.92 84.2399 164.88 80.0399 165.16 67.0199C165.16 61.2799 163.62 56.9399 160.54 54.2799C157.46 51.6199 154.52 50.2199 151.58 50.2199Z" stroke="black" stroke-width="30" mask="url(#path-1-outside-1_2023_2)"/>
<path d="M283.33 80.0399L300.83 101.18C298.87 110.98 293.27 115.04 287.95 116.44C283.89 117.7 282.77 117.56 281.51 117.56C272.41 117.56 264.85 112.66 260.93 105.94C256.87 99.3599 254.77 93.6199 254.07 88.5799C253.37 88.5799 250.57 88.7199 249.45 88.7199H246.65V107.06C246.65 107.48 243.01 117.28 230.69 117.28C214.45 117.28 206.33 108.88 206.33 92.0799L206.19 90.1199C206.19 84.6599 205.77 70.9399 205.77 56.6599C205.63 46.5799 205.49 34.8199 205.35 21.5199C206.75 20.5399 208.57 19.6999 210.95 18.9999C215.57 17.3199 220.47 16.4799 225.51 16.4799C237.97 16.4799 247.49 22.7799 247.49 34.1199V43.4999C247.35 47.6999 247.35 50.6399 247.35 52.4599C247.21 54.5599 247.21 57.7799 247.21 61.8399C247.35 61.9799 247.77 61.9799 248.19 61.9799C248.47 62.1199 249.17 62.1199 250.43 62.1199C256.73 62.1199 259.95 58.8999 259.95 52.5999C259.95 51.0599 259.95 46.9999 260.09 40.4199V26.1399C260.09 21.5199 260.09 19.1399 259.95 19.1399L260.09 18.9999C261.21 18.5799 267.37 16.0599 276.19 16.1999C286.41 16.1999 300.27 21.0999 300.27 39.1599C300.27 46.1599 298.87 53.4399 296.07 61.1399C293.27 68.8399 289.07 75.1399 283.33 80.0399Z" stroke="black" stroke-width="30" mask="url(#path-1-outside-1_2023_2)"/>
<path d="M336.613 15.7799L368.393 15.3599C370.353 15.6399 372.173 16.3399 373.853 17.4599C377.493 20.3999 379.312 24.5999 379.312 30.1999C379.312 40.6999 373.853 46.0199 363.073 46.0199C362.233 46.0199 360.273 46.0199 357.053 45.8799H348.652C348.652 46.7199 348.793 53.2999 348.793 54.8399C348.933 54.8399 352.712 54.6999 360.272 54.4199L366.853 53.9999C368.393 54.1399 369.653 54.6999 370.633 55.3999C373.153 57.4999 374.413 60.7199 374.413 64.7799C374.413 74.2999 368.393 77.9399 362.233 77.9399C358.873 77.9399 354.533 77.6599 349.073 77.2399V87.4599C350.053 87.4599 355.373 87.0399 364.753 86.3399C366.853 86.1999 370.353 85.9199 374.973 85.4999C375.673 86.4799 376.373 87.7399 377.073 89.2799C378.613 92.7799 379.312 97.2599 379.312 102.58C379.312 115.32 368.392 117.28 363.772 117.28C363.492 117.28 361.253 117.42 357.053 117.7C352.713 117.84 348.932 117.98 345.712 117.98C336.752 117.98 331.853 117.84 325.133 115.74C321.633 114.76 318.973 113.36 317.013 111.54C312.953 107.9 309.593 101.18 309.173 91.6599L308.893 33.8399C308.893 30.4799 310.152 27.1199 313.652 22.9199C317.012 18.7199 325.273 15.7799 336.613 15.7799Z" stroke="black" stroke-width="30" mask="url(#path-1-outside-1_2023_2)"/>
<path d="M479.066 102.3L478.926 107.62C478.926 107.9 476.126 117.56 459.326 117.56C451.486 117.56 444.626 113.5 438.886 105.52C433.006 97.5399 429.086 88.2999 427.266 77.7999H426.286C426.426 79.3399 426.566 82.6999 426.986 87.5999C427.266 92.4999 427.546 96.2799 427.686 98.7999C427.966 101.32 428.666 109.3 428.806 111.68C427.546 112.66 426.146 113.64 424.326 114.62C420.546 116.58 416.066 117.56 410.886 117.56C397.866 117.56 388.346 108.88 388.346 92.7799V20.9599L388.906 20.5399C390.026 19.4199 395.626 16.1999 408.366 16.1999C421.386 16.1999 429.786 25.4399 433.566 43.7799C435.106 50.7799 436.786 56.5199 438.606 61.1399H440.286C439.586 47.5599 439.306 34.3999 439.306 21.5199C438.746 20.5399 442.526 16.7599 457.926 16.4799C472.626 16.4799 480.046 25.1599 480.046 42.5199C480.046 48.2599 479.766 60.4399 479.626 72.0599C479.486 83.8199 479.206 95.1599 479.066 102.3Z" stroke="black" stroke-width="30" mask="url(#path-1-outside-1_2023_2)"/>
<path d="M537.424 16.1999C545.544 15.7799 559.544 20.1199 570.184 31.3199C576.904 38.5999 582.084 51.4799 582.084 66.7399C582.084 81.8599 577.044 94.4599 570.464 101.6C567.104 105.24 563.324 108.32 559.124 110.7C550.724 115.6 543.584 117 537.424 117C532.524 117 528.464 116.86 521.604 115.18C514.744 113.5 509.284 110.98 503.124 105.66C494.444 98.2399 488.004 85.4999 488.004 64.4999C488.004 49.9399 492.624 38.1799 501.864 29.3599C510.964 20.5399 522.864 16.1999 537.424 16.1999ZM536.164 50.2199C527.204 50.2199 520.904 56.6599 520.904 66.3199C520.904 77.9399 525.944 83.8199 536.164 83.8199C540.504 84.2399 549.464 80.0399 549.744 67.0199C549.744 61.2799 548.204 56.9399 545.124 54.2799C542.044 51.6199 539.104 50.2199 536.164 50.2199Z" stroke="black" stroke-width="30" mask="url(#path-1-outside-1_2023_2)"/>
<path d="M598.615 50.3599L605.895 23.6199C607.295 22.0799 608.695 20.8199 610.235 19.9799C614.155 17.4599 618.355 16.1999 622.835 16.1999C628.575 16.1999 631.515 16.3399 637.675 18.7199C640.615 19.9799 643.275 21.6599 645.375 23.8999C649.575 28.3799 654.195 37.4799 656.435 50.2199C657.975 43.7799 660.215 38.1799 662.875 33.4199C669.595 22.0799 677.995 16.4799 688.215 16.4799C702.355 16.4799 711.735 27.2599 716.215 48.6799C716.775 51.1999 717.475 55.5399 718.455 61.8399C720.835 78.4999 722.795 91.9399 724.335 102.3C724.895 106.08 724.895 106.22 724.895 106.64C724.895 110 720.275 114.9 710.755 117C708.235 117.42 706.135 117.7 704.595 117.7C698.995 117.7 694.935 116.44 692.275 113.92C689.615 111.4 687.515 105.8 686.115 97.2599L682.195 61.9799C678.275 61.9799 676.315 65.4799 676.315 72.6199C676.315 79.4799 676.875 86.7599 677.855 94.1799C678.275 98.5199 678.835 102.72 679.535 107.06C678.275 108.88 676.735 110.7 674.915 112.24C670.855 115.6 665.535 117.28 658.955 117.28C652.095 117.28 646.915 115.32 643.555 111.54C640.055 107.76 638.375 103.56 638.375 98.9399C638.375 96.2799 637.955 86.0599 637.955 80.4599C637.815 75.9799 637.675 71.7799 637.535 67.7199V67.1599C637.535 67.0199 637.675 66.1799 637.675 65.7599C637.675 62.8199 636.555 61.4199 634.455 61.4199C634.315 61.4199 634.035 61.4199 633.895 61.5599H633.755L627.455 110.7C626.335 111.96 624.935 113.08 623.255 114.06C619.475 116.3 615.415 117.42 611.075 117.42C608.835 117.42 607.435 117.28 606.735 117.14C595.535 115.6 589.935 106.08 589.935 93.1999C589.935 91.9399 590.075 90.2599 590.215 88.0199C590.915 81.7199 593.715 69.2599 598.615 50.3599Z" stroke="black" stroke-width="30" mask="url(#path-1-outside-1_2023_2)"/>
<path d="M775.913 60.5799L775.073 106.78L774.513 107.76C773.393 110.7 769.193 117 759.533 117C743.713 117 735.733 108.6 735.733 91.6599V90.5399C735.733 86.3399 735.173 71.2199 735.173 56.0999C735.033 45.7399 734.893 33.9799 734.753 20.8199C736.293 20.1199 738.113 19.2799 740.353 18.5799C745.253 17.0399 750.013 16.1999 754.493 16.1999C766.953 16.1999 776.053 21.9399 776.053 33.5599V46.2999C775.913 53.0199 775.913 57.7799 775.913 60.5799Z" stroke="black" stroke-width="30" mask="url(#path-1-outside-1_2023_2)"/>
<path d="M874.258 41.2599V42.3799C874.258 50.3599 868.658 56.3799 862.358 59.7399C861.378 60.4399 859.698 60.9999 857.178 61.6999L854.378 62.1199L853.958 61.2799C853.538 60.8599 853.398 60.4399 853.398 60.1599C850.038 54.4199 843.738 50.3599 836.458 50.3599C831.138 50.3599 826.658 52.0399 822.878 55.5399C819.098 59.0399 817.138 63.2399 817.138 68.1399C817.138 73.0399 818.958 77.0999 822.738 80.5999C826.518 84.0999 830.998 85.7799 836.458 85.7799C843.038 85.7799 849.338 82.4199 852.278 77.9399C854.378 77.0999 856.478 76.6799 858.578 76.6799C862.778 76.6799 866.278 78.4999 869.078 82.1399C871.738 85.6399 873.138 89.5599 873.138 94.0399C873.138 96.2799 872.718 98.7999 871.738 101.6C864.598 113.5 852.138 117 835.198 117C821.198 117 809.298 112.1 799.358 102.3C789.418 92.4999 784.518 80.5999 784.518 66.7399C784.518 52.7399 789.418 40.8399 799.358 30.8999C809.298 21.0999 821.198 16.1999 835.198 16.1999C844.158 16.1999 852.838 18.4399 861.098 22.9199C869.358 27.3999 873.698 33.5599 874.258 41.2599Z" stroke="black" stroke-width="30" mask="url(#path-1-outside-1_2023_2)"/>
<path d="M913.858 49.5199C913.858 51.1999 916.518 52.7399 921.838 54.2799C924.218 54.9799 926.878 55.5399 929.958 55.9599C939.058 58.6199 946.058 64.0799 949.278 70.0999C952.498 76.1199 953.758 80.8799 953.758 85.2199C953.758 104.4 940.038 115.88 918.198 117H917.078C906.298 116.86 897.618 114.76 891.038 110.98C884.458 107.2 881.238 102.3 881.238 96.5599C881.238 91.6599 882.358 87.8799 884.458 84.9399C885.578 83.5399 886.698 82.5599 887.818 81.8599C897.898 86.4799 906.158 88.8599 912.738 88.8599C916.798 88.8599 918.898 87.7399 919.038 85.6399C919.038 83.8199 915.398 81.4399 908.118 78.2199C903.218 76.2599 899.578 74.8599 897.338 74.1599C888.938 70.9399 883.198 65.0599 881.098 58.7599C878.998 52.4599 878.718 49.5199 878.718 46.5799C879.138 30.0599 889.778 22.2199 900.278 18.9999C905.038 17.4599 911.058 16.4799 913.858 16.3399C915.258 16.1999 916.518 16.1999 917.778 16.1999C925.058 16.1999 932.618 17.4599 940.038 20.5399C947.458 23.6199 952.638 30.0599 952.638 38.3199C952.638 44.0599 949.138 49.5199 947.458 51.0599C946.478 51.7599 945.638 52.4599 944.938 52.8799C934.438 48.5399 926.318 46.2999 920.858 46.2999C917.918 46.2999 915.958 46.8599 914.838 47.9799C914.418 48.3999 913.998 48.8199 913.858 49.5199Z" stroke="black" stroke-width="30" mask="url(#path-1-outside-1_2023_2)"/>
</svg>
