<svg width="88" height="85" viewBox="0 0 88 85" fill="none" xmlns="http://www.w3.org/2000/svg">
<path d="M49.1857 30.7054L28.1259 0.712675L27.9766 0.5H27.7167H3H2.03789L2.59082 1.28735L34.7705 47.1099L2.62451 83.6698L1.89457 84.5H3H10.3218H10.548L10.6973 84.3301L38.6086 52.5775L60.8741 84.2873L61.0234 84.5H61.2833H86H86.9619L86.4092 83.7127L53.0409 36.1832L83.6831 1.33014L84.413 0.5H83.3076H75.9858H75.7597L75.6104 0.669733L49.1857 30.7054ZM42.7811 47.2591L42.7808 47.2588L39.4925 42.6611L39.4924 42.661L13.9342 6.90108H23.9528L44.8914 36.1997L44.8919 36.2004L48.166 40.7975L48.1664 40.7982L75.0105 78.3621H64.9919L42.7811 47.2591Z" fill="black" stroke="black"/>
</svg>
